<ttFont>
    <TTGlyph name="A" xMin="-14" yMin="0" xMax="716" yMax="668">
      <contour>
        <pt x="716" y="0" on="1"/>
        <pt x="422" y="0" on="1"/>
        <pt x="422" y="24" on="1"/>
        <pt x="503" y="33" on="1"/>
        <pt x="411" y="263" on="1"/>
        <pt x="186" y="263" on="1"/>
        <pt x="106" y="50" on="1"/>
        <pt x="195" y="24" on="1"/>
        <pt x="195" y="0" on="1"/>
        <pt x="-14" y="0" on="1"/>
        <pt x="-14" y="24" on="1"/>
        <pt x="62" y="50" on="1"/>
        <pt x="304" y="668" on="1"/>
        <pt x="374" y="668" on="1"/>
        <pt x="639" y="33" on="1"/>
        <pt x="716" y="24" on="1"/>
      </contour>
      <contour>
        <pt x="396" y="300" on="1"/>
        <pt x="298" y="543" on="1"/>
        <pt x="200" y="300" on="1"/>
      </contour>
    </TTGlyph>
    <TTGlyph name="AE" xMin="-46" yMin="0" xMax="905" yMax="670">
      <contour>
        <pt x="439" y="263" on="1"/>
        <pt x="224" y="263" on="1"/>
        <pt x="82" y="50" on="1"/>
        <pt x="159" y="24" on="1"/>
        <pt x="159" y="0" on="1"/>
        <pt x="-46" y="0" on="1"/>
        <pt x="-46" y="24" on="1"/>
        <pt x="38" y="50" on="1"/>
        <pt x="439" y="627" on="1"/>
        <pt x="439" y="635" on="1"/>
        <pt x="352" y="644" on="1"/>
        <pt x="352" y="670" on="1"/>
        <pt x="862" y="668" on="1"/>
        <pt x="862" y="526" on="1"/>
        <pt x="830" y="526" on="1"/>
        <pt x="791" y="632" on="1"/>
        <pt x="572" y="635" on="1"/>
        <pt x="572" y="366" on="1"/>
        <pt x="766" y="366" on="1"/>
        <pt x="797" y="440" on="1"/>
        <pt x="825" y="440" on="1"/>
        <pt x="825" y="254" on="1"/>
        <pt x="796" y="254" on="1"/>
        <pt x="766" y="330" on="1"/>
        <pt x="572" y="330" on="1"/>
        <pt x="572" y="32" on="1"/>
        <pt x="821" y="35" on="1"/>
        <pt x="873" y="149" on="1"/>
        <pt x="905" y="149" on="1"/>
        <pt x="893" y="0" on="1"/>
        <pt x="352" y="0" on="1"/>
        <pt x="352" y="24" on="1"/>
        <pt x="439" y="33" on="1"/>
      </contour>
      <contour>
        <pt x="439" y="300" on="1"/>
        <pt x="439" y="576" on="1"/>
        <pt x="248" y="300" on="1"/>
      </contour>
    </TTGlyph>
    <TTGlyph name="Aacute" xMin="-14" yMin="0" xMax="716" yMax="914">
      <contour>
        <pt x="716" y="0" on="1"/>
        <pt x="422" y="0" on="1"/>
        <pt x="422" y="24" on="1"/>
        <pt x="503" y="33" on="1"/>
        <pt x="411" y="263" on="1"/>
        <pt x="186" y="263" on="1"/>
        <pt x="106" y="50" on="1"/>
        <pt x="195" y="24" on="1"/>
        <pt x="195" y="0" on="1"/>
        <pt x="-14" y="0" on="1"/>
        <pt x="-14" y="24" on="1"/>
        <pt x="62" y="50" on="1"/>
        <pt x="304" y="668" on="1"/>
        <pt x="374" y="668" on="1"/>
        <pt x="639" y="33" on="1"/>
        <pt x="716" y="24" on="1"/>
      </contour>
      <contour>
        <pt x="396" y="300" on="1"/>
        <pt x="298" y="543" on="1"/>
        <pt x="200" y="300" on="1"/>
      </contour>
      <contour>
        <pt x="254" y="741" on="1"/>
        <pt x="280" y="773" on="0"/>
        <pt x="404" y="914" on="1"/>
        <pt x="455" y="868" on="0"/>
        <pt x="454" y="843" on="1"/>
        <pt x="452" y="828" on="0"/>
        <pt x="434" y="815" on="1"/>
        <pt x="341" y="749" on="0"/>
        <pt x="276" y="712" on="1"/>
        <pt x="260" y="732" on="0"/>
      </contour>
    </TTGlyph>
    <TTGlyph name="Acircumflex" xMin="-14" yMin="0" xMax="716" yMax="921">
      <contour>
        <pt x="716" y="0" on="1"/>
        <pt x="422" y="0" on="1"/>
        <pt x="422" y="24" on="1"/>
        <pt x="503" y="33" on="1"/>
        <pt x="411" y="263" on="1"/>
        <pt x="186" y="263" on="1"/>
        <pt x="106" y="50" on="1"/>
        <pt x="195" y="24" on="1"/>
        <pt x="195" y="0" on="1"/>
        <pt x="-14" y="0" on="1"/>
        <pt x="-14" y="24" on="1"/>
        <pt x="62" y="50" on="1"/>
        <pt x="304" y="668" on="1"/>
        <pt x="374" y="668" on="1"/>
        <pt x="639" y="33" on="1"/>
        <pt x="716" y="24" on="1"/>
      </contour>
      <contour>
        <pt x="396" y="300" on="1"/>
        <pt x="298" y="543" on="1"/>
        <pt x="200" y="300" on="1"/>
      </contour>
      <contour>
        <pt x="178" y="735" on="1"/>
        <pt x="309" y="921" on="1"/>
        <pt x="371" y="921" on="1"/>
        <pt x="501" y="735" on="1"/>
        <pt x="470" y="716" on="1"/>
        <pt x="340" y="832" on="1"/>
        <pt x="209" y="716" on="1"/>
      </contour>
    </TTGlyph>
    <TTGlyph name="Adieresis" xMin="-14" yMin="0" xMax="716" yMax="880">
      <contour>
        <pt x="716" y="0" on="1"/>
        <pt x="422" y="0" on="1"/>
        <pt x="422" y="24" on="1"/>
        <pt x="503" y="33" on="1"/>
        <pt x="411" y="263" on="1"/>
        <pt x="186" y="263" on="1"/>
        <pt x="106" y="50" on="1"/>
        <pt x="195" y="24" on="1"/>
        <pt x="195" y="0" on="1"/>
        <pt x="-14" y="0" on="1"/>
        <pt x="-14" y="24" on="1"/>
        <pt x="62" y="50" on="1"/>
        <pt x="304" y="668" on="1"/>
        <pt x="374" y="668" on="1"/>
        <pt x="639" y="33" on="1"/>
        <pt x="716" y="24" on="1"/>
      </contour>
      <contour>
        <pt x="396" y="300" on="1"/>
        <pt x="298" y="543" on="1"/>
        <pt x="200" y="300" on="1"/>
      </contour>
      <contour>
        <pt x="317" y="782" on="0"/>
        <pt x="276" y="742" on="0"/>
        <pt x="217" y="742" on="0"/>
        <pt x="179" y="780" on="0"/>
        <pt x="179" y="838" on="0"/>
        <pt x="218" y="880" on="0"/>
        <pt x="276" y="880" on="0"/>
        <pt x="317" y="838" on="0"/>
      </contour>
      <contour>
        <pt x="502" y="782" on="0"/>
        <pt x="462" y="742" on="0"/>
        <pt x="402" y="742" on="0"/>
        <pt x="364" y="780" on="0"/>
        <pt x="364" y="839" on="0"/>
        <pt x="403" y="880" on="0"/>
        <pt x="462" y="880" on="0"/>
        <pt x="502" y="838" on="0"/>
      </contour>
    </TTGlyph>
    <TTGlyph name="Agrave" xMin="-14" yMin="0" xMax="716" yMax="914">
      <contour>
        <pt x="716" y="0" on="1"/>
        <pt x="422" y="0" on="1"/>
        <pt x="422" y="24" on="1"/>
        <pt x="503" y="33" on="1"/>
        <pt x="411" y="263" on="1"/>
        <pt x="186" y="263" on="1"/>
        <pt x="106" y="50" on="1"/>
        <pt x="195" y="24" on="1"/>
        <pt x="195" y="0" on="1"/>
        <pt x="-14" y="0" on="1"/>
        <pt x="-14" y="24" on="1"/>
        <pt x="62" y="50" on="1"/>
        <pt x="304" y="668" on="1"/>
        <pt x="374" y="668" on="1"/>
        <pt x="639" y="33" on="1"/>
        <pt x="716" y="24" on="1"/>
      </contour>
      <contour>
        <pt x="396" y="300" on="1"/>
        <pt x="298" y="543" on="1"/>
        <pt x="200" y="300" on="1"/>
      </contour>
      <contour>
        <pt x="427" y="741" on="1"/>
        <pt x="421" y="732" on="0"/>
        <pt x="405" y="712" on="1"/>
        <pt x="340" y="749" on="0"/>
        <pt x="247" y="815" on="1"/>
        <pt x="229" y="828" on="0"/>
        <pt x="227" y="843" on="1"/>
        <pt x="226" y="868" on="0"/>
        <pt x="277" y="914" on="1"/>
        <pt x="401" y="773" on="0"/>
      </contour>
    </TTGlyph>
    <TTGlyph name="Aring" xMin="-14" yMin="0" xMax="716" yMax="945">
      <contour>
        <pt x="716" y="0" on="1"/>
        <pt x="422" y="0" on="1"/>
        <pt x="422" y="24" on="1"/>
        <pt x="503" y="33" on="1"/>
        <pt x="411" y="263" on="1"/>
        <pt x="186" y="263" on="1"/>
        <pt x="106" y="50" on="1"/>
        <pt x="195" y="24" on="1"/>
        <pt x="195" y="0" on="1"/>
        <pt x="-14" y="0" on="1"/>
        <pt x="-14" y="24" on="1"/>
        <pt x="62" y="50" on="1"/>
        <pt x="304" y="668" on="1"/>
        <pt x="374" y="668" on="1"/>
        <pt x="639" y="33" on="1"/>
        <pt x="716" y="24" on="1"/>
      </contour>
      <contour>
        <pt x="396" y="300" on="1"/>
        <pt x="298" y="543" on="1"/>
        <pt x="200" y="300" on="1"/>
      </contour>
      <contour>
        <pt x="390" y="945" on="0"/>
        <pt x="456" y="881" on="0"/>
        <pt x="456" y="782" on="0"/>
        <pt x="387" y="715" on="0"/>
        <pt x="288" y="715" on="0"/>
        <pt x="221" y="779" on="0"/>
        <pt x="221" y="878" on="0"/>
        <pt x="290" y="945" on="0"/>
      </contour>
      <contour>
        <pt x="363" y="768" on="0"/>
        <pt x="396" y="802" on="0"/>
        <pt x="396" y="854" on="0"/>
        <pt x="362" y="890" on="0"/>
        <pt x="315" y="890" on="0"/>
        <pt x="282" y="856" on="0"/>
        <pt x="282" y="802" on="0"/>
        <pt x="315" y="768" on="0"/>
      </contour>
    </TTGlyph>
    <TTGlyph name="Atilde" xMin="-14" yMin="0" xMax="716" yMax="866">
      <contour>
        <pt x="716" y="0" on="1"/>
        <pt x="422" y="0" on="1"/>
        <pt x="422" y="24" on="1"/>
        <pt x="503" y="33" on="1"/>
        <pt x="411" y="263" on="1"/>
        <pt x="186" y="263" on="1"/>
        <pt x="106" y="50" on="1"/>
        <pt x="195" y="24" on="1"/>
        <pt x="195" y="0" on="1"/>
        <pt x="-14" y="0" on="1"/>
        <pt x="-14" y="24" on="1"/>
        <pt x="62" y="50" on="1"/>
        <pt x="304" y="668" on="1"/>
        <pt x="374" y="668" on="1"/>
        <pt x="639" y="33" on="1"/>
        <pt x="716" y="24" on="1"/>
      </contour>
      <contour>
        <pt x="396" y="300" on="1"/>
        <pt x="298" y="543" on="1"/>
        <pt x="200" y="300" on="1"/>
      </contour>
      <contour>
        <pt x="508" y="795" on="0"/>
        <pt x="451" y="732" on="0"/>
        <pt x="376" y="732" on="0"/>
        <pt x="328" y="761" on="1"/>
        <pt x="283" y="793" on="0"/>
        <pt x="235" y="793" on="0"/>
        <pt x="202" y="769" on="0"/>
        <pt x="198" y="754" on="1"/>
        <pt x="171" y="754" on="1"/>
        <pt x="177" y="804" on="0"/>
        <pt x="233" y="866" on="0"/>
        <pt x="314" y="866" on="0"/>
        <pt x="361" y="836" on="1"/>
        <pt x="406" y="805" on="0"/>
        <pt x="450" y="805" on="0"/>
        <pt x="484" y="830" on="0"/>
        <pt x="487" y="845" on="1"/>
        <pt x="514" y="845" on="1"/>
      </contour>
    </TTGlyph>
    <TTGlyph name="B" xMin="31" yMin="0" xMax="595" yMax="668">
      <contour>
        <pt x="323" y="668" on="1"/>
        <pt x="562" y="668" on="0"/>
        <pt x="562" y="511" on="1"/>
        <pt x="562" y="447" on="0"/>
        <pt x="480" y="362" on="0"/>
        <pt x="402" y="353" on="1"/>
        <pt x="503" y="334" on="0"/>
        <pt x="595" y="254" on="0"/>
        <pt x="595" y="181" on="1"/>
        <pt x="595" y="89" on="0"/>
        <pt x="439" y="0" on="0"/>
        <pt x="314" y="0" on="1"/>
        <pt x="43" y="0" on="1"/>
        <pt x="43" y="24" on="1"/>
        <pt x="116" y="34" on="1"/>
        <pt x="116" y="635" on="1"/>
        <pt x="31" y="645" on="1"/>
        <pt x="31" y="668" on="1"/>
      </contour>
      <contour>
        <pt x="277" y="333" on="1"/>
        <pt x="251" y="332" on="1"/>
        <pt x="251" y="28" on="1"/>
        <pt x="270" y="23" on="0"/>
        <pt x="295" y="23" on="1"/>
        <pt x="364" y="23" on="0"/>
        <pt x="458" y="100" on="0"/>
        <pt x="458" y="189" on="1"/>
        <pt x="458" y="302" on="0"/>
        <pt x="360" y="324" on="1"/>
        <pt x="320" y="333" on="0"/>
      </contour>
      <contour>
        <pt x="251" y="641" on="1"/>
        <pt x="251" y="361" on="1"/>
        <pt x="275" y="361" on="1"/>
        <pt x="345" y="361" on="0"/>
        <pt x="423" y="437" on="0"/>
        <pt x="423" y="582" on="0"/>
        <pt x="363" y="641" on="0"/>
        <pt x="297" y="641" on="1"/>
      </contour>
    </TTGlyph>
    <TTGlyph name="C" xMin="45" yMin="-6" xMax="676" yMax="675">
      <contour>
        <pt x="439" y="675" on="1"/>
        <pt x="659" y="666" on="1"/>
        <pt x="665" y="484" on="1"/>
        <pt x="629" y="484" on="1"/>
        <pt x="595" y="615" on="1"/>
        <pt x="526" y="638" on="0"/>
        <pt x="462" y="638" on="1"/>
        <pt x="343" y="638" on="0"/>
        <pt x="195" y="481" on="0"/>
        <pt x="195" y="174" on="0"/>
        <pt x="339" y="30" on="0"/>
        <pt x="558" y="30" on="0"/>
        <pt x="607" y="54" on="1"/>
        <pt x="644" y="168" on="1"/>
        <pt x="676" y="168" on="1"/>
        <pt x="670" y="21" on="1"/>
        <pt x="545" y="-6" on="0"/>
        <pt x="358" y="-6" on="0"/>
        <pt x="226" y="25" on="0"/>
        <pt x="110" y="95" on="0"/>
        <pt x="45" y="227" on="0"/>
        <pt x="45" y="411" on="0"/>
        <pt x="112" y="552" on="0"/>
        <pt x="169" y="593" on="1"/>
        <pt x="283" y="675" on="0"/>
      </contour>
    </TTGlyph>
    <TTGlyph name="Ccedilla" xMin="45" yMin="-217" xMax="676" yMax="675">
      <contour>
        <pt x="439" y="675" on="1"/>
        <pt x="659" y="666" on="1"/>
        <pt x="665" y="484" on="1"/>
        <pt x="629" y="484" on="1"/>
        <pt x="595" y="615" on="1"/>
        <pt x="526" y="638" on="0"/>
        <pt x="462" y="638" on="1"/>
        <pt x="343" y="638" on="0"/>
        <pt x="195" y="481" on="0"/>
        <pt x="195" y="174" on="0"/>
        <pt x="339" y="30" on="0"/>
        <pt x="558" y="30" on="0"/>
        <pt x="607" y="54" on="1"/>
        <pt x="644" y="168" on="1"/>
        <pt x="676" y="168" on="1"/>
        <pt x="670" y="21" on="1"/>
        <pt x="545" y="-6" on="0"/>
        <pt x="358" y="-6" on="0"/>
        <pt x="226" y="25" on="0"/>
        <pt x="110" y="95" on="0"/>
        <pt x="45" y="227" on="0"/>
        <pt x="45" y="411" on="0"/>
        <pt x="112" y="552" on="0"/>
        <pt x="169" y="593" on="1"/>
        <pt x="283" y="675" on="0"/>
      </contour>
      <contour>
        <pt x="368" y="-68" on="1"/>
        <pt x="390" y="-54" on="0"/>
        <pt x="463" y="-54" on="0"/>
        <pt x="522" y="-93" on="0"/>
        <pt x="522" y="-174" on="0"/>
        <pt x="449" y="-217" on="0"/>
        <pt x="328" y="-217" on="0"/>
        <pt x="285" y="-192" on="1"/>
        <pt x="293" y="-175" on="1"/>
        <pt x="326" y="-188" on="0"/>
        <pt x="362" y="-188" on="1"/>
        <pt x="427" y="-188" on="0"/>
        <pt x="427" y="-131" on="1"/>
        <pt x="427" y="-86" on="0"/>
        <pt x="385" y="-86" on="1"/>
        <pt x="372" y="-86" on="0"/>
        <pt x="350" y="-91" on="1"/>
        <pt x="329" y="-82" on="1"/>
        <pt x="380" y="8" on="1"/>
        <pt x="408" y="8" on="1"/>
        <pt x="366" y="-65" on="1"/>
      </contour>
    </TTGlyph>
    <TTGlyph name="D" xMin="33" yMin="0" xMax="762" yMax="672">
      <contour>
        <pt x="762" y="335" on="1"/>
        <pt x="762" y="0" on="0"/>
        <pt x="346" y="0" on="1"/>
        <pt x="33" y="0" on="1"/>
        <pt x="33" y="24" on="1"/>
        <pt x="119" y="34" on="1"/>
        <pt x="119" y="633" on="1"/>
        <pt x="33" y="645" on="1"/>
        <pt x="33" y="671" on="1"/>
        <pt x="79" y="668" on="0"/>
        <pt x="140" y="668" on="1"/>
        <pt x="236" y="668" on="1"/>
        <pt x="360" y="672" on="1"/>
        <pt x="451" y="672" on="0"/>
        <pt x="588" y="642" on="0"/>
        <pt x="645" y="606" on="1"/>
        <pt x="762" y="532" on="0"/>
      </contour>
      <contour>
        <pt x="611" y="334" on="1"/>
        <pt x="611" y="507" on="0"/>
        <pt x="546" y="574" on="1"/>
        <pt x="525" y="597" on="0"/>
        <pt x="489" y="620" on="0"/>
        <pt x="462" y="626" on="1"/>
        <pt x="425" y="635" on="0"/>
        <pt x="375" y="637" on="1"/>
        <pt x="360" y="637" on="1"/>
        <pt x="287" y="637" on="0"/>
        <pt x="253" y="632" on="1"/>
        <pt x="253" y="35" on="1"/>
        <pt x="346" y="32" on="1"/>
        <pt x="441" y="36" on="0"/>
        <pt x="487" y="58" on="1"/>
        <pt x="611" y="117" on="0"/>
      </contour>
    </TTGlyph>
    <TTGlyph name="E" xMin="33" yMin="0" xMax="586" yMax="668">
      <contour>
        <pt x="33" y="0" on="1"/>
        <pt x="33" y="24" on="1"/>
        <pt x="120" y="33" on="1"/>
        <pt x="120" y="635" on="1"/>
        <pt x="33" y="644" on="1"/>
        <pt x="33" y="668" on="1"/>
        <pt x="543" y="668" on="1"/>
        <pt x="543" y="526" on="1"/>
        <pt x="511" y="526" on="1"/>
        <pt x="472" y="632" on="1"/>
        <pt x="253" y="635" on="1"/>
        <pt x="253" y="366" on="1"/>
        <pt x="447" y="366" on="1"/>
        <pt x="478" y="440" on="1"/>
        <pt x="506" y="440" on="1"/>
        <pt x="506" y="254" on="1"/>
        <pt x="477" y="254" on="1"/>
        <pt x="447" y="330" on="1"/>
        <pt x="253" y="330" on="1"/>
        <pt x="253" y="32" on="1"/>
        <pt x="502" y="35" on="1"/>
        <pt x="554" y="149" on="1"/>
        <pt x="586" y="149" on="1"/>
        <pt x="574" y="0" on="1"/>
      </contour>
    </TTGlyph>
    <TTGlyph name="Eacute" xMin="33" yMin="0" xMax="586" yMax="914">
      <contour>
        <pt x="33" y="0" on="1"/>
        <pt x="33" y="24" on="1"/>
        <pt x="120" y="33" on="1"/>
        <pt x="120" y="635" on="1"/>
        <pt x="33" y="644" on="1"/>
        <pt x="33" y="668" on="1"/>
        <pt x="543" y="668" on="1"/>
        <pt x="543" y="526" on="1"/>
        <pt x="511" y="526" on="1"/>
        <pt x="472" y="632" on="1"/>
        <pt x="253" y="635" on="1"/>
        <pt x="253" y="366" on="1"/>
        <pt x="447" y="366" on="1"/>
        <pt x="478" y="440" on="1"/>
        <pt x="506" y="440" on="1"/>
        <pt x="506" y="254" on="1"/>
        <pt x="477" y="254" on="1"/>
        <pt x="447" y="330" on="1"/>
        <pt x="253" y="330" on="1"/>
        <pt x="253" y="32" on="1"/>
        <pt x="502" y="35" on="1"/>
        <pt x="554" y="149" on="1"/>
        <pt x="586" y="149" on="1"/>
        <pt x="574" y="0" on="1"/>
      </contour>
      <contour>
        <pt x="266" y="741" on="1"/>
        <pt x="292" y="773" on="0"/>
        <pt x="416" y="914" on="1"/>
        <pt x="467" y="868" on="0"/>
        <pt x="466" y="843" on="1"/>
        <pt x="464" y="828" on="0"/>
        <pt x="446" y="815" on="1"/>
        <pt x="353" y="749" on="0"/>
        <pt x="288" y="712" on="1"/>
        <pt x="272" y="732" on="0"/>
      </contour>
    </TTGlyph>
    <TTGlyph name="Ecircumflex" xMin="33" yMin="0" xMax="586" yMax="921">
      <contour>
        <pt x="33" y="0" on="1"/>
        <pt x="33" y="24" on="1"/>
        <pt x="120" y="33" on="1"/>
        <pt x="120" y="635" on="1"/>
        <pt x="33" y="644" on="1"/>
        <pt x="33" y="668" on="1"/>
        <pt x="543" y="668" on="1"/>
        <pt x="543" y="526" on="1"/>
        <pt x="511" y="526" on="1"/>
        <pt x="472" y="632" on="1"/>
        <pt x="253" y="635" on="1"/>
        <pt x="253" y="366" on="1"/>
        <pt x="447" y="366" on="1"/>
        <pt x="478" y="440" on="1"/>
        <pt x="506" y="440" on="1"/>
        <pt x="506" y="254" on="1"/>
        <pt x="477" y="254" on="1"/>
        <pt x="447" y="330" on="1"/>
        <pt x="253" y="330" on="1"/>
        <pt x="253" y="32" on="1"/>
        <pt x="502" y="35" on="1"/>
        <pt x="554" y="149" on="1"/>
        <pt x="586" y="149" on="1"/>
        <pt x="574" y="0" on="1"/>
      </contour>
      <contour>
        <pt x="157" y="735" on="1"/>
        <pt x="288" y="921" on="1"/>
        <pt x="350" y="921" on="1"/>
        <pt x="480" y="735" on="1"/>
        <pt x="449" y="716" on="1"/>
        <pt x="319" y="832" on="1"/>
        <pt x="188" y="716" on="1"/>
      </contour>
    </TTGlyph>
    <TTGlyph name="Edieresis" xMin="33" yMin="0" xMax="586" yMax="880">
      <contour>
        <pt x="33" y="0" on="1"/>
        <pt x="33" y="24" on="1"/>
        <pt x="120" y="33" on="1"/>
        <pt x="120" y="635" on="1"/>
        <pt x="33" y="644" on="1"/>
        <pt x="33" y="668" on="1"/>
        <pt x="543" y="668" on="1"/>
        <pt x="543" y="526" on="1"/>
        <pt x="511" y="526" on="1"/>
        <pt x="472" y="632" on="1"/>
        <pt x="253" y="635" on="1"/>
        <pt x="253" y="366" on="1"/>
        <pt x="447" y="366" on="1"/>
        <pt x="478" y="440" on="1"/>
        <pt x="506" y="440" on="1"/>
        <pt x="506" y="254" on="1"/>
        <pt x="477" y="254" on="1"/>
        <pt x="447" y="330" on="1"/>
        <pt x="253" y="330" on="1"/>
        <pt x="253" y="32" on="1"/>
        <pt x="502" y="35" on="1"/>
        <pt x="554" y="149" on="1"/>
        <pt x="586" y="149" on="1"/>
        <pt x="574" y="0" on="1"/>
      </contour>
      <contour>
        <pt x="302" y="782" on="0"/>
        <pt x="261" y="742" on="0"/>
        <pt x="202" y="742" on="0"/>
        <pt x="164" y="780" on="0"/>
        <pt x="164" y="838" on="0"/>
        <pt x="203" y="880" on="0"/>
        <pt x="261" y="880" on="0"/>
        <pt x="302" y="838" on="0"/>
      </contour>
      <contour>
        <pt x="487" y="782" on="0"/>
        <pt x="447" y="742" on="0"/>
        <pt x="387" y="742" on="0"/>
        <pt x="349" y="780" on="0"/>
        <pt x="349" y="839" on="0"/>
        <pt x="388" y="880" on="0"/>
        <pt x="447" y="880" on="0"/>
        <pt x="487" y="838" on="0"/>
      </contour>
    </TTGlyph>
    <TTGlyph name="Egrave" xMin="33" yMin="0" xMax="586" yMax="914">
      <contour>
        <pt x="33" y="0" on="1"/>
        <pt x="33" y="24" on="1"/>
        <pt x="120" y="33" on="1"/>
        <pt x="120" y="635" on="1"/>
        <pt x="33" y="644" on="1"/>
        <pt x="33" y="668" on="1"/>
        <pt x="543" y="668" on="1"/>
        <pt x="543" y="526" on="1"/>
        <pt x="511" y="526" on="1"/>
        <pt x="472" y="632" on="1"/>
        <pt x="253" y="635" on="1"/>
        <pt x="253" y="366" on="1"/>
        <pt x="447" y="366" on="1"/>
        <pt x="478" y="440" on="1"/>
        <pt x="506" y="440" on="1"/>
        <pt x="506" y="254" on="1"/>
        <pt x="477" y="254" on="1"/>
        <pt x="447" y="330" on="1"/>
        <pt x="253" y="330" on="1"/>
        <pt x="253" y="32" on="1"/>
        <pt x="502" y="35" on="1"/>
        <pt x="554" y="149" on="1"/>
        <pt x="586" y="149" on="1"/>
        <pt x="574" y="0" on="1"/>
      </contour>
      <contour>
        <pt x="425" y="741" on="1"/>
        <pt x="419" y="732" on="0"/>
        <pt x="403" y="712" on="1"/>
        <pt x="338" y="749" on="0"/>
        <pt x="245" y="815" on="1"/>
        <pt x="227" y="828" on="0"/>
        <pt x="225" y="843" on="1"/>
        <pt x="224" y="868" on="0"/>
        <pt x="275" y="914" on="1"/>
        <pt x="399" y="773" on="0"/>
      </contour>
    </TTGlyph>
    <TTGlyph name="Eth" xMin="35" yMin="0" xMax="764" yMax="672">
      <contour>
        <pt x="764" y="335" on="1"/>
        <pt x="764" y="0" on="0"/>
        <pt x="348" y="0" on="1"/>
        <pt x="35" y="0" on="1"/>
        <pt x="35" y="24" on="1"/>
        <pt x="121" y="34" on="1"/>
        <pt x="121" y="316" on="1"/>
        <pt x="35" y="316" on="1"/>
        <pt x="35" y="360" on="1"/>
        <pt x="121" y="360" on="1"/>
        <pt x="121" y="633" on="1"/>
        <pt x="35" y="645" on="1"/>
        <pt x="35" y="671" on="1"/>
        <pt x="81" y="668" on="0"/>
        <pt x="142" y="668" on="1"/>
        <pt x="238" y="668" on="1"/>
        <pt x="362" y="672" on="1"/>
        <pt x="453" y="672" on="0"/>
        <pt x="590" y="642" on="0"/>
        <pt x="647" y="606" on="1"/>
        <pt x="764" y="532" on="0"/>
      </contour>
      <contour>
        <pt x="383" y="360" on="1"/>
        <pt x="383" y="316" on="1"/>
        <pt x="255" y="316" on="1"/>
        <pt x="255" y="35" on="1"/>
        <pt x="348" y="32" on="1"/>
        <pt x="443" y="36" on="0"/>
        <pt x="489" y="58" on="1"/>
        <pt x="613" y="117" on="0"/>
        <pt x="613" y="334" on="1"/>
        <pt x="613" y="507" on="0"/>
        <pt x="548" y="574" on="1"/>
        <pt x="527" y="597" on="0"/>
        <pt x="491" y="620" on="0"/>
        <pt x="464" y="626" on="1"/>
        <pt x="427" y="635" on="0"/>
        <pt x="377" y="637" on="1"/>
        <pt x="362" y="637" on="1"/>
        <pt x="289" y="637" on="0"/>
        <pt x="255" y="632" on="1"/>
        <pt x="255" y="360" on="1"/>
      </contour>
    </TTGlyph>
    <TTGlyph name="Euro" xMin="39" yMin="-11" xMax="672" yMax="682">
      <contour>
        <pt x="418" y="-11" on="1"/>
        <pt x="414" y="-11" on="1"/>
        <pt x="291" y="-11" on="0"/>
        <pt x="128" y="123" on="0"/>
        <pt x="104" y="239" on="1"/>
        <pt x="39" y="239" on="1"/>
        <pt x="39" y="276" on="1"/>
        <pt x="99" y="276" on="1"/>
        <pt x="96" y="302" on="0"/>
        <pt x="96" y="329" on="1"/>
        <pt x="96" y="354" on="1"/>
        <pt x="39" y="354" on="1"/>
        <pt x="39" y="390" on="1"/>
        <pt x="100" y="390" on="1"/>
        <pt x="119" y="523" on="0"/>
        <pt x="299" y="682" on="0"/>
        <pt x="440" y="682" on="1"/>
        <pt x="515" y="682" on="0"/>
        <pt x="587" y="650" on="1"/>
        <pt x="625" y="633" on="0"/>
        <pt x="672" y="564" on="0"/>
        <pt x="672" y="472" on="0"/>
        <pt x="624" y="453" on="1"/>
        <pt x="603" y="445" on="0"/>
        <pt x="560" y="445" on="0"/>
        <pt x="540" y="459" on="1"/>
        <pt x="548" y="493" on="0"/>
        <pt x="548" y="564" on="0"/>
        <pt x="530" y="597" on="1"/>
        <pt x="499" y="652" on="0"/>
        <pt x="433" y="652" on="1"/>
        <pt x="343" y="652" on="0"/>
        <pt x="259" y="513" on="0"/>
        <pt x="250" y="390" on="1"/>
        <pt x="528" y="390" on="1"/>
        <pt x="519" y="354" on="1"/>
        <pt x="249" y="354" on="1"/>
        <pt x="249" y="329" on="1"/>
        <pt x="249" y="293" on="0"/>
        <pt x="250" y="276" on="1"/>
        <pt x="498" y="276" on="1"/>
        <pt x="489" y="239" on="1"/>
        <pt x="253" y="239" on="1"/>
        <pt x="265" y="132" on="0"/>
        <pt x="350" y="23" on="0"/>
        <pt x="434" y="23" on="1"/>
        <pt x="558" y="23" on="0"/>
        <pt x="633" y="145" on="1"/>
        <pt x="634" y="144" on="0"/>
        <pt x="640" y="142" on="0"/>
        <pt x="644" y="140" on="0"/>
        <pt x="649" y="137" on="0"/>
        <pt x="652" y="135" on="0"/>
        <pt x="656" y="131" on="0"/>
        <pt x="657" y="130" on="1"/>
        <pt x="660" y="125" on="0"/>
        <pt x="660" y="120" on="1"/>
        <pt x="660" y="83" on="0"/>
        <pt x="529" y="-11" on="0"/>
      </contour>
    </TTGlyph>
    <TTGlyph name="F" xMin="33" yMin="0" xMax="543" yMax="669">
      <contour>
        <pt x="252" y="313" on="1"/>
        <pt x="252" y="33" on="1"/>
        <pt x="339" y="24" on="1"/>
        <pt x="339" y="0" on="1"/>
        <pt x="33" y="0" on="1"/>
        <pt x="33" y="24" on="1"/>
        <pt x="120" y="33" on="1"/>
        <pt x="120" y="635" on="1"/>
        <pt x="33" y="646" on="1"/>
        <pt x="33" y="669" on="1"/>
        <pt x="543" y="669" on="1"/>
        <pt x="543" y="526" on="1"/>
        <pt x="511" y="526" on="1"/>
        <pt x="473" y="632" on="1"/>
        <pt x="252" y="635" on="1"/>
        <pt x="252" y="349" on="1"/>
        <pt x="447" y="349" on="1"/>
        <pt x="478" y="423" on="1"/>
        <pt x="507" y="423" on="1"/>
        <pt x="507" y="237" on="1"/>
        <pt x="477" y="237" on="1"/>
        <pt x="447" y="313" on="1"/>
      </contour>
    </TTGlyph>
    <TTGlyph name="G" xMin="45" yMin="-6" xMax="730" yMax="675">
      <contour>
        <pt x="439" y="675" on="1"/>
        <pt x="659" y="666" on="1"/>
        <pt x="665" y="484" on="1"/>
        <pt x="629" y="484" on="1"/>
        <pt x="595" y="615" on="1"/>
        <pt x="526" y="638" on="0"/>
        <pt x="462" y="638" on="1"/>
        <pt x="343" y="638" on="0"/>
        <pt x="195" y="481" on="0"/>
        <pt x="195" y="174" on="0"/>
        <pt x="339" y="30" on="0"/>
        <pt x="453" y="30" on="1"/>
        <pt x="494" y="30" on="0"/>
        <pt x="542" y="36" on="1"/>
        <pt x="542" y="259" on="1"/>
        <pt x="459" y="268" on="1"/>
        <pt x="459" y="292" on="1"/>
        <pt x="730" y="292" on="1"/>
        <pt x="730" y="268" on="1"/>
        <pt x="670" y="259" on="1"/>
        <pt x="670" y="21" on="1"/>
        <pt x="545" y="-6" on="0"/>
        <pt x="358" y="-6" on="0"/>
        <pt x="226" y="25" on="0"/>
        <pt x="110" y="95" on="0"/>
        <pt x="45" y="227" on="0"/>
        <pt x="45" y="411" on="0"/>
        <pt x="112" y="552" on="0"/>
        <pt x="169" y="593" on="1"/>
        <pt x="283" y="675" on="0"/>
      </contour>
    </TTGlyph>
    <TTGlyph name="H" xMin="33" yMin="0" xMax="788" yMax="668">
      <contour>
        <pt x="788" y="0" on="1"/>
        <pt x="482" y="0" on="1"/>
        <pt x="482" y="24" on="1"/>
        <pt x="569" y="33" on="1"/>
        <pt x="569" y="330" on="1"/>
        <pt x="253" y="330" on="1"/>
        <pt x="253" y="33" on="1"/>
        <pt x="340" y="24" on="1"/>
        <pt x="340" y="0" on="1"/>
        <pt x="33" y="0" on="1"/>
        <pt x="33" y="24" on="1"/>
        <pt x="120" y="33" on="1"/>
        <pt x="120" y="635" on="1"/>
        <pt x="33" y="644" on="1"/>
        <pt x="33" y="668" on="1"/>
        <pt x="340" y="668" on="1"/>
        <pt x="340" y="644" on="1"/>
        <pt x="253" y="635" on="1"/>
        <pt x="253" y="366" on="1"/>
        <pt x="569" y="366" on="1"/>
        <pt x="569" y="635" on="1"/>
        <pt x="482" y="644" on="1"/>
        <pt x="482" y="668" on="1"/>
        <pt x="788" y="668" on="1"/>
        <pt x="788" y="644" on="1"/>
        <pt x="701" y="635" on="1"/>
        <pt x="701" y="33" on="1"/>
        <pt x="788" y="24" on="1"/>
      </contour>
    </TTGlyph>
    <TTGlyph name="I" xMin="33" yMin="0" xMax="340" yMax="668">
      <contour>
        <pt x="340" y="0" on="1"/>
        <pt x="33" y="0" on="1"/>
        <pt x="33" y="24" on="1"/>
        <pt x="120" y="33" on="1"/>
        <pt x="120" y="635" on="1"/>
        <pt x="33" y="644" on="1"/>
        <pt x="33" y="668" on="1"/>
        <pt x="340" y="668" on="1"/>
        <pt x="340" y="644" on="1"/>
        <pt x="253" y="635" on="1"/>
        <pt x="253" y="33" on="1"/>
        <pt x="340" y="24" on="1"/>
      </contour>
    </TTGlyph>
    <TTGlyph name="Iacute" xMin="33" yMin="0" xMax="340" yMax="914">
      <contour>
        <pt x="340" y="0" on="1"/>
        <pt x="33" y="0" on="1"/>
        <pt x="33" y="24" on="1"/>
        <pt x="120" y="33" on="1"/>
        <pt x="120" y="635" on="1"/>
        <pt x="33" y="644" on="1"/>
        <pt x="33" y="668" on="1"/>
        <pt x="340" y="668" on="1"/>
        <pt x="340" y="644" on="1"/>
        <pt x="253" y="635" on="1"/>
        <pt x="253" y="33" on="1"/>
        <pt x="340" y="24" on="1"/>
      </contour>
      <contour>
        <pt x="110" y="741" on="1"/>
        <pt x="136" y="773" on="0"/>
        <pt x="260" y="914" on="1"/>
        <pt x="311" y="868" on="0"/>
        <pt x="310" y="843" on="1"/>
        <pt x="308" y="828" on="0"/>
        <pt x="290" y="815" on="1"/>
        <pt x="197" y="749" on="0"/>
        <pt x="132" y="712" on="1"/>
        <pt x="116" y="732" on="0"/>
      </contour>
    </TTGlyph>
    <TTGlyph name="Icircumflex" xMin="26" yMin="0" xMax="349" yMax="921">
      <contour>
        <pt x="340" y="0" on="1"/>
        <pt x="33" y="0" on="1"/>
        <pt x="33" y="24" on="1"/>
        <pt x="120" y="33" on="1"/>
        <pt x="120" y="635" on="1"/>
        <pt x="33" y="644" on="1"/>
        <pt x="33" y="668" on="1"/>
        <pt x="340" y="668" on="1"/>
        <pt x="340" y="644" on="1"/>
        <pt x="253" y="635" on="1"/>
        <pt x="253" y="33" on="1"/>
        <pt x="340" y="24" on="1"/>
      </contour>
      <contour>
        <pt x="26" y="735" on="1"/>
        <pt x="157" y="921" on="1"/>
        <pt x="219" y="921" on="1"/>
        <pt x="349" y="735" on="1"/>
        <pt x="318" y="716" on="1"/>
        <pt x="188" y="832" on="1"/>
        <pt x="57" y="716" on="1"/>
      </contour>
    </TTGlyph>
    <TTGlyph name="Idieresis" xMin="25" yMin="0" xMax="348" yMax="880">
      <contour>
        <pt x="340" y="0" on="1"/>
        <pt x="33" y="0" on="1"/>
        <pt x="33" y="24" on="1"/>
        <pt x="120" y="33" on="1"/>
        <pt x="120" y="635" on="1"/>
        <pt x="33" y="644" on="1"/>
        <pt x="33" y="668" on="1"/>
        <pt x="340" y="668" on="1"/>
        <pt x="340" y="644" on="1"/>
        <pt x="253" y="635" on="1"/>
        <pt x="253" y="33" on="1"/>
        <pt x="340" y="24" on="1"/>
      </contour>
      <contour>
        <pt x="163" y="782" on="0"/>
        <pt x="122" y="742" on="0"/>
        <pt x="63" y="742" on="0"/>
        <pt x="25" y="780" on="0"/>
        <pt x="25" y="838" on="0"/>
        <pt x="64" y="880" on="0"/>
        <pt x="122" y="880" on="0"/>
        <pt x="163" y="838" on="0"/>
      </contour>
      <contour>
        <pt x="348" y="782" on="0"/>
        <pt x="308" y="742" on="0"/>
        <pt x="248" y="742" on="0"/>
        <pt x="210" y="780" on="0"/>
        <pt x="210" y="839" on="0"/>
        <pt x="249" y="880" on="0"/>
        <pt x="308" y="880" on="0"/>
        <pt x="348" y="838" on="0"/>
      </contour>
    </TTGlyph>
    <TTGlyph name="Igrave" xMin="33" yMin="0" xMax="340" yMax="914">
      <contour>
        <pt x="340" y="0" on="1"/>
        <pt x="33" y="0" on="1"/>
        <pt x="33" y="24" on="1"/>
        <pt x="120" y="33" on="1"/>
        <pt x="120" y="635" on="1"/>
        <pt x="33" y="644" on="1"/>
        <pt x="33" y="668" on="1"/>
        <pt x="340" y="668" on="1"/>
        <pt x="340" y="644" on="1"/>
        <pt x="253" y="635" on="1"/>
        <pt x="253" y="33" on="1"/>
        <pt x="340" y="24" on="1"/>
      </contour>
      <contour>
        <pt x="290" y="741" on="1"/>
        <pt x="284" y="732" on="0"/>
        <pt x="268" y="712" on="1"/>
        <pt x="203" y="749" on="0"/>
        <pt x="110" y="815" on="1"/>
        <pt x="92" y="828" on="0"/>
        <pt x="90" y="843" on="1"/>
        <pt x="89" y="868" on="0"/>
        <pt x="140" y="914" on="1"/>
        <pt x="264" y="773" on="0"/>
      </contour>
    </TTGlyph>
    <TTGlyph name="J" xMin="-167" yMin="-247" xMax="333" yMax="668">
      <contour>
        <pt x="113" y="59" on="1"/>
        <pt x="113" y="635" on="1"/>
        <pt x="26" y="645" on="1"/>
        <pt x="26" y="668" on="1"/>
        <pt x="333" y="668" on="1"/>
        <pt x="333" y="645" on="1"/>
        <pt x="246" y="635" on="1"/>
        <pt x="246" y="49" on="1"/>
        <pt x="246" y="-98" on="0"/>
        <pt x="119" y="-247" on="0"/>
        <pt x="8" y="-247" on="1"/>
        <pt x="-72" y="-247" on="0"/>
        <pt x="-167" y="-196" on="0"/>
        <pt x="-167" y="-99" on="0"/>
        <pt x="-132" y="-79" on="1"/>
        <pt x="-113" y="-69" on="0"/>
        <pt x="-74" y="-69" on="0"/>
        <pt x="-54" y="-78" on="1"/>
        <pt x="-59" y="-112" on="0"/>
        <pt x="-59" y="-168" on="0"/>
        <pt x="-26" y="-217" on="0"/>
        <pt x="28" y="-217" on="0"/>
        <pt x="63" y="-197" on="0"/>
        <pt x="85" y="-168" on="0"/>
        <pt x="100" y="-118" on="0"/>
        <pt x="108" y="-77" on="0"/>
        <pt x="110" y="-44" on="1"/>
        <pt x="113" y="6" on="0"/>
      </contour>
    </TTGlyph>
    <TTGlyph name="K" xMin="33" yMin="0" xMax="756" yMax="668">
      <contour>
        <pt x="486" y="668" on="1"/>
        <pt x="689" y="668" on="1"/>
        <pt x="689" y="645" on="1"/>
        <pt x="607" y="618" on="1"/>
        <pt x="342" y="378" on="1"/>
        <pt x="676" y="34" on="1"/>
        <pt x="756" y="28" on="1"/>
        <pt x="756" y="0" on="1"/>
        <pt x="436" y="0" on="1"/>
        <pt x="436" y="26" on="1"/>
        <pt x="507" y="33" on="1"/>
        <pt x="253" y="304" on="1"/>
        <pt x="253" y="33" on="1"/>
        <pt x="340" y="24" on="1"/>
        <pt x="340" y="0" on="1"/>
        <pt x="33" y="0" on="1"/>
        <pt x="33" y="24" on="1"/>
        <pt x="120" y="33" on="1"/>
        <pt x="120" y="635" on="1"/>
        <pt x="33" y="644" on="1"/>
        <pt x="33" y="668" on="1"/>
        <pt x="340" y="668" on="1"/>
        <pt x="340" y="644" on="1"/>
        <pt x="253" y="635" on="1"/>
        <pt x="253" y="349" on="1"/>
        <pt x="557" y="622" on="1"/>
        <pt x="486" y="644" on="1"/>
      </contour>
    </TTGlyph>
    <TTGlyph name="L" xMin="33" yMin="0" xMax="586" yMax="668">
      <contour>
        <pt x="340" y="668" on="1"/>
        <pt x="340" y="645" on="1"/>
        <pt x="253" y="635" on="1"/>
        <pt x="253" y="32" on="1"/>
        <pt x="502" y="35" on="1"/>
        <pt x="554" y="149" on="1"/>
        <pt x="586" y="149" on="1"/>
        <pt x="574" y="0" on="1"/>
        <pt x="33" y="0" on="1"/>
        <pt x="33" y="24" on="1"/>
        <pt x="120" y="33" on="1"/>
        <pt x="120" y="635" on="1"/>
        <pt x="33" y="645" on="1"/>
        <pt x="33" y="668" on="1"/>
      </contour>
    </TTGlyph>
    <TTGlyph name="M" xMin="28" yMin="0" xMax="893" yMax="668">
      <contour>
        <pt x="893" y="0" on="1"/>
        <pt x="612" y="0" on="1"/>
        <pt x="612" y="24" on="1"/>
        <pt x="688" y="33" on="1"/>
        <pt x="662" y="546" on="1"/>
        <pt x="461" y="0" on="1"/>
        <pt x="408" y="0" on="1"/>
        <pt x="168" y="541" on="1"/>
        <pt x="149" y="49" on="1"/>
        <pt x="233" y="24" on="1"/>
        <pt x="233" y="0" on="1"/>
        <pt x="28" y="0" on="1"/>
        <pt x="28" y="24" on="1"/>
        <pt x="111" y="53" on="1"/>
        <pt x="131" y="635" on="1"/>
        <pt x="46" y="645" on="1"/>
        <pt x="46" y="668" on="1"/>
        <pt x="245" y="668" on="1"/>
        <pt x="471" y="141" on="1"/>
        <pt x="666" y="668" on="1"/>
        <pt x="879" y="668" on="1"/>
        <pt x="880" y="645" on="1"/>
        <pt x="794" y="635" on="1"/>
        <pt x="816" y="33" on="1"/>
        <pt x="893" y="24" on="1"/>
      </contour>
    </TTGlyph>
    <TTGlyph name="N" xMin="31" yMin="0" xMax="744" yMax="668">
      <contour>
        <pt x="542" y="668" on="1"/>
        <pt x="744" y="668" on="1"/>
        <pt x="744" y="644" on="1"/>
        <pt x="674" y="620" on="1"/>
        <pt x="674" y="0" on="1"/>
        <pt x="606" y="0" on="1"/>
        <pt x="161" y="548" on="1"/>
        <pt x="161" y="49" on="1"/>
        <pt x="245" y="24" on="1"/>
        <pt x="245" y="0" on="1"/>
        <pt x="45" y="0" on="1"/>
        <pt x="45" y="24" on="1"/>
        <pt x="118" y="49" on="1"/>
        <pt x="118" y="635" on="1"/>
        <pt x="31" y="644" on="1"/>
        <pt x="31" y="668" on="1"/>
        <pt x="219" y="668" on="1"/>
        <pt x="619" y="170" on="1"/>
        <pt x="619" y="621" on="1"/>
        <pt x="542" y="644" on="1"/>
      </contour>
    </TTGlyph>
    <TTGlyph name="Ntilde" xMin="31" yMin="0" xMax="744" yMax="866">
      <contour>
        <pt x="542" y="668" on="1"/>
        <pt x="744" y="668" on="1"/>
        <pt x="744" y="644" on="1"/>
        <pt x="674" y="620" on="1"/>
        <pt x="674" y="0" on="1"/>
        <pt x="606" y="0" on="1"/>
        <pt x="161" y="548" on="1"/>
        <pt x="161" y="49" on="1"/>
        <pt x="245" y="24" on="1"/>
        <pt x="245" y="0" on="1"/>
        <pt x="45" y="0" on="1"/>
        <pt x="45" y="24" on="1"/>
        <pt x="118" y="49" on="1"/>
        <pt x="118" y="635" on="1"/>
        <pt x="31" y="644" on="1"/>
        <pt x="31" y="668" on="1"/>
        <pt x="219" y="668" on="1"/>
        <pt x="619" y="170" on="1"/>
        <pt x="619" y="621" on="1"/>
        <pt x="542" y="644" on="1"/>
      </contour>
      <contour>
        <pt x="579" y="795" on="0"/>
        <pt x="519" y="732" on="0"/>
        <pt x="440" y="732" on="0"/>
        <pt x="390" y="761" on="1"/>
        <pt x="341" y="793" on="0"/>
        <pt x="293" y="793" on="0"/>
        <pt x="257" y="769" on="0"/>
        <pt x="253" y="754" on="1"/>
        <pt x="225" y="754" on="1"/>
        <pt x="231" y="804" on="0"/>
        <pt x="290" y="866" on="0"/>
        <pt x="375" y="866" on="0"/>
        <pt x="424" y="836" on="1"/>
        <pt x="470" y="805" on="0"/>
        <pt x="518" y="805" on="0"/>
        <pt x="553" y="830" on="0"/>
        <pt x="557" y="845" on="1"/>
        <pt x="585" y="845" on="1"/>
      </contour>
    </TTGlyph>
    <TTGlyph name="O" xMin="44" yMin="-11" xMax="735" yMax="683">
      <contour>
        <pt x="735" y="186" on="0"/>
        <pt x="548" y="-11" on="0"/>
        <pt x="231" y="-11" on="0"/>
        <pt x="44" y="186" on="0"/>
        <pt x="44" y="486" on="0"/>
        <pt x="231" y="683" on="0"/>
        <pt x="548" y="683" on="0"/>
        <pt x="735" y="486" on="0"/>
      </contour>
      <contour>
        <pt x="391" y="20" on="1"/>
        <pt x="583" y="20" on="0"/>
        <pt x="583" y="336" on="1"/>
        <pt x="583" y="488" on="0"/>
        <pt x="496" y="652" on="0"/>
        <pt x="284" y="652" on="0"/>
        <pt x="195" y="488" on="0"/>
        <pt x="195" y="336" on="1"/>
        <pt x="195" y="20" on="0"/>
      </contour>
    </TTGlyph>
    <TTGlyph name="OE" xMin="45" yMin="-6" xMax="999" yMax="675">
      <contour>
        <pt x="544" y="0" on="1"/>
        <pt x="492" y="-6" on="0"/>
        <pt x="358" y="-6" on="0"/>
        <pt x="226" y="25" on="0"/>
        <pt x="110" y="95" on="0"/>
        <pt x="45" y="227" on="0"/>
        <pt x="45" y="411" on="0"/>
        <pt x="112" y="552" on="0"/>
        <pt x="169" y="593" on="1"/>
        <pt x="283" y="675" on="0"/>
        <pt x="439" y="675" on="1"/>
        <pt x="477" y="675" on="0"/>
        <pt x="543" y="671" on="1"/>
        <pt x="563" y="669" on="1"/>
        <pt x="956" y="668" on="1"/>
        <pt x="956" y="526" on="1"/>
        <pt x="924" y="526" on="1"/>
        <pt x="885" y="632" on="1"/>
        <pt x="666" y="635" on="1"/>
        <pt x="666" y="366" on="1"/>
        <pt x="860" y="366" on="1"/>
        <pt x="891" y="440" on="1"/>
        <pt x="919" y="440" on="1"/>
        <pt x="919" y="254" on="1"/>
        <pt x="890" y="254" on="1"/>
        <pt x="860" y="330" on="1"/>
        <pt x="666" y="330" on="1"/>
        <pt x="666" y="32" on="1"/>
        <pt x="915" y="35" on="1"/>
        <pt x="967" y="149" on="1"/>
        <pt x="999" y="149" on="1"/>
        <pt x="987" y="0" on="1"/>
      </contour>
      <contour>
        <pt x="453" y="30" on="1"/>
        <pt x="497" y="30" on="0"/>
        <pt x="533" y="35" on="1"/>
        <pt x="533" y="631" on="1"/>
        <pt x="491" y="638" on="0"/>
        <pt x="462" y="638" on="1"/>
        <pt x="343" y="638" on="0"/>
        <pt x="195" y="481" on="0"/>
        <pt x="195" y="174" on="0"/>
        <pt x="339" y="30" on="0"/>
      </contour>
    </TTGlyph>
    <TTGlyph name="Oacute" xMin="44" yMin="-11" xMax="735" yMax="914">
      <contour>
        <pt x="735" y="186" on="0"/>
        <pt x="548" y="-11" on="0"/>
        <pt x="231" y="-11" on="0"/>
        <pt x="44" y="186" on="0"/>
        <pt x="44" y="486" on="0"/>
        <pt x="231" y="683" on="0"/>
        <pt x="548" y="683" on="0"/>
        <pt x="735" y="486" on="0"/>
      </contour>
      <contour>
        <pt x="391" y="20" on="1"/>
        <pt x="583" y="20" on="0"/>
        <pt x="583" y="336" on="1"/>
        <pt x="583" y="488" on="0"/>
        <pt x="496" y="652" on="0"/>
        <pt x="284" y="652" on="0"/>
        <pt x="195" y="488" on="0"/>
        <pt x="195" y="336" on="1"/>
        <pt x="195" y="20" on="0"/>
      </contour>
      <contour>
        <pt x="301" y="741" on="1"/>
        <pt x="327" y="773" on="0"/>
        <pt x="451" y="914" on="1"/>
        <pt x="502" y="868" on="0"/>
        <pt x="501" y="843" on="1"/>
        <pt x="499" y="828" on="0"/>
        <pt x="481" y="815" on="1"/>
        <pt x="388" y="749" on="0"/>
        <pt x="323" y="712" on="1"/>
        <pt x="307" y="732" on="0"/>
      </contour>
    </TTGlyph>
    <TTGlyph name="Ocircumflex" xMin="44" yMin="-11" xMax="735" yMax="921">
      <contour>
        <pt x="735" y="186" on="0"/>
        <pt x="548" y="-11" on="0"/>
        <pt x="231" y="-11" on="0"/>
        <pt x="44" y="186" on="0"/>
        <pt x="44" y="486" on="0"/>
        <pt x="231" y="683" on="0"/>
        <pt x="548" y="683" on="0"/>
        <pt x="735" y="486" on="0"/>
      </contour>
      <contour>
        <pt x="391" y="20" on="1"/>
        <pt x="583" y="20" on="0"/>
        <pt x="583" y="336" on="1"/>
        <pt x="583" y="488" on="0"/>
        <pt x="496" y="652" on="0"/>
        <pt x="284" y="652" on="0"/>
        <pt x="195" y="488" on="0"/>
        <pt x="195" y="336" on="1"/>
        <pt x="195" y="20" on="0"/>
      </contour>
      <contour>
        <pt x="231" y="735" on="1"/>
        <pt x="362" y="921" on="1"/>
        <pt x="424" y="921" on="1"/>
        <pt x="554" y="735" on="1"/>
        <pt x="523" y="716" on="1"/>
        <pt x="393" y="832" on="1"/>
        <pt x="262" y="716" on="1"/>
      </contour>
    </TTGlyph>
    <TTGlyph name="Odieresis" xMin="44" yMin="-11" xMax="735" yMax="880">
      <contour>
        <pt x="735" y="186" on="0"/>
        <pt x="548" y="-11" on="0"/>
        <pt x="231" y="-11" on="0"/>
        <pt x="44" y="186" on="0"/>
        <pt x="44" y="486" on="0"/>
        <pt x="231" y="683" on="0"/>
        <pt x="548" y="683" on="0"/>
        <pt x="735" y="486" on="0"/>
      </contour>
      <contour>
        <pt x="391" y="20" on="1"/>
        <pt x="583" y="20" on="0"/>
        <pt x="583" y="336" on="1"/>
        <pt x="583" y="488" on="0"/>
        <pt x="496" y="652" on="0"/>
        <pt x="284" y="652" on="0"/>
        <pt x="195" y="488" on="0"/>
        <pt x="195" y="336" on="1"/>
        <pt x="195" y="20" on="0"/>
      </contour>
      <contour>
        <pt x="373" y="782" on="0"/>
        <pt x="332" y="742" on="0"/>
        <pt x="273" y="742" on="0"/>
        <pt x="235" y="780" on="0"/>
        <pt x="235" y="838" on="0"/>
        <pt x="274" y="880" on="0"/>
        <pt x="332" y="880" on="0"/>
        <pt x="373" y="838" on="0"/>
      </contour>
      <contour>
        <pt x="558" y="782" on="0"/>
        <pt x="518" y="742" on="0"/>
        <pt x="458" y="742" on="0"/>
        <pt x="420" y="780" on="0"/>
        <pt x="420" y="839" on="0"/>
        <pt x="459" y="880" on="0"/>
        <pt x="518" y="880" on="0"/>
        <pt x="558" y="838" on="0"/>
      </contour>
    </TTGlyph>
    <TTGlyph name="Ograve" xMin="44" yMin="-11" xMax="735" yMax="914">
      <contour>
        <pt x="735" y="186" on="0"/>
        <pt x="548" y="-11" on="0"/>
        <pt x="231" y="-11" on="0"/>
        <pt x="44" y="186" on="0"/>
        <pt x="44" y="486" on="0"/>
        <pt x="231" y="683" on="0"/>
        <pt x="548" y="683" on="0"/>
        <pt x="735" y="486" on="0"/>
      </contour>
      <contour>
        <pt x="391" y="20" on="1"/>
        <pt x="583" y="20" on="0"/>
        <pt x="583" y="336" on="1"/>
        <pt x="583" y="488" on="0"/>
        <pt x="496" y="652" on="0"/>
        <pt x="284" y="652" on="0"/>
        <pt x="195" y="488" on="0"/>
        <pt x="195" y="336" on="1"/>
        <pt x="195" y="20" on="0"/>
      </contour>
      <contour>
        <pt x="490" y="741" on="1"/>
        <pt x="484" y="732" on="0"/>
        <pt x="468" y="712" on="1"/>
        <pt x="403" y="749" on="0"/>
        <pt x="310" y="815" on="1"/>
        <pt x="292" y="828" on="0"/>
        <pt x="290" y="843" on="1"/>
        <pt x="289" y="868" on="0"/>
        <pt x="340" y="914" on="1"/>
        <pt x="464" y="773" on="0"/>
      </contour>
    </TTGlyph>
    <TTGlyph name="Oslash" xMin="44" yMin="-11" xMax="739" yMax="683">
      <contour>
        <pt x="739" y="647" on="1"/>
        <pt x="113" y="0" on="1"/>
        <pt x="45" y="0" on="1"/>
        <pt x="703" y="682" on="1"/>
      </contour>
      <contour>
        <pt x="735" y="186" on="0"/>
        <pt x="548" y="-11" on="0"/>
        <pt x="231" y="-11" on="0"/>
        <pt x="44" y="186" on="0"/>
        <pt x="44" y="486" on="0"/>
        <pt x="231" y="683" on="0"/>
        <pt x="548" y="683" on="0"/>
        <pt x="735" y="486" on="0"/>
      </contour>
      <contour>
        <pt x="391" y="20" on="1"/>
        <pt x="583" y="20" on="0"/>
        <pt x="583" y="336" on="1"/>
        <pt x="583" y="488" on="0"/>
        <pt x="496" y="652" on="0"/>
        <pt x="284" y="652" on="0"/>
        <pt x="195" y="488" on="0"/>
        <pt x="195" y="336" on="1"/>
        <pt x="195" y="20" on="0"/>
      </contour>
    </TTGlyph>
    <TTGlyph name="Otilde" xMin="44" yMin="-11" xMax="735" yMax="866">
      <contour>
        <pt x="735" y="186" on="0"/>
        <pt x="548" y="-11" on="0"/>
        <pt x="231" y="-11" on="0"/>
        <pt x="44" y="186" on="0"/>
        <pt x="44" y="486" on="0"/>
        <pt x="231" y="683" on="0"/>
        <pt x="548" y="683" on="0"/>
        <pt x="735" y="486" on="0"/>
      </contour>
      <contour>
        <pt x="391" y="20" on="1"/>
        <pt x="583" y="20" on="0"/>
        <pt x="583" y="336" on="1"/>
        <pt x="583" y="488" on="0"/>
        <pt x="496" y="652" on="0"/>
        <pt x="284" y="652" on="0"/>
        <pt x="195" y="488" on="0"/>
        <pt x="195" y="336" on="1"/>
        <pt x="195" y="20" on="0"/>
      </contour>
      <contour>
        <pt x="564" y="795" on="0"/>
        <pt x="505" y="732" on="0"/>
        <pt x="426" y="732" on="0"/>
        <pt x="376" y="761" on="1"/>
        <pt x="327" y="793" on="0"/>
        <pt x="279" y="793" on="0"/>
        <pt x="243" y="769" on="0"/>
        <pt x="239" y="754" on="1"/>
        <pt x="211" y="754" on="1"/>
        <pt x="217" y="804" on="0"/>
        <pt x="276" y="866" on="0"/>
        <pt x="361" y="866" on="0"/>
        <pt x="410" y="836" on="1"/>
        <pt x="456" y="805" on="0"/>
        <pt x="504" y="805" on="0"/>
        <pt x="539" y="830" on="0"/>
        <pt x="542" y="845" on="1"/>
        <pt x="571" y="845" on="1"/>
      </contour>
    </TTGlyph>
    <TTGlyph name="P" xMin="30" yMin="0" xMax="585" yMax="673">
      <contour>
        <pt x="585" y="501" on="1"/>
        <pt x="585" y="445" on="0"/>
        <pt x="535" y="365" on="0"/>
        <pt x="492" y="344" on="1"/>
        <pt x="413" y="306" on="0"/>
        <pt x="301" y="306" on="1"/>
        <pt x="282" y="306" on="0"/>
        <pt x="248" y="308" on="1"/>
        <pt x="248" y="33" on="1"/>
        <pt x="324" y="24" on="1"/>
        <pt x="324" y="0" on="1"/>
        <pt x="41" y="0" on="1"/>
        <pt x="41" y="24" on="1"/>
        <pt x="116" y="33" on="1"/>
        <pt x="116" y="637" on="1"/>
        <pt x="30" y="647" on="1"/>
        <pt x="30" y="670" on="1"/>
        <pt x="229" y="670" on="1"/>
        <pt x="346" y="673" on="1"/>
        <pt x="470" y="672" on="0"/>
        <pt x="585" y="586" on="0"/>
      </contour>
      <contour>
        <pt x="276" y="337" on="1"/>
        <pt x="358" y="337" on="0"/>
        <pt x="446" y="426" on="0"/>
        <pt x="446" y="574" on="0"/>
        <pt x="384" y="643" on="0"/>
        <pt x="317" y="643" on="1"/>
        <pt x="270" y="643" on="0"/>
        <pt x="248" y="639" on="1"/>
        <pt x="248" y="339" on="1"/>
        <pt x="266" y="337" on="0"/>
      </contour>
    </TTGlyph>
    <TTGlyph name="Q" xMin="44" yMin="-229" xMax="766" yMax="680">
      <contour>
        <pt x="288" y="-90" on="1"/>
        <pt x="320" y="-77" on="0"/>
        <pt x="425" y="-77" on="0"/>
        <pt x="630" y="-156" on="0"/>
        <pt x="664" y="-156" on="1"/>
        <pt x="713" y="-156" on="0"/>
        <pt x="743" y="-98" on="1"/>
        <pt x="766" y="-108" on="1"/>
        <pt x="722" y="-229" on="0"/>
        <pt x="605" y="-229" on="1"/>
        <pt x="539" y="-229" on="0"/>
        <pt x="226" y="-120" on="0"/>
        <pt x="156" y="-120" on="1"/>
        <pt x="159" y="-105" on="1"/>
        <pt x="267" y="-77" on="0"/>
        <pt x="374" y="-13" on="1"/>
        <pt x="221" y="-7" on="0"/>
        <pt x="44" y="187" on="0"/>
        <pt x="44" y="483" on="0"/>
        <pt x="231" y="680" on="0"/>
        <pt x="548" y="680" on="0"/>
        <pt x="735" y="483" on="0"/>
        <pt x="735" y="193" on="0"/>
        <pt x="571" y="1" on="0"/>
        <pt x="431" y="-12" on="1"/>
        <pt x="343" y="-64" on="0"/>
        <pt x="287" y="-88" on="1"/>
      </contour>
      <contour>
        <pt x="391" y="17" on="1"/>
        <pt x="583" y="17" on="0"/>
        <pt x="583" y="333" on="1"/>
        <pt x="583" y="485" on="0"/>
        <pt x="496" y="649" on="0"/>
        <pt x="284" y="649" on="0"/>
        <pt x="195" y="485" on="0"/>
        <pt x="195" y="333" on="1"/>
        <pt x="195" y="17" on="0"/>
      </contour>
    </TTGlyph>
    <TTGlyph name="R" xMin="31" yMin="-23" xMax="677" yMax="674">
      <contour>
        <pt x="249" y="349" on="1"/>
        <pt x="283" y="349" on="1"/>
        <pt x="443" y="349" on="0"/>
        <pt x="443" y="502" on="1"/>
        <pt x="443" y="576" on="0"/>
        <pt x="381" y="643" on="0"/>
        <pt x="314" y="643" on="1"/>
        <pt x="271" y="643" on="0"/>
        <pt x="249" y="639" on="1"/>
      </contour>
      <contour>
        <pt x="232" y="670" on="1"/>
        <pt x="344" y="673" on="1"/>
        <pt x="582" y="673" on="0"/>
        <pt x="582" y="502" on="1"/>
        <pt x="582" y="426" on="0"/>
        <pt x="474" y="330" on="0"/>
        <pt x="389" y="330" on="1"/>
        <pt x="366" y="330" on="1"/>
        <pt x="480" y="315" on="0"/>
        <pt x="565" y="207" on="0"/>
        <pt x="565" y="97" on="1"/>
        <pt x="565" y="29" on="0"/>
        <pt x="593" y="14" on="1"/>
        <pt x="603" y="8" on="0"/>
        <pt x="642" y="8" on="0"/>
        <pt x="676" y="24" on="1"/>
        <pt x="677" y="0" on="1"/>
        <pt x="623" y="-23" on="0"/>
        <pt x="567" y="-23" on="1"/>
        <pt x="455" y="-23" on="0"/>
        <pt x="432" y="61" on="1"/>
        <pt x="424" y="96" on="0"/>
        <pt x="424" y="201" on="0"/>
        <pt x="411" y="258" on="0"/>
        <pt x="398" y="276" on="1"/>
        <pt x="369" y="320" on="0"/>
        <pt x="289" y="320" on="1"/>
        <pt x="249" y="320" on="1"/>
        <pt x="249" y="33" on="1"/>
        <pt x="325" y="24" on="1"/>
        <pt x="325" y="0" on="1"/>
        <pt x="43" y="0" on="1"/>
        <pt x="43" y="24" on="1"/>
        <pt x="117" y="32" on="1"/>
        <pt x="117" y="637" on="1"/>
        <pt x="31" y="649" on="1"/>
        <pt x="31" y="674" on="1"/>
        <pt x="115" y="670" on="0"/>
        <pt x="182" y="670" on="1"/>
      </contour>
    </TTGlyph>
    <TTGlyph name="S" xMin="34" yMin="-12" xMax="541" yMax="684">
      <contour>
        <pt x="76" y="34" on="1"/>
        <pt x="34" y="61" on="0"/>
        <pt x="34" y="103" on="1"/>
        <pt x="34" y="161" on="0"/>
        <pt x="126" y="175" on="1"/>
        <pt x="142" y="82" on="0"/>
        <pt x="194" y="46" on="1"/>
        <pt x="240" y="14" on="0"/>
        <pt x="343" y="14" on="0"/>
        <pt x="418" y="77" on="0"/>
        <pt x="418" y="149" on="1"/>
        <pt x="418" y="203" on="0"/>
        <pt x="341" y="266" on="0"/>
        <pt x="223" y="314" on="0"/>
        <pt x="181" y="333" on="0"/>
        <pt x="116" y="371" on="0"/>
        <pt x="100" y="388" on="1"/>
        <pt x="60" y="434" on="0"/>
        <pt x="60" y="494" on="1"/>
        <pt x="60" y="588" on="0"/>
        <pt x="200" y="684" on="0"/>
        <pt x="325" y="684" on="1"/>
        <pt x="396" y="684" on="0"/>
        <pt x="490" y="668" on="1"/>
        <pt x="490" y="520" on="1"/>
        <pt x="457" y="520" on="1"/>
        <pt x="417" y="638" on="1"/>
        <pt x="367" y="654" on="0"/>
        <pt x="264" y="654" on="0"/>
        <pt x="188" y="589" on="0"/>
        <pt x="188" y="525" on="1"/>
        <pt x="188" y="452" on="0"/>
        <pt x="254" y="416" on="1"/>
        <pt x="287" y="399" on="0"/>
        <pt x="377" y="365" on="0"/>
        <pt x="417" y="348" on="0"/>
        <pt x="483" y="311" on="0"/>
        <pt x="515" y="275" on="0"/>
        <pt x="541" y="216" on="0"/>
        <pt x="541" y="181" on="1"/>
        <pt x="541" y="96" on="0"/>
        <pt x="397" y="-12" on="0"/>
        <pt x="148" y="-12" on="0"/>
      </contour>
    </TTGlyph>
    <TTGlyph name="Scaron" xMin="34" yMin="-12" xMax="541" yMax="930">
      <contour>
        <pt x="76" y="34" on="1"/>
        <pt x="34" y="61" on="0"/>
        <pt x="34" y="103" on="1"/>
        <pt x="34" y="161" on="0"/>
        <pt x="126" y="175" on="1"/>
        <pt x="142" y="82" on="0"/>
        <pt x="194" y="46" on="1"/>
        <pt x="240" y="14" on="0"/>
        <pt x="343" y="14" on="0"/>
        <pt x="418" y="77" on="0"/>
        <pt x="418" y="149" on="1"/>
        <pt x="418" y="203" on="0"/>
        <pt x="341" y="266" on="0"/>
        <pt x="223" y="314" on="0"/>
        <pt x="181" y="333" on="0"/>
        <pt x="116" y="371" on="0"/>
        <pt x="100" y="388" on="1"/>
        <pt x="60" y="434" on="0"/>
        <pt x="60" y="494" on="1"/>
        <pt x="60" y="588" on="0"/>
        <pt x="200" y="684" on="0"/>
        <pt x="325" y="684" on="1"/>
        <pt x="396" y="684" on="0"/>
        <pt x="490" y="668" on="1"/>
        <pt x="490" y="520" on="1"/>
        <pt x="457" y="520" on="1"/>
        <pt x="417" y="638" on="1"/>
        <pt x="367" y="654" on="0"/>
        <pt x="264" y="654" on="0"/>
        <pt x="188" y="589" on="0"/>
        <pt x="188" y="525" on="1"/>
        <pt x="188" y="452" on="0"/>
        <pt x="254" y="416" on="1"/>
        <pt x="287" y="399" on="0"/>
        <pt x="377" y="365" on="0"/>
        <pt x="417" y="348" on="0"/>
        <pt x="483" y="311" on="0"/>
        <pt x="515" y="275" on="0"/>
        <pt x="541" y="216" on="0"/>
        <pt x="541" y="181" on="1"/>
        <pt x="541" y="96" on="0"/>
        <pt x="397" y="-12" on="0"/>
        <pt x="148" y="-12" on="0"/>
      </contour>
      <contour>
        <pt x="252" y="725" on="1"/>
        <pt x="121" y="911" on="1"/>
        <pt x="152" y="930" on="1"/>
        <pt x="283" y="814" on="1"/>
        <pt x="413" y="930" on="1"/>
        <pt x="444" y="911" on="1"/>
        <pt x="314" y="725" on="1"/>
      </contour>
    </TTGlyph>
    <TTGlyph name="T" xMin="15" yMin="0" xMax="623" yMax="670">
      <contour>
        <pt x="623" y="517" on="1"/>
        <pt x="593" y="517" on="1"/>
        <pt x="546" y="632" on="1"/>
        <pt x="385" y="634" on="1"/>
        <pt x="385" y="33" on="1"/>
        <pt x="478" y="24" on="1"/>
        <pt x="478" y="0" on="1"/>
        <pt x="159" y="0" on="1"/>
        <pt x="159" y="24" on="1"/>
        <pt x="252" y="33" on="1"/>
        <pt x="252" y="634" on="1"/>
        <pt x="91" y="632" on="1"/>
        <pt x="44" y="517" on="1"/>
        <pt x="15" y="517" on="1"/>
        <pt x="15" y="668" on="1"/>
        <pt x="319" y="670" on="1"/>
        <pt x="623" y="668" on="1"/>
      </contour>
    </TTGlyph>
    <TTGlyph name="Thorn" xMin="33" yMin="0" xMax="547" yMax="668">
      <contour>
        <pt x="253" y="525" on="1"/>
        <pt x="311" y="525" on="1"/>
        <pt x="419" y="525" on="0"/>
        <pt x="547" y="437" on="0"/>
        <pt x="547" y="264" on="0"/>
        <pt x="411" y="161" on="0"/>
        <pt x="291" y="161" on="1"/>
        <pt x="253" y="163" on="1"/>
        <pt x="253" y="33" on="1"/>
        <pt x="340" y="24" on="1"/>
        <pt x="340" y="0" on="1"/>
        <pt x="33" y="0" on="1"/>
        <pt x="33" y="24" on="1"/>
        <pt x="120" y="33" on="1"/>
        <pt x="120" y="635" on="1"/>
        <pt x="33" y="644" on="1"/>
        <pt x="33" y="668" on="1"/>
        <pt x="340" y="668" on="1"/>
        <pt x="340" y="644" on="1"/>
        <pt x="253" y="635" on="1"/>
      </contour>
      <contour>
        <pt x="283" y="487" on="1"/>
        <pt x="253" y="487" on="1"/>
        <pt x="253" y="199" on="1"/>
        <pt x="280" y="199" on="1"/>
        <pt x="340" y="199" on="0"/>
        <pt x="411" y="276" on="0"/>
        <pt x="411" y="416" on="0"/>
        <pt x="339" y="487" on="0"/>
      </contour>
    </TTGlyph>
    <TTGlyph name="U" xMin="19" yMin="-12" xMax="709" yMax="668">
      <contour>
        <pt x="628" y="234" on="1"/>
        <pt x="628" y="159" on="0"/>
        <pt x="586" y="68" on="0"/>
        <pt x="535" y="20" on="0"/>
        <pt x="447" y="-12" on="0"/>
        <pt x="388" y="-12" on="1"/>
        <pt x="244" y="-12" on="0"/>
        <pt x="103" y="99" on="0"/>
        <pt x="103" y="220" on="1"/>
        <pt x="103" y="635" on="1"/>
        <pt x="19" y="644" on="1"/>
        <pt x="19" y="668" on="1"/>
        <pt x="323" y="668" on="1"/>
        <pt x="323" y="644" on="1"/>
        <pt x="236" y="635" on="1"/>
        <pt x="236" y="240" on="1"/>
        <pt x="236" y="128" on="0"/>
        <pt x="314" y="23" on="0"/>
        <pt x="494" y="23" on="0"/>
        <pt x="580" y="122" on="0"/>
        <pt x="580" y="243" on="1"/>
        <pt x="580" y="629" on="1"/>
        <pt x="506" y="639" on="1"/>
        <pt x="506" y="668" on="1"/>
        <pt x="709" y="668" on="1"/>
        <pt x="709" y="637" on="1"/>
        <pt x="628" y="629" on="1"/>
      </contour>
    </TTGlyph>
    <TTGlyph name="Uacute" xMin="19" yMin="-12" xMax="709" yMax="914">
      <contour>
        <pt x="628" y="234" on="1"/>
        <pt x="628" y="159" on="0"/>
        <pt x="586" y="68" on="0"/>
        <pt x="535" y="20" on="0"/>
        <pt x="447" y="-12" on="0"/>
        <pt x="388" y="-12" on="1"/>
        <pt x="244" y="-12" on="0"/>
        <pt x="103" y="99" on="0"/>
        <pt x="103" y="220" on="1"/>
        <pt x="103" y="635" on="1"/>
        <pt x="19" y="644" on="1"/>
        <pt x="19" y="668" on="1"/>
        <pt x="323" y="668" on="1"/>
        <pt x="323" y="644" on="1"/>
        <pt x="236" y="635" on="1"/>
        <pt x="236" y="240" on="1"/>
        <pt x="236" y="128" on="0"/>
        <pt x="314" y="23" on="0"/>
        <pt x="494" y="23" on="0"/>
        <pt x="580" y="122" on="0"/>
        <pt x="580" y="243" on="1"/>
        <pt x="580" y="629" on="1"/>
        <pt x="506" y="639" on="1"/>
        <pt x="506" y="668" on="1"/>
        <pt x="709" y="668" on="1"/>
        <pt x="709" y="637" on="1"/>
        <pt x="628" y="629" on="1"/>
      </contour>
      <contour>
        <pt x="301" y="741" on="1"/>
        <pt x="327" y="773" on="0"/>
        <pt x="451" y="914" on="1"/>
        <pt x="502" y="868" on="0"/>
        <pt x="501" y="843" on="1"/>
        <pt x="499" y="828" on="0"/>
        <pt x="481" y="815" on="1"/>
        <pt x="388" y="749" on="0"/>
        <pt x="323" y="712" on="1"/>
        <pt x="307" y="732" on="0"/>
      </contour>
    </TTGlyph>
    <TTGlyph name="Ucircumflex" xMin="19" yMin="-12" xMax="709" yMax="921">
      <contour>
        <pt x="628" y="234" on="1"/>
        <pt x="628" y="159" on="0"/>
        <pt x="586" y="68" on="0"/>
        <pt x="535" y="20" on="0"/>
        <pt x="447" y="-12" on="0"/>
        <pt x="388" y="-12" on="1"/>
        <pt x="244" y="-12" on="0"/>
        <pt x="103" y="99" on="0"/>
        <pt x="103" y="220" on="1"/>
        <pt x="103" y="635" on="1"/>
        <pt x="19" y="644" on="1"/>
        <pt x="19" y="668" on="1"/>
        <pt x="323" y="668" on="1"/>
        <pt x="323" y="644" on="1"/>
        <pt x="236" y="635" on="1"/>
        <pt x="236" y="240" on="1"/>
        <pt x="236" y="128" on="0"/>
        <pt x="314" y="23" on="0"/>
        <pt x="494" y="23" on="0"/>
        <pt x="580" y="122" on="0"/>
        <pt x="580" y="243" on="1"/>
        <pt x="580" y="629" on="1"/>
        <pt x="506" y="639" on="1"/>
        <pt x="506" y="668" on="1"/>
        <pt x="709" y="668" on="1"/>
        <pt x="709" y="637" on="1"/>
        <pt x="628" y="629" on="1"/>
      </contour>
      <contour>
        <pt x="221" y="735" on="1"/>
        <pt x="352" y="921" on="1"/>
        <pt x="414" y="921" on="1"/>
        <pt x="544" y="735" on="1"/>
        <pt x="513" y="716" on="1"/>
        <pt x="383" y="832" on="1"/>
        <pt x="252" y="716" on="1"/>
      </contour>
    </TTGlyph>
    <TTGlyph name="Udieresis" xMin="19" yMin="-12" xMax="709" yMax="880">
      <contour>
        <pt x="628" y="234" on="1"/>
        <pt x="628" y="159" on="0"/>
        <pt x="586" y="68" on="0"/>
        <pt x="535" y="20" on="0"/>
        <pt x="447" y="-12" on="0"/>
        <pt x="388" y="-12" on="1"/>
        <pt x="244" y="-12" on="0"/>
        <pt x="103" y="99" on="0"/>
        <pt x="103" y="220" on="1"/>
        <pt x="103" y="635" on="1"/>
        <pt x="19" y="644" on="1"/>
        <pt x="19" y="668" on="1"/>
        <pt x="323" y="668" on="1"/>
        <pt x="323" y="644" on="1"/>
        <pt x="236" y="635" on="1"/>
        <pt x="236" y="240" on="1"/>
        <pt x="236" y="128" on="0"/>
        <pt x="314" y="23" on="0"/>
        <pt x="494" y="23" on="0"/>
        <pt x="580" y="122" on="0"/>
        <pt x="580" y="243" on="1"/>
        <pt x="580" y="629" on="1"/>
        <pt x="506" y="639" on="1"/>
        <pt x="506" y="668" on="1"/>
        <pt x="709" y="668" on="1"/>
        <pt x="709" y="637" on="1"/>
        <pt x="628" y="629" on="1"/>
      </contour>
      <contour>
        <pt x="362" y="782" on="0"/>
        <pt x="321" y="742" on="0"/>
        <pt x="262" y="742" on="0"/>
        <pt x="224" y="780" on="0"/>
        <pt x="224" y="838" on="0"/>
        <pt x="263" y="880" on="0"/>
        <pt x="321" y="880" on="0"/>
        <pt x="362" y="838" on="0"/>
      </contour>
      <contour>
        <pt x="547" y="782" on="0"/>
        <pt x="507" y="742" on="0"/>
        <pt x="447" y="742" on="0"/>
        <pt x="409" y="780" on="0"/>
        <pt x="409" y="839" on="0"/>
        <pt x="448" y="880" on="0"/>
        <pt x="507" y="880" on="0"/>
        <pt x="547" y="838" on="0"/>
      </contour>
    </TTGlyph>
    <TTGlyph name="Ugrave" xMin="19" yMin="-12" xMax="709" yMax="914">
      <contour>
        <pt x="628" y="234" on="1"/>
        <pt x="628" y="159" on="0"/>
        <pt x="586" y="68" on="0"/>
        <pt x="535" y="20" on="0"/>
        <pt x="447" y="-12" on="0"/>
        <pt x="388" y="-12" on="1"/>
        <pt x="244" y="-12" on="0"/>
        <pt x="103" y="99" on="0"/>
        <pt x="103" y="220" on="1"/>
        <pt x="103" y="635" on="1"/>
        <pt x="19" y="644" on="1"/>
        <pt x="19" y="668" on="1"/>
        <pt x="323" y="668" on="1"/>
        <pt x="323" y="644" on="1"/>
        <pt x="236" y="635" on="1"/>
        <pt x="236" y="240" on="1"/>
        <pt x="236" y="128" on="0"/>
        <pt x="314" y="23" on="0"/>
        <pt x="494" y="23" on="0"/>
        <pt x="580" y="122" on="0"/>
        <pt x="580" y="243" on="1"/>
        <pt x="580" y="629" on="1"/>
        <pt x="506" y="639" on="1"/>
        <pt x="506" y="668" on="1"/>
        <pt x="709" y="668" on="1"/>
        <pt x="709" y="637" on="1"/>
        <pt x="628" y="629" on="1"/>
      </contour>
      <contour>
        <pt x="465" y="741" on="1"/>
        <pt x="459" y="732" on="0"/>
        <pt x="443" y="712" on="1"/>
        <pt x="378" y="749" on="0"/>
        <pt x="285" y="815" on="1"/>
        <pt x="267" y="828" on="0"/>
        <pt x="265" y="843" on="1"/>
        <pt x="264" y="868" on="0"/>
        <pt x="315" y="914" on="1"/>
        <pt x="439" y="773" on="0"/>
      </contour>
    </TTGlyph>
    <TTGlyph name="V" xMin="-29" yMin="-6" xMax="695" yMax="668">
      <contour>
        <pt x="-29" y="668" on="1"/>
        <pt x="265" y="668" on="1"/>
        <pt x="265" y="644" on="1"/>
        <pt x="186" y="635" on="1"/>
        <pt x="384" y="137" on="1"/>
        <pt x="574" y="618" on="1"/>
        <pt x="486" y="644" on="1"/>
        <pt x="486" y="668" on="1"/>
        <pt x="695" y="668" on="1"/>
        <pt x="695" y="644" on="1"/>
        <pt x="619" y="617" on="1"/>
        <pt x="371" y="-6" on="1"/>
        <pt x="311" y="-6" on="1"/>
        <pt x="48" y="635" on="1"/>
        <pt x="-29" y="644" on="1"/>
      </contour>
    </TTGlyph>
    <TTGlyph name="W" xMin="-32" yMin="-6" xMax="1063" yMax="668">
      <contour>
        <pt x="-32" y="668" on="1"/>
        <pt x="258" y="668" on="1"/>
        <pt x="258" y="644" on="1"/>
        <pt x="183" y="635" on="1"/>
        <pt x="381" y="137" on="1"/>
        <pt x="506" y="451" on="1"/>
        <pt x="431" y="635" on="1"/>
        <pt x="357" y="644" on="1"/>
        <pt x="357" y="668" on="1"/>
        <pt x="647" y="668" on="1"/>
        <pt x="647" y="644" on="1"/>
        <pt x="568" y="635" on="1"/>
        <pt x="766" y="137" on="1"/>
        <pt x="942" y="618" on="1"/>
        <pt x="854" y="644" on="1"/>
        <pt x="854" y="668" on="1"/>
        <pt x="1063" y="668" on="1"/>
        <pt x="1063" y="644" on="1"/>
        <pt x="987" y="617" on="1"/>
        <pt x="753" y="-6" on="1"/>
        <pt x="693" y="-6" on="1"/>
        <pt x="528" y="396" on="1"/>
        <pt x="368" y="-6" on="1"/>
        <pt x="308" y="-6" on="1"/>
        <pt x="45" y="635" on="1"/>
        <pt x="-32" y="644" on="1"/>
      </contour>
    </TTGlyph>
    <TTGlyph name="X" xMin="-9" yMin="0" xMax="731" yMax="668">
      <contour>
        <pt x="483" y="668" on="1"/>
        <pt x="705" y="668" on="1"/>
        <pt x="705" y="638" on="1"/>
        <pt x="626" y="616" on="1"/>
        <pt x="421" y="358" on="1"/>
        <pt x="650" y="33" on="1"/>
        <pt x="731" y="24" on="1"/>
        <pt x="731" y="0" on="1"/>
        <pt x="410" y="0" on="1"/>
        <pt x="410" y="24" on="1"/>
        <pt x="491" y="33" on="1"/>
        <pt x="328" y="276" on="1"/>
        <pt x="155" y="51" on="1"/>
        <pt x="241" y="30" on="1"/>
        <pt x="241" y="0" on="1"/>
        <pt x="16" y="0" on="1"/>
        <pt x="16" y="30" on="1"/>
        <pt x="91" y="50" on="1"/>
        <pt x="303" y="316" on="1"/>
        <pt x="63" y="635" on="1"/>
        <pt x="-9" y="644" on="1"/>
        <pt x="-9" y="668" on="1"/>
        <pt x="285" y="668" on="1"/>
        <pt x="285" y="645" on="1"/>
        <pt x="215" y="636" on="1"/>
        <pt x="394" y="395" on="1"/>
        <pt x="567" y="616" on="1"/>
        <pt x="483" y="638" on="1"/>
      </contour>
    </TTGlyph>
    <TTGlyph name="Y" xMin="-37" yMin="0" xMax="667" yMax="668">
      <contour>
        <pt x="487" y="0" on="1"/>
        <pt x="180" y="0" on="1"/>
        <pt x="180" y="24" on="1"/>
        <pt x="267" y="33" on="1"/>
        <pt x="267" y="287" on="1"/>
        <pt x="39" y="635" on="1"/>
        <pt x="-37" y="644" on="1"/>
        <pt x="-37" y="668" on="1"/>
        <pt x="263" y="668" on="1"/>
        <pt x="263" y="644" on="1"/>
        <pt x="186" y="635" on="1"/>
        <pt x="376" y="339" on="1"/>
        <pt x="539" y="621" on="1"/>
        <pt x="464" y="644" on="1"/>
        <pt x="464" y="668" on="1"/>
        <pt x="667" y="668" on="1"/>
        <pt x="667" y="644" on="1"/>
        <pt x="591" y="620" on="1"/>
        <pt x="400" y="295" on="1"/>
        <pt x="400" y="33" on="1"/>
        <pt x="487" y="24" on="1"/>
      </contour>
    </TTGlyph>
    <TTGlyph name="Yacute" xMin="-37" yMin="0" xMax="667" yMax="943">
      <contour>
        <pt x="487" y="0" on="1"/>
        <pt x="180" y="0" on="1"/>
        <pt x="180" y="24" on="1"/>
        <pt x="267" y="33" on="1"/>
        <pt x="267" y="287" on="1"/>
        <pt x="39" y="635" on="1"/>
        <pt x="-37" y="644" on="1"/>
        <pt x="-37" y="668" on="1"/>
        <pt x="263" y="668" on="1"/>
        <pt x="263" y="644" on="1"/>
        <pt x="186" y="635" on="1"/>
        <pt x="376" y="339" on="1"/>
        <pt x="539" y="621" on="1"/>
        <pt x="464" y="644" on="1"/>
        <pt x="464" y="668" on="1"/>
        <pt x="667" y="668" on="1"/>
        <pt x="667" y="644" on="1"/>
        <pt x="591" y="620" on="1"/>
        <pt x="400" y="295" on="1"/>
        <pt x="400" y="33" on="1"/>
        <pt x="487" y="24" on="1"/>
      </contour>
      <contour>
        <pt x="507" y="876" on="1"/>
        <pt x="507" y="860" on="0"/>
        <pt x="490" y="846" on="1"/>
        <pt x="400" y="772" on="0"/>
        <pt x="340" y="731" on="1"/>
        <pt x="324" y="748" on="0"/>
        <pt x="316" y="758" on="1"/>
        <pt x="346" y="801" on="0"/>
        <pt x="452" y="943" on="1"/>
        <pt x="507" y="900" on="0"/>
      </contour>
    </TTGlyph>
    <TTGlyph name="Ydieresis" xMin="-37" yMin="0" xMax="667" yMax="880">
      <contour>
        <pt x="487" y="0" on="1"/>
        <pt x="180" y="0" on="1"/>
        <pt x="180" y="24" on="1"/>
        <pt x="267" y="33" on="1"/>
        <pt x="267" y="287" on="1"/>
        <pt x="39" y="635" on="1"/>
        <pt x="-37" y="644" on="1"/>
        <pt x="-37" y="668" on="1"/>
        <pt x="263" y="668" on="1"/>
        <pt x="263" y="644" on="1"/>
        <pt x="186" y="635" on="1"/>
        <pt x="376" y="339" on="1"/>
        <pt x="539" y="621" on="1"/>
        <pt x="464" y="644" on="1"/>
        <pt x="464" y="668" on="1"/>
        <pt x="667" y="668" on="1"/>
        <pt x="667" y="644" on="1"/>
        <pt x="591" y="620" on="1"/>
        <pt x="400" y="295" on="1"/>
        <pt x="400" y="33" on="1"/>
        <pt x="487" y="24" on="1"/>
      </contour>
      <contour>
        <pt x="399" y="782" on="0"/>
        <pt x="358" y="742" on="0"/>
        <pt x="299" y="742" on="0"/>
        <pt x="261" y="780" on="0"/>
        <pt x="261" y="838" on="0"/>
        <pt x="300" y="880" on="0"/>
        <pt x="358" y="880" on="0"/>
        <pt x="399" y="838" on="0"/>
      </contour>
      <contour>
        <pt x="584" y="782" on="0"/>
        <pt x="544" y="742" on="0"/>
        <pt x="484" y="742" on="0"/>
        <pt x="446" y="780" on="0"/>
        <pt x="446" y="839" on="0"/>
        <pt x="485" y="880" on="0"/>
        <pt x="544" y="880" on="0"/>
        <pt x="584" y="838" on="0"/>
      </contour>
    </TTGlyph>
    <TTGlyph name="Z" xMin="35" yMin="11" xMax="631" yMax="670">
      <contour>
        <pt x="49" y="521" on="1"/>
        <pt x="49" y="668" on="1"/>
        <pt x="631" y="670" on="1"/>
        <pt x="631" y="639" on="1"/>
        <pt x="199" y="51" on="1"/>
        <pt x="560" y="49" on="1"/>
        <pt x="595" y="159" on="1"/>
        <pt x="628" y="159" on="1"/>
        <pt x="628" y="13" on="1"/>
        <pt x="35" y="11" on="1"/>
        <pt x="35" y="39" on="1"/>
        <pt x="471" y="630" on="1"/>
        <pt x="117" y="632" on="1"/>
        <pt x="82" y="521" on="1"/>
      </contour>
    </TTGlyph>
    <TTGlyph name="Zcaron" xMin="35" yMin="11" xMax="631" yMax="930">
      <contour>
        <pt x="49" y="521" on="1"/>
        <pt x="49" y="668" on="1"/>
        <pt x="631" y="670" on="1"/>
        <pt x="631" y="639" on="1"/>
        <pt x="199" y="51" on="1"/>
        <pt x="560" y="49" on="1"/>
        <pt x="595" y="159" on="1"/>
        <pt x="628" y="159" on="1"/>
        <pt x="628" y="13" on="1"/>
        <pt x="35" y="11" on="1"/>
        <pt x="35" y="39" on="1"/>
        <pt x="471" y="630" on="1"/>
        <pt x="117" y="632" on="1"/>
        <pt x="82" y="521" on="1"/>
      </contour>
      <contour>
        <pt x="286" y="725" on="1"/>
        <pt x="155" y="911" on="1"/>
        <pt x="186" y="930" on="1"/>
        <pt x="317" y="814" on="1"/>
        <pt x="447" y="930" on="1"/>
        <pt x="478" y="911" on="1"/>
        <pt x="348" y="725" on="1"/>
      </contour>
    </TTGlyph>
    <TTGlyph name="a" xMin="35" yMin="-12" xMax="524" yMax="499">
      <contour>
        <pt x="320" y="234" on="1"/>
        <pt x="204" y="234" on="0"/>
        <pt x="174" y="173" on="1"/>
        <pt x="161" y="147" on="0"/>
        <pt x="161" y="108" on="1"/>
        <pt x="161" y="41" on="0"/>
        <pt x="207" y="30" on="1"/>
        <pt x="214" y="28" on="0"/>
        <pt x="222" y="28" on="1"/>
        <pt x="254" y="28" on="0"/>
        <pt x="318" y="95" on="0"/>
        <pt x="320" y="148" on="1"/>
      </contour>
      <contour>
        <pt x="160" y="332" on="1"/>
        <pt x="138" y="317" on="0"/>
        <pt x="90" y="317" on="0"/>
        <pt x="56" y="349" on="0"/>
        <pt x="56" y="412" on="0"/>
        <pt x="94" y="462" on="0"/>
        <pt x="124" y="474" on="1"/>
        <pt x="183" y="499" on="0"/>
        <pt x="236" y="499" on="1"/>
        <pt x="354" y="499" on="0"/>
        <pt x="440" y="416" on="0"/>
        <pt x="440" y="330" on="1"/>
        <pt x="440" y="29" on="1"/>
        <pt x="524" y="23" on="1"/>
        <pt x="524" y="1" on="1"/>
        <pt x="333" y="-11" on="1"/>
        <pt x="324" y="73" on="1"/>
        <pt x="277" y="-12" on="0"/>
        <pt x="162" y="-12" on="1"/>
        <pt x="110" y="-12" on="0"/>
        <pt x="35" y="51" on="0"/>
        <pt x="35" y="108" on="1"/>
        <pt x="36" y="184" on="0"/>
        <pt x="186" y="261" on="0"/>
        <pt x="320" y="261" on="1"/>
        <pt x="320" y="347" on="1"/>
        <pt x="320" y="408" on="0"/>
        <pt x="286" y="474" on="0"/>
        <pt x="194" y="474" on="0"/>
        <pt x="171" y="436" on="1"/>
        <pt x="156" y="411" on="0"/>
        <pt x="156" y="355" on="0"/>
      </contour>
    </TTGlyph>
    <TTGlyph name="aacute" xMin="35" yMin="-12" xMax="524" yMax="763">
      <contour>
        <pt x="320" y="234" on="1"/>
        <pt x="204" y="234" on="0"/>
        <pt x="174" y="173" on="1"/>
        <pt x="161" y="147" on="0"/>
        <pt x="161" y="108" on="1"/>
        <pt x="161" y="41" on="0"/>
        <pt x="207" y="30" on="1"/>
        <pt x="214" y="28" on="0"/>
        <pt x="222" y="28" on="1"/>
        <pt x="254" y="28" on="0"/>
        <pt x="318" y="95" on="0"/>
        <pt x="320" y="148" on="1"/>
      </contour>
      <contour>
        <pt x="160" y="332" on="1"/>
        <pt x="138" y="317" on="0"/>
        <pt x="90" y="317" on="0"/>
        <pt x="56" y="349" on="0"/>
        <pt x="56" y="412" on="0"/>
        <pt x="94" y="462" on="0"/>
        <pt x="124" y="474" on="1"/>
        <pt x="183" y="499" on="0"/>
        <pt x="236" y="499" on="1"/>
        <pt x="354" y="499" on="0"/>
        <pt x="440" y="416" on="0"/>
        <pt x="440" y="330" on="1"/>
        <pt x="440" y="29" on="1"/>
        <pt x="524" y="23" on="1"/>
        <pt x="524" y="1" on="1"/>
        <pt x="333" y="-11" on="1"/>
        <pt x="324" y="73" on="1"/>
        <pt x="277" y="-12" on="0"/>
        <pt x="162" y="-12" on="1"/>
        <pt x="110" y="-12" on="0"/>
        <pt x="35" y="51" on="0"/>
        <pt x="35" y="108" on="1"/>
        <pt x="36" y="184" on="0"/>
        <pt x="186" y="261" on="0"/>
        <pt x="320" y="261" on="1"/>
        <pt x="320" y="347" on="1"/>
        <pt x="320" y="408" on="0"/>
        <pt x="286" y="474" on="0"/>
        <pt x="194" y="474" on="0"/>
        <pt x="171" y="436" on="1"/>
        <pt x="156" y="411" on="0"/>
        <pt x="156" y="355" on="0"/>
      </contour>
      <contour>
        <pt x="365" y="696" on="1"/>
        <pt x="365" y="680" on="0"/>
        <pt x="348" y="666" on="1"/>
        <pt x="258" y="592" on="0"/>
        <pt x="198" y="551" on="1"/>
        <pt x="182" y="567" on="0"/>
        <pt x="174" y="578" on="1"/>
        <pt x="204" y="621" on="0"/>
        <pt x="310" y="763" on="1"/>
        <pt x="365" y="720" on="0"/>
      </contour>
    </TTGlyph>
    <TTGlyph name="acircumflex" xMin="35" yMin="-12" xMax="524" yMax="741">
      <contour>
        <pt x="320" y="234" on="1"/>
        <pt x="204" y="234" on="0"/>
        <pt x="174" y="173" on="1"/>
        <pt x="161" y="147" on="0"/>
        <pt x="161" y="108" on="1"/>
        <pt x="161" y="41" on="0"/>
        <pt x="207" y="30" on="1"/>
        <pt x="214" y="28" on="0"/>
        <pt x="222" y="28" on="1"/>
        <pt x="254" y="28" on="0"/>
        <pt x="318" y="95" on="0"/>
        <pt x="320" y="148" on="1"/>
      </contour>
      <contour>
        <pt x="160" y="332" on="1"/>
        <pt x="138" y="317" on="0"/>
        <pt x="90" y="317" on="0"/>
        <pt x="56" y="349" on="0"/>
        <pt x="56" y="412" on="0"/>
        <pt x="94" y="462" on="0"/>
        <pt x="124" y="474" on="1"/>
        <pt x="183" y="499" on="0"/>
        <pt x="236" y="499" on="1"/>
        <pt x="354" y="499" on="0"/>
        <pt x="440" y="416" on="0"/>
        <pt x="440" y="330" on="1"/>
        <pt x="440" y="29" on="1"/>
        <pt x="524" y="23" on="1"/>
        <pt x="524" y="1" on="1"/>
        <pt x="333" y="-11" on="1"/>
        <pt x="324" y="73" on="1"/>
        <pt x="277" y="-12" on="0"/>
        <pt x="162" y="-12" on="1"/>
        <pt x="110" y="-12" on="0"/>
        <pt x="35" y="51" on="0"/>
        <pt x="35" y="108" on="1"/>
        <pt x="36" y="184" on="0"/>
        <pt x="186" y="261" on="0"/>
        <pt x="320" y="261" on="1"/>
        <pt x="320" y="347" on="1"/>
        <pt x="320" y="408" on="0"/>
        <pt x="286" y="474" on="0"/>
        <pt x="194" y="474" on="0"/>
        <pt x="171" y="436" on="1"/>
        <pt x="156" y="411" on="0"/>
        <pt x="156" y="355" on="0"/>
      </contour>
      <contour>
        <pt x="95" y="555" on="1"/>
        <pt x="226" y="741" on="1"/>
        <pt x="288" y="741" on="1"/>
        <pt x="418" y="555" on="1"/>
        <pt x="387" y="536" on="1"/>
        <pt x="257" y="652" on="1"/>
        <pt x="126" y="536" on="1"/>
      </contour>
    </TTGlyph>
    <TTGlyph name="acute" xMin="112" yMin="551" xMax="303" yMax="763">
      <contour>
        <pt x="303" y="696" on="1"/>
        <pt x="303" y="680" on="0"/>
        <pt x="286" y="666" on="1"/>
        <pt x="196" y="592" on="0"/>
        <pt x="136" y="551" on="1"/>
        <pt x="119" y="567" on="0"/>
        <pt x="112" y="578" on="1"/>
        <pt x="142" y="621" on="0"/>
        <pt x="248" y="763" on="1"/>
        <pt x="303" y="720" on="0"/>
      </contour>
    </TTGlyph>
    <TTGlyph name="acutemayuscula" xMin="89" yMin="712" xMax="289" yMax="914">
      <contour>
        <pt x="89" y="741" on="1"/>
        <pt x="115" y="773" on="0"/>
        <pt x="239" y="914" on="1"/>
        <pt x="290" y="868" on="0"/>
        <pt x="289" y="843" on="1"/>
        <pt x="287" y="828" on="0"/>
        <pt x="269" y="815" on="1"/>
        <pt x="176" y="749" on="0"/>
        <pt x="111" y="712" on="1"/>
        <pt x="95" y="732" on="0"/>
      </contour>
    </TTGlyph>
    <TTGlyph name="adieresis" xMin="35" yMin="-12" xMax="524" yMax="700">
      <contour>
        <pt x="320" y="234" on="1"/>
        <pt x="204" y="234" on="0"/>
        <pt x="174" y="173" on="1"/>
        <pt x="161" y="147" on="0"/>
        <pt x="161" y="108" on="1"/>
        <pt x="161" y="41" on="0"/>
        <pt x="207" y="30" on="1"/>
        <pt x="214" y="28" on="0"/>
        <pt x="222" y="28" on="1"/>
        <pt x="254" y="28" on="0"/>
        <pt x="318" y="95" on="0"/>
        <pt x="320" y="148" on="1"/>
      </contour>
      <contour>
        <pt x="160" y="332" on="1"/>
        <pt x="138" y="317" on="0"/>
        <pt x="90" y="317" on="0"/>
        <pt x="56" y="349" on="0"/>
        <pt x="56" y="412" on="0"/>
        <pt x="94" y="462" on="0"/>
        <pt x="124" y="474" on="1"/>
        <pt x="183" y="499" on="0"/>
        <pt x="236" y="499" on="1"/>
        <pt x="354" y="499" on="0"/>
        <pt x="440" y="416" on="0"/>
        <pt x="440" y="330" on="1"/>
        <pt x="440" y="29" on="1"/>
        <pt x="524" y="23" on="1"/>
        <pt x="524" y="1" on="1"/>
        <pt x="333" y="-11" on="1"/>
        <pt x="324" y="73" on="1"/>
        <pt x="277" y="-12" on="0"/>
        <pt x="162" y="-12" on="1"/>
        <pt x="110" y="-12" on="0"/>
        <pt x="35" y="51" on="0"/>
        <pt x="35" y="108" on="1"/>
        <pt x="36" y="184" on="0"/>
        <pt x="186" y="261" on="0"/>
        <pt x="320" y="261" on="1"/>
        <pt x="320" y="347" on="1"/>
        <pt x="320" y="408" on="0"/>
        <pt x="286" y="474" on="0"/>
        <pt x="194" y="474" on="0"/>
        <pt x="171" y="436" on="1"/>
        <pt x="156" y="411" on="0"/>
        <pt x="156" y="355" on="0"/>
      </contour>
      <contour>
        <pt x="232" y="602" on="0"/>
        <pt x="191" y="562" on="0"/>
        <pt x="132" y="562" on="0"/>
        <pt x="94" y="600" on="0"/>
        <pt x="94" y="658" on="0"/>
        <pt x="133" y="700" on="0"/>
        <pt x="191" y="700" on="0"/>
        <pt x="232" y="658" on="0"/>
      </contour>
      <contour>
        <pt x="417" y="602" on="0"/>
        <pt x="377" y="562" on="0"/>
        <pt x="317" y="562" on="0"/>
        <pt x="279" y="600" on="0"/>
        <pt x="279" y="659" on="0"/>
        <pt x="318" y="700" on="0"/>
        <pt x="377" y="700" on="0"/>
        <pt x="417" y="658" on="0"/>
      </contour>
    </TTGlyph>
    <TTGlyph name="ae" xMin="34" yMin="-12" xMax="774" yMax="499">
      <contour>
        <pt x="159" y="332" on="1"/>
        <pt x="137" y="317" on="0"/>
        <pt x="89" y="317" on="0"/>
        <pt x="55" y="349" on="0"/>
        <pt x="55" y="412" on="0"/>
        <pt x="93" y="462" on="0"/>
        <pt x="123" y="474" on="1"/>
        <pt x="182" y="499" on="0"/>
        <pt x="235" y="499" on="1"/>
        <pt x="365" y="499" on="0"/>
        <pt x="406" y="434" on="1"/>
        <pt x="467" y="499" on="0"/>
        <pt x="668" y="499" on="0"/>
        <pt x="774" y="408" on="0"/>
        <pt x="774" y="327" on="1"/>
        <pt x="774" y="304" on="0"/>
        <pt x="770" y="279" on="1"/>
        <pt x="453" y="279" on="1"/>
        <pt x="453" y="244" on="1"/>
        <pt x="453" y="132" on="0"/>
        <pt x="509" y="17" on="0"/>
        <pt x="622" y="17" on="0"/>
        <pt x="715" y="64" on="0"/>
        <pt x="741" y="107" on="1"/>
        <pt x="763" y="100" on="0"/>
        <pt x="763" y="86" on="1"/>
        <pt x="763" y="61" on="0"/>
        <pt x="716" y="28" on="1"/>
        <pt x="693" y="12" on="0"/>
        <pt x="608" y="-11" on="0"/>
        <pt x="555" y="-11" on="1"/>
        <pt x="409" y="-11" on="0"/>
        <pt x="349" y="101" on="1"/>
        <pt x="297" y="-12" on="0"/>
        <pt x="172" y="-12" on="1"/>
        <pt x="115" y="-12" on="0"/>
        <pt x="34" y="51" on="0"/>
        <pt x="34" y="108" on="1"/>
        <pt x="35" y="184" on="0"/>
        <pt x="185" y="261" on="0"/>
        <pt x="318" y="261" on="1"/>
        <pt x="319" y="269" on="1"/>
        <pt x="319" y="347" on="1"/>
        <pt x="319" y="408" on="0"/>
        <pt x="285" y="474" on="0"/>
        <pt x="193" y="474" on="0"/>
        <pt x="170" y="436" on="1"/>
        <pt x="155" y="411" on="0"/>
        <pt x="155" y="355" on="0"/>
      </contour>
      <contour>
        <pt x="647" y="315" on="1"/>
        <pt x="649" y="349" on="1"/>
        <pt x="649" y="471" on="0"/>
        <pt x="564" y="471" on="1"/>
        <pt x="475" y="471" on="0"/>
        <pt x="456" y="315" on="1"/>
      </contour>
      <contour>
        <pt x="245" y="233" on="0"/>
        <pt x="160" y="181" on="0"/>
        <pt x="160" y="42" on="0"/>
        <pt x="207" y="31" on="1"/>
        <pt x="217" y="28" on="0"/>
        <pt x="226" y="28" on="1"/>
        <pt x="259" y="28" on="0"/>
        <pt x="329" y="94" on="0"/>
        <pt x="331" y="148" on="1"/>
        <pt x="320" y="185" on="0"/>
        <pt x="318" y="234" on="1"/>
      </contour>
    </TTGlyph>
    <TTGlyph name="agrave" xMin="35" yMin="-12" xMax="524" yMax="763">
      <contour>
        <pt x="320" y="234" on="1"/>
        <pt x="204" y="234" on="0"/>
        <pt x="174" y="173" on="1"/>
        <pt x="161" y="147" on="0"/>
        <pt x="161" y="108" on="1"/>
        <pt x="161" y="41" on="0"/>
        <pt x="207" y="30" on="1"/>
        <pt x="214" y="28" on="0"/>
        <pt x="222" y="28" on="1"/>
        <pt x="254" y="28" on="0"/>
        <pt x="318" y="95" on="0"/>
        <pt x="320" y="148" on="1"/>
      </contour>
      <contour>
        <pt x="160" y="332" on="1"/>
        <pt x="138" y="317" on="0"/>
        <pt x="90" y="317" on="0"/>
        <pt x="56" y="349" on="0"/>
        <pt x="56" y="412" on="0"/>
        <pt x="94" y="462" on="0"/>
        <pt x="124" y="474" on="1"/>
        <pt x="183" y="499" on="0"/>
        <pt x="236" y="499" on="1"/>
        <pt x="354" y="499" on="0"/>
        <pt x="440" y="416" on="0"/>
        <pt x="440" y="330" on="1"/>
        <pt x="440" y="29" on="1"/>
        <pt x="524" y="23" on="1"/>
        <pt x="524" y="1" on="1"/>
        <pt x="333" y="-11" on="1"/>
        <pt x="324" y="73" on="1"/>
        <pt x="277" y="-12" on="0"/>
        <pt x="162" y="-12" on="1"/>
        <pt x="110" y="-12" on="0"/>
        <pt x="35" y="51" on="0"/>
        <pt x="35" y="108" on="1"/>
        <pt x="36" y="184" on="0"/>
        <pt x="186" y="261" on="0"/>
        <pt x="320" y="261" on="1"/>
        <pt x="320" y="347" on="1"/>
        <pt x="320" y="408" on="0"/>
        <pt x="286" y="474" on="0"/>
        <pt x="194" y="474" on="0"/>
        <pt x="171" y="436" on="1"/>
        <pt x="156" y="411" on="0"/>
        <pt x="156" y="355" on="0"/>
      </contour>
      <contour>
        <pt x="142" y="696" on="1"/>
        <pt x="142" y="720" on="0"/>
        <pt x="197" y="763" on="1"/>
        <pt x="303" y="621" on="0"/>
        <pt x="333" y="578" on="1"/>
        <pt x="326" y="567" on="0"/>
        <pt x="309" y="551" on="1"/>
        <pt x="249" y="592" on="0"/>
        <pt x="159" y="666" on="1"/>
        <pt x="142" y="680" on="0"/>
      </contour>
    </TTGlyph>
    <TTGlyph name="ampersand" xMin="46" yMin="-13" xMax="803" yMax="674">
      <contour>
        <pt x="766" y="36" on="1"/>
        <pt x="784" y="36" on="0"/>
        <pt x="803" y="39" on="1"/>
        <pt x="803" y="27" on="0"/>
        <pt x="786" y="13" on="1"/>
        <pt x="756" y="-13" on="0"/>
        <pt x="632" y="-13" on="0"/>
        <pt x="515" y="31" on="0"/>
        <pt x="482" y="64" on="1"/>
        <pt x="405" y="-11" on="0"/>
        <pt x="275" y="-11" on="1"/>
        <pt x="180" y="-11" on="0"/>
        <pt x="47" y="79" on="0"/>
        <pt x="46" y="163" on="1"/>
        <pt x="46" y="225" on="0"/>
        <pt x="136" y="323" on="0"/>
        <pt x="211" y="345" on="1"/>
        <pt x="128" y="418" on="0"/>
        <pt x="128" y="509" on="1"/>
        <pt x="128" y="580" on="0"/>
        <pt x="233" y="674" on="0"/>
        <pt x="420" y="674" on="0"/>
        <pt x="522" y="594" on="0"/>
        <pt x="522" y="529" on="1"/>
        <pt x="522" y="521" on="0"/>
        <pt x="521" y="512" on="1"/>
        <pt x="514" y="448" on="0"/>
        <pt x="399" y="362" on="0"/>
        <pt x="349" y="360" on="1"/>
        <pt x="343" y="364" on="1"/>
        <pt x="395" y="309" on="0"/>
        <pt x="537" y="167" on="1"/>
        <pt x="560" y="224" on="0"/>
        <pt x="560" y="337" on="0"/>
        <pt x="553" y="376" on="1"/>
        <pt x="566" y="383" on="0"/>
        <pt x="576" y="383" on="1"/>
        <pt x="601" y="383" on="0"/>
        <pt x="601" y="327" on="1"/>
        <pt x="601" y="220" on="0"/>
        <pt x="564" y="141" on="1"/>
        <pt x="567" y="138" on="1"/>
        <pt x="674" y="36" on="0"/>
      </contour>
      <contour>
        <pt x="182" y="169" on="1"/>
        <pt x="182" y="107" on="0"/>
        <pt x="247" y="29" on="0"/>
        <pt x="296" y="29" on="1"/>
        <pt x="394" y="29" on="0"/>
        <pt x="456" y="88" on="1"/>
        <pt x="422" y="126" on="0"/>
        <pt x="274" y="276" on="0"/>
        <pt x="239" y="317" on="1"/>
        <pt x="235" y="321" on="1"/>
        <pt x="182" y="252" on="0"/>
      </contour>
      <contour>
        <pt x="401" y="547" on="1"/>
        <pt x="401" y="588" on="0"/>
        <pt x="363" y="647" on="0"/>
        <pt x="288" y="647" on="0"/>
        <pt x="239" y="586" on="0"/>
        <pt x="239" y="531" on="1"/>
        <pt x="239" y="503" on="0"/>
        <pt x="266" y="448" on="0"/>
        <pt x="289" y="422" on="0"/>
        <pt x="326" y="382" on="1"/>
        <pt x="391" y="423" on="0"/>
        <pt x="400" y="523" on="1"/>
        <pt x="401" y="536" on="0"/>
      </contour>
    </TTGlyph>
    <TTGlyph name="aring" xMin="35" yMin="-12" xMax="524" yMax="785">
      <contour>
        <pt x="320" y="234" on="1"/>
        <pt x="204" y="234" on="0"/>
        <pt x="174" y="173" on="1"/>
        <pt x="161" y="147" on="0"/>
        <pt x="161" y="108" on="1"/>
        <pt x="161" y="41" on="0"/>
        <pt x="207" y="30" on="1"/>
        <pt x="214" y="28" on="0"/>
        <pt x="222" y="28" on="1"/>
        <pt x="254" y="28" on="0"/>
        <pt x="318" y="95" on="0"/>
        <pt x="320" y="148" on="1"/>
      </contour>
      <contour>
        <pt x="160" y="332" on="1"/>
        <pt x="138" y="317" on="0"/>
        <pt x="90" y="317" on="0"/>
        <pt x="56" y="349" on="0"/>
        <pt x="56" y="412" on="0"/>
        <pt x="94" y="462" on="0"/>
        <pt x="124" y="474" on="1"/>
        <pt x="183" y="499" on="0"/>
        <pt x="236" y="499" on="1"/>
        <pt x="354" y="499" on="0"/>
        <pt x="440" y="416" on="0"/>
        <pt x="440" y="330" on="1"/>
        <pt x="440" y="29" on="1"/>
        <pt x="524" y="23" on="1"/>
        <pt x="524" y="1" on="1"/>
        <pt x="333" y="-11" on="1"/>
        <pt x="324" y="73" on="1"/>
        <pt x="277" y="-12" on="0"/>
        <pt x="162" y="-12" on="1"/>
        <pt x="110" y="-12" on="0"/>
        <pt x="35" y="51" on="0"/>
        <pt x="35" y="108" on="1"/>
        <pt x="36" y="184" on="0"/>
        <pt x="186" y="261" on="0"/>
        <pt x="320" y="261" on="1"/>
        <pt x="320" y="347" on="1"/>
        <pt x="320" y="408" on="0"/>
        <pt x="286" y="474" on="0"/>
        <pt x="194" y="474" on="0"/>
        <pt x="171" y="436" on="1"/>
        <pt x="156" y="411" on="0"/>
        <pt x="156" y="355" on="0"/>
      </contour>
      <contour>
        <pt x="312" y="785" on="0"/>
        <pt x="378" y="721" on="0"/>
        <pt x="378" y="622" on="0"/>
        <pt x="309" y="555" on="0"/>
        <pt x="210" y="555" on="0"/>
        <pt x="143" y="619" on="0"/>
        <pt x="143" y="718" on="0"/>
        <pt x="212" y="785" on="0"/>
      </contour>
      <contour>
        <pt x="285" y="608" on="0"/>
        <pt x="318" y="642" on="0"/>
        <pt x="318" y="694" on="0"/>
        <pt x="284" y="730" on="0"/>
        <pt x="237" y="730" on="0"/>
        <pt x="204" y="696" on="0"/>
        <pt x="204" y="642" on="0"/>
        <pt x="237" y="608" on="0"/>
      </contour>
    </TTGlyph>
    <TTGlyph name="asciicircum" xMin="52" yMin="536" xMax="375" yMax="741">
      <contour>
        <pt x="52" y="555" on="1"/>
        <pt x="183" y="741" on="1"/>
        <pt x="245" y="741" on="1"/>
        <pt x="375" y="555" on="1"/>
        <pt x="344" y="536" on="1"/>
        <pt x="214" y="652" on="1"/>
        <pt x="83" y="536" on="1"/>
      </contour>
    </TTGlyph>
    <TTGlyph name="asciitilde" xMin="48" yMin="158" xMax="526" yMax="304">
      <contour>
        <pt x="478" y="190" on="0"/>
        <pt x="428" y="159" on="0"/>
        <pt x="387" y="159" on="0"/>
        <pt x="350" y="169" on="0"/>
        <pt x="322" y="179" on="0"/>
        <pt x="276" y="197" on="0"/>
        <pt x="203" y="225" on="0"/>
        <pt x="176" y="225" on="1"/>
        <pt x="129" y="225" on="0"/>
        <pt x="88" y="158" on="1"/>
        <pt x="48" y="201" on="1"/>
        <pt x="78" y="251" on="0"/>
        <pt x="139" y="304" on="0"/>
        <pt x="226" y="304" on="0"/>
        <pt x="371" y="238" on="0"/>
        <pt x="397" y="238" on="1"/>
        <pt x="450" y="238" on="0"/>
        <pt x="485" y="297" on="1"/>
        <pt x="526" y="256" on="1"/>
        <pt x="506" y="225" on="0"/>
      </contour>
    </TTGlyph>
    <TTGlyph name="asterisk" xMin="57" yMin="346" xMax="407" yMax="682">
      <contour>
        <pt x="207" y="559" on="1"/>
        <pt x="192" y="682" on="1"/>
        <pt x="273" y="682" on="1"/>
        <pt x="259" y="559" on="1"/>
        <pt x="357" y="649" on="1"/>
        <pt x="407" y="585" on="1"/>
        <pt x="280" y="515" on="1"/>
        <pt x="405" y="443" on="1"/>
        <pt x="357" y="380" on="1"/>
        <pt x="259" y="468" on="1"/>
        <pt x="273" y="346" on="1"/>
        <pt x="194" y="346" on="1"/>
        <pt x="208" y="468" on="1"/>
        <pt x="109" y="377" on="1"/>
        <pt x="60" y="441" on="1"/>
        <pt x="190" y="515" on="1"/>
        <pt x="57" y="585" on="1"/>
        <pt x="107" y="652" on="1"/>
      </contour>
    </TTGlyph>
    <TTGlyph name="at" xMin="51" yMin="-12" xMax="782" yMax="681">
      <contour>
        <pt x="474" y="321" on="1"/>
        <pt x="419" y="321" on="0"/>
        <pt x="353" y="281" on="0"/>
        <pt x="353" y="167" on="0"/>
        <pt x="397" y="167" on="1"/>
        <pt x="425" y="167" on="0"/>
        <pt x="470" y="222" on="0"/>
        <pt x="473" y="255" on="1"/>
      </contour>
      <contour>
        <pt x="560" y="224" on="1"/>
        <pt x="560" y="182" on="0"/>
        <pt x="590" y="182" on="1"/>
        <pt x="629" y="182" on="0"/>
        <pt x="681" y="296" on="0"/>
        <pt x="681" y="397" on="1"/>
        <pt x="681" y="520" on="0"/>
        <pt x="556" y="649" on="0"/>
        <pt x="445" y="649" on="1"/>
        <pt x="370" y="649" on="0"/>
        <pt x="253" y="594" on="0"/>
        <pt x="220" y="548" on="1"/>
        <pt x="152" y="455" on="0"/>
        <pt x="152" y="190" on="0"/>
        <pt x="285" y="24" on="0"/>
        <pt x="417" y="24" on="1"/>
        <pt x="487" y="24" on="0"/>
        <pt x="621" y="68" on="0"/>
        <pt x="653" y="90" on="1"/>
        <pt x="685" y="112" on="1"/>
        <pt x="703" y="81" on="1"/>
        <pt x="693" y="71" on="0"/>
        <pt x="625" y="33" on="0"/>
        <pt x="594" y="20" on="1"/>
        <pt x="515" y="-12" on="0"/>
        <pt x="417" y="-12" on="1"/>
        <pt x="255" y="-12" on="0"/>
        <pt x="51" y="178" on="0"/>
        <pt x="51" y="324" on="1"/>
        <pt x="51" y="466" on="0"/>
        <pt x="150" y="570" on="1"/>
        <pt x="198" y="621" on="0"/>
        <pt x="356" y="681" on="0"/>
        <pt x="455" y="681" on="1"/>
        <pt x="596" y="681" on="0"/>
        <pt x="782" y="536" on="0"/>
        <pt x="782" y="286" on="0"/>
        <pt x="639" y="150" on="0"/>
        <pt x="564" y="150" on="1"/>
        <pt x="529" y="150" on="0"/>
        <pt x="483" y="181" on="0"/>
        <pt x="476" y="200" on="1"/>
        <pt x="458" y="168" on="0"/>
        <pt x="389" y="136" on="0"/>
        <pt x="311" y="136" on="0"/>
        <pt x="258" y="183" on="0"/>
        <pt x="258" y="224" on="1"/>
        <pt x="258" y="282" on="0"/>
        <pt x="375" y="340" on="0"/>
        <pt x="475" y="340" on="1"/>
        <pt x="477" y="405" on="1"/>
        <pt x="477" y="408" on="0"/>
        <pt x="477" y="411" on="1"/>
        <pt x="477" y="501" on="0"/>
        <pt x="420" y="501" on="1"/>
        <pt x="385" y="501" on="0"/>
        <pt x="354" y="453" on="0"/>
        <pt x="354" y="408" on="0"/>
        <pt x="356" y="394" on="1"/>
        <pt x="341" y="383" on="0"/>
        <pt x="328" y="383" on="1"/>
        <pt x="278" y="383" on="0"/>
        <pt x="278" y="428" on="1"/>
        <pt x="278" y="462" on="0"/>
        <pt x="305" y="484" on="1"/>
        <pt x="349" y="520" on="0"/>
        <pt x="505" y="520" on="0"/>
        <pt x="566" y="460" on="0"/>
        <pt x="566" y="401" on="1"/>
        <pt x="566" y="397" on="0"/>
        <pt x="566" y="393" on="1"/>
        <pt x="560" y="234" on="1"/>
      </contour>
    </TTGlyph>
    <TTGlyph name="atilde" xMin="35" yMin="-12" xMax="524" yMax="686">
      <contour>
        <pt x="320" y="234" on="1"/>
        <pt x="204" y="234" on="0"/>
        <pt x="174" y="173" on="1"/>
        <pt x="161" y="147" on="0"/>
        <pt x="161" y="108" on="1"/>
        <pt x="161" y="41" on="0"/>
        <pt x="207" y="30" on="1"/>
        <pt x="214" y="28" on="0"/>
        <pt x="222" y="28" on="1"/>
        <pt x="254" y="28" on="0"/>
        <pt x="318" y="95" on="0"/>
        <pt x="320" y="148" on="1"/>
      </contour>
      <contour>
        <pt x="160" y="332" on="1"/>
        <pt x="138" y="317" on="0"/>
        <pt x="90" y="317" on="0"/>
        <pt x="56" y="349" on="0"/>
        <pt x="56" y="412" on="0"/>
        <pt x="94" y="462" on="0"/>
        <pt x="124" y="474" on="1"/>
        <pt x="183" y="499" on="0"/>
        <pt x="236" y="499" on="1"/>
        <pt x="354" y="499" on="0"/>
        <pt x="440" y="416" on="0"/>
        <pt x="440" y="330" on="1"/>
        <pt x="440" y="29" on="1"/>
        <pt x="524" y="23" on="1"/>
        <pt x="524" y="1" on="1"/>
        <pt x="333" y="-11" on="1"/>
        <pt x="324" y="73" on="1"/>
        <pt x="277" y="-12" on="0"/>
        <pt x="162" y="-12" on="1"/>
        <pt x="110" y="-12" on="0"/>
        <pt x="35" y="51" on="0"/>
        <pt x="35" y="108" on="1"/>
        <pt x="36" y="184" on="0"/>
        <pt x="186" y="261" on="0"/>
        <pt x="320" y="261" on="1"/>
        <pt x="320" y="347" on="1"/>
        <pt x="320" y="408" on="0"/>
        <pt x="286" y="474" on="0"/>
        <pt x="194" y="474" on="0"/>
        <pt x="171" y="436" on="1"/>
        <pt x="156" y="411" on="0"/>
        <pt x="156" y="355" on="0"/>
      </contour>
      <contour>
        <pt x="422" y="615" on="0"/>
        <pt x="365" y="552" on="0"/>
        <pt x="290" y="552" on="0"/>
        <pt x="242" y="581" on="1"/>
        <pt x="197" y="613" on="0"/>
        <pt x="149" y="613" on="0"/>
        <pt x="116" y="589" on="0"/>
        <pt x="112" y="574" on="1"/>
        <pt x="85" y="574" on="1"/>
        <pt x="91" y="624" on="0"/>
        <pt x="147" y="686" on="0"/>
        <pt x="228" y="686" on="0"/>
        <pt x="275" y="656" on="1"/>
        <pt x="320" y="625" on="0"/>
        <pt x="364" y="625" on="0"/>
        <pt x="398" y="650" on="0"/>
        <pt x="401" y="665" on="1"/>
        <pt x="428" y="665" on="1"/>
      </contour>
    </TTGlyph>
    <TTGlyph name="b" xMin="-13" yMin="-19" xMax="569" yMax="768">
      <contour>
        <pt x="200" y="602" on="1"/>
        <pt x="200" y="456" on="0"/>
        <pt x="198" y="419" on="1"/>
        <pt x="252" y="499" on="0"/>
        <pt x="362" y="499" on="1"/>
        <pt x="450" y="499" on="0"/>
        <pt x="569" y="384" on="0"/>
        <pt x="569" y="135" on="0"/>
        <pt x="430" y="-12" on="0"/>
        <pt x="301" y="-12" on="1"/>
        <pt x="273" y="-12" on="0"/>
        <pt x="200" y="9" on="0"/>
        <pt x="177" y="27" on="1"/>
        <pt x="73" y="-19" on="1"/>
        <pt x="73" y="713" on="1"/>
        <pt x="-13" y="718" on="1"/>
        <pt x="-13" y="743" on="1"/>
        <pt x="200" y="768" on="1"/>
      </contour>
      <contour>
        <pt x="303" y="18" on="1"/>
        <pt x="336" y="18" on="0"/>
        <pt x="384" y="50" on="0"/>
        <pt x="410" y="98" on="0"/>
        <pt x="418" y="135" on="1"/>
        <pt x="429" y="192" on="0"/>
        <pt x="429" y="278" on="1"/>
        <pt x="429" y="468" on="0"/>
        <pt x="332" y="468" on="1"/>
        <pt x="281" y="468" on="0"/>
        <pt x="202" y="390" on="0"/>
        <pt x="200" y="351" on="1"/>
        <pt x="202" y="55" on="1"/>
        <pt x="240" y="18" on="0"/>
      </contour>
    </TTGlyph>
    <TTGlyph name="backslash" xMin="42" yMin="0" xMax="326" yMax="668">
      <contour>
        <pt x="326" y="0" on="1"/>
        <pt x="243" y="0" on="1"/>
        <pt x="42" y="668" on="1"/>
        <pt x="125" y="668" on="1"/>
      </contour>
    </TTGlyph>
    <TTGlyph name="bar" xMin="84" yMin="-290" xMax="165" yMax="800">
      <contour>
        <pt x="84" y="800" on="1"/>
        <pt x="165" y="800" on="1"/>
        <pt x="165" y="-290" on="1"/>
        <pt x="84" y="-290" on="1"/>
      </contour>
    </TTGlyph>
    <TTGlyph name="braceleft" xMin="16" yMin="-274" xMax="292" yMax="783">
      <contour>
        <pt x="16" y="268" on="1"/>
        <pt x="102" y="268" on="0"/>
        <pt x="102" y="370" on="1"/>
        <pt x="102" y="410" on="0"/>
        <pt x="74" y="570" on="0"/>
        <pt x="74" y="612" on="1"/>
        <pt x="74" y="783" on="0"/>
        <pt x="292" y="783" on="1"/>
        <pt x="292" y="746" on="1"/>
        <pt x="232" y="746" on="0"/>
        <pt x="183" y="688" on="0"/>
        <pt x="183" y="598" on="0"/>
        <pt x="215" y="423" on="0"/>
        <pt x="215" y="342" on="0"/>
        <pt x="167" y="268" on="0"/>
        <pt x="123" y="254" on="1"/>
        <pt x="167" y="242" on="0"/>
        <pt x="215" y="168" on="0"/>
        <pt x="215" y="86" on="0"/>
        <pt x="183" y="-89" on="0"/>
        <pt x="183" y="-128" on="1"/>
        <pt x="183" y="-238" on="0"/>
        <pt x="292" y="-238" on="1"/>
        <pt x="292" y="-274" on="1"/>
        <pt x="74" y="-274" on="0"/>
        <pt x="74" y="-103" on="1"/>
        <pt x="74" y="-66" on="0"/>
        <pt x="102" y="101" on="0"/>
        <pt x="102" y="139" on="1"/>
        <pt x="102" y="241" on="0"/>
        <pt x="16" y="241" on="1"/>
      </contour>
    </TTGlyph>
    <TTGlyph name="braceright" xMin="19" yMin="-274" xMax="295" yMax="783">
      <contour>
        <pt x="295" y="268" on="1"/>
        <pt x="295" y="241" on="1"/>
        <pt x="209" y="241" on="0"/>
        <pt x="209" y="139" on="1"/>
        <pt x="209" y="101" on="0"/>
        <pt x="237" y="-66" on="0"/>
        <pt x="237" y="-103" on="1"/>
        <pt x="237" y="-274" on="0"/>
        <pt x="19" y="-274" on="1"/>
        <pt x="19" y="-238" on="1"/>
        <pt x="128" y="-238" on="0"/>
        <pt x="128" y="-128" on="1"/>
        <pt x="128" y="-89" on="0"/>
        <pt x="96" y="86" on="0"/>
        <pt x="96" y="168" on="0"/>
        <pt x="144" y="242" on="0"/>
        <pt x="188" y="254" on="1"/>
        <pt x="144" y="268" on="0"/>
        <pt x="96" y="342" on="0"/>
        <pt x="96" y="423" on="0"/>
        <pt x="128" y="598" on="0"/>
        <pt x="128" y="688" on="0"/>
        <pt x="79" y="746" on="0"/>
        <pt x="19" y="746" on="1"/>
        <pt x="19" y="783" on="1"/>
        <pt x="237" y="783" on="0"/>
        <pt x="237" y="612" on="1"/>
        <pt x="237" y="570" on="0"/>
        <pt x="209" y="410" on="0"/>
        <pt x="209" y="370" on="1"/>
        <pt x="209" y="268" on="0"/>
      </contour>
    </TTGlyph>
    <TTGlyph name="bracketleft" xMin="84" yMin="-290" xMax="340" yMax="801">
      <contour>
        <pt x="84" y="801" on="1"/>
        <pt x="339" y="801" on="1"/>
        <pt x="339" y="727" on="1"/>
        <pt x="181" y="727" on="1"/>
        <pt x="181" y="-216" on="1"/>
        <pt x="340" y="-216" on="1"/>
        <pt x="340" y="-290" on="1"/>
        <pt x="84" y="-290" on="1"/>
      </contour>
    </TTGlyph>
    <TTGlyph name="bracketright" xMin="11" yMin="-290" xMax="267" yMax="801">
      <contour>
        <pt x="12" y="801" on="1"/>
        <pt x="267" y="801" on="1"/>
        <pt x="267" y="-290" on="1"/>
        <pt x="11" y="-290" on="1"/>
        <pt x="11" y="-216" on="1"/>
        <pt x="170" y="-216" on="1"/>
        <pt x="170" y="727" on="1"/>
        <pt x="12" y="727" on="1"/>
      </contour>
    </TTGlyph>
    <TTGlyph name="breve" xMin="60" yMin="510" xMax="331" yMax="669">
      <contour>
        <pt x="60" y="669" on="1"/>
        <pt x="80" y="669" on="1"/>
        <pt x="109" y="588" on="0"/>
        <pt x="282" y="588" on="0"/>
        <pt x="311" y="669" on="1"/>
        <pt x="331" y="669" on="1"/>
        <pt x="331" y="593" on="0"/>
        <pt x="259" y="510" on="0"/>
        <pt x="133" y="510" on="0"/>
        <pt x="60" y="593" on="0"/>
      </contour>
    </TTGlyph>
    <TTGlyph name="brokenbar" xMin="88" yMin="-221" xMax="169" yMax="690">
      <contour>
        <pt x="88" y="690" on="1"/>
        <pt x="169" y="690" on="1"/>
        <pt x="169" y="333" on="1"/>
        <pt x="88" y="333" on="1"/>
      </contour>
      <contour>
        <pt x="88" y="136" on="1"/>
        <pt x="169" y="136" on="1"/>
        <pt x="169" y="-221" on="1"/>
        <pt x="88" y="-221" on="1"/>
      </contour>
    </TTGlyph>
    <TTGlyph name="bullet" xMin="74" yMin="177" xMax="365" yMax="487">
      <contour>
        <pt x="365" y="394" on="0"/>
        <pt x="365" y="268" on="0"/>
        <pt x="280" y="177" on="0"/>
        <pt x="158" y="177" on="0"/>
        <pt x="74" y="268" on="0"/>
        <pt x="74" y="395" on="0"/>
        <pt x="157" y="487" on="0"/>
        <pt x="281" y="487" on="0"/>
      </contour>
    </TTGlyph>
    <TTGlyph name="c" xMin="40" yMin="-11" xMax="477" yMax="499">
      <contour>
        <pt x="374" y="326" on="1"/>
        <pt x="379" y="346" on="0"/>
        <pt x="379" y="397" on="0"/>
        <pt x="364" y="424" on="1"/>
        <pt x="342" y="468" on="0"/>
        <pt x="297" y="468" on="1"/>
        <pt x="177" y="468" on="0"/>
        <pt x="177" y="17" on="0"/>
        <pt x="300" y="17" on="1"/>
        <pt x="393" y="17" on="0"/>
        <pt x="449" y="107" on="1"/>
        <pt x="471" y="100" on="0"/>
        <pt x="471" y="71" on="0"/>
        <pt x="434" y="28" on="0"/>
        <pt x="343" y="-11" on="0"/>
        <pt x="284" y="-11" on="1"/>
        <pt x="171" y="-11" on="0"/>
        <pt x="40" y="128" on="0"/>
        <pt x="40" y="361" on="0"/>
        <pt x="176" y="499" on="0"/>
        <pt x="299" y="499" on="1"/>
        <pt x="337" y="499" on="0"/>
        <pt x="411" y="480" on="0"/>
        <pt x="477" y="418" on="0"/>
        <pt x="477" y="331" on="0"/>
        <pt x="438" y="318" on="1"/>
        <pt x="424" y="313" on="0"/>
        <pt x="390" y="313" on="0"/>
      </contour>
    </TTGlyph>
    <TTGlyph name="caron" xMin="100" yMin="545" xMax="423" yMax="750">
      <contour>
        <pt x="231" y="545" on="1"/>
        <pt x="100" y="731" on="1"/>
        <pt x="131" y="750" on="1"/>
        <pt x="262" y="634" on="1"/>
        <pt x="392" y="750" on="1"/>
        <pt x="423" y="731" on="1"/>
        <pt x="293" y="545" on="1"/>
      </contour>
    </TTGlyph>
    <TTGlyph name="ccedilla" xMin="40" yMin="-217" xMax="477" yMax="499">
      <contour>
        <pt x="374" y="326" on="1"/>
        <pt x="379" y="346" on="0"/>
        <pt x="379" y="397" on="0"/>
        <pt x="364" y="424" on="1"/>
        <pt x="342" y="468" on="0"/>
        <pt x="297" y="468" on="1"/>
        <pt x="177" y="468" on="0"/>
        <pt x="177" y="17" on="0"/>
        <pt x="300" y="17" on="1"/>
        <pt x="393" y="17" on="0"/>
        <pt x="449" y="107" on="1"/>
        <pt x="471" y="100" on="0"/>
        <pt x="471" y="71" on="0"/>
        <pt x="434" y="28" on="0"/>
        <pt x="343" y="-11" on="0"/>
        <pt x="284" y="-11" on="1"/>
        <pt x="171" y="-11" on="0"/>
        <pt x="40" y="128" on="0"/>
        <pt x="40" y="361" on="0"/>
        <pt x="176" y="499" on="0"/>
        <pt x="299" y="499" on="1"/>
        <pt x="337" y="499" on="0"/>
        <pt x="411" y="480" on="0"/>
        <pt x="477" y="418" on="0"/>
        <pt x="477" y="331" on="0"/>
        <pt x="438" y="318" on="1"/>
        <pt x="424" y="313" on="0"/>
        <pt x="390" y="313" on="0"/>
      </contour>
      <contour>
        <pt x="225" y="-68" on="1"/>
        <pt x="247" y="-54" on="0"/>
        <pt x="320" y="-54" on="0"/>
        <pt x="379" y="-93" on="0"/>
        <pt x="379" y="-174" on="0"/>
        <pt x="306" y="-217" on="0"/>
        <pt x="185" y="-217" on="0"/>
        <pt x="142" y="-192" on="1"/>
        <pt x="150" y="-175" on="1"/>
        <pt x="183" y="-188" on="0"/>
        <pt x="219" y="-188" on="1"/>
        <pt x="284" y="-188" on="0"/>
        <pt x="284" y="-131" on="1"/>
        <pt x="284" y="-86" on="0"/>
        <pt x="242" y="-86" on="1"/>
        <pt x="229" y="-86" on="0"/>
        <pt x="207" y="-91" on="1"/>
        <pt x="186" y="-82" on="1"/>
        <pt x="237" y="8" on="1"/>
        <pt x="265" y="8" on="1"/>
        <pt x="223" y="-65" on="1"/>
      </contour>
    </TTGlyph>
    <TTGlyph name="cedilla" xMin="63" yMin="-217" xMax="300" yMax="8">
      <contour>
        <pt x="146" y="-68" on="1"/>
        <pt x="168" y="-54" on="0"/>
        <pt x="241" y="-54" on="0"/>
        <pt x="300" y="-93" on="0"/>
        <pt x="300" y="-174" on="0"/>
        <pt x="227" y="-217" on="0"/>
        <pt x="106" y="-217" on="0"/>
        <pt x="63" y="-192" on="1"/>
        <pt x="71" y="-175" on="1"/>
        <pt x="104" y="-188" on="0"/>
        <pt x="140" y="-188" on="1"/>
        <pt x="205" y="-188" on="0"/>
        <pt x="205" y="-131" on="1"/>
        <pt x="205" y="-86" on="0"/>
        <pt x="163" y="-86" on="1"/>
        <pt x="150" y="-86" on="0"/>
        <pt x="128" y="-91" on="1"/>
        <pt x="107" y="-82" on="1"/>
        <pt x="158" y="8" on="1"/>
        <pt x="186" y="8" on="1"/>
        <pt x="144" y="-65" on="1"/>
      </contour>
    </TTGlyph>
    <TTGlyph name="cent" xMin="51" yMin="0" xMax="488" yMax="679">
      <contour>
        <pt x="324" y="0" on="1"/>
        <pt x="279" y="0" on="1"/>
        <pt x="279" y="85" on="1"/>
        <pt x="173" y="90" on="0"/>
        <pt x="51" y="227" on="0"/>
        <pt x="51" y="449" on="0"/>
        <pt x="170" y="585" on="0"/>
        <pt x="279" y="594" on="1"/>
        <pt x="279" y="679" on="1"/>
        <pt x="324" y="679" on="1"/>
        <pt x="324" y="594" on="1"/>
        <pt x="361" y="592" on="0"/>
        <pt x="430" y="571" on="0"/>
        <pt x="488" y="511" on="0"/>
        <pt x="488" y="427" on="0"/>
        <pt x="450" y="414" on="1"/>
        <pt x="435" y="409" on="0"/>
        <pt x="401" y="409" on="0"/>
        <pt x="385" y="422" on="1"/>
        <pt x="390" y="442" on="0"/>
        <pt x="390" y="493" on="0"/>
        <pt x="376" y="520" on="1"/>
        <pt x="353" y="564" on="0"/>
        <pt x="308" y="564" on="1"/>
        <pt x="188" y="564" on="0"/>
        <pt x="188" y="113" on="0"/>
        <pt x="311" y="113" on="1"/>
        <pt x="404" y="113" on="0"/>
        <pt x="460" y="203" on="1"/>
        <pt x="482" y="196" on="0"/>
        <pt x="482" y="182" on="1"/>
        <pt x="482" y="158" on="0"/>
        <pt x="397" y="92" on="0"/>
        <pt x="324" y="86" on="1"/>
      </contour>
    </TTGlyph>
    <TTGlyph name="circumflex" xMin="49" yMin="536" xMax="372" yMax="741">
      <contour>
        <pt x="49" y="555" on="1"/>
        <pt x="180" y="741" on="1"/>
        <pt x="242" y="741" on="1"/>
        <pt x="372" y="555" on="1"/>
        <pt x="341" y="536" on="1"/>
        <pt x="211" y="652" on="1"/>
        <pt x="80" y="536" on="1"/>
      </contour>
    </TTGlyph>
    <TTGlyph name="colon" xMin="62" yMin="-12" xMax="204" yMax="467">
      <contour>
        <pt x="204" y="31" on="0"/>
        <pt x="163" y="-12" on="0"/>
        <pt x="103" y="-12" on="0"/>
        <pt x="62" y="30" on="0"/>
        <pt x="62" y="89" on="0"/>
        <pt x="104" y="131" on="0"/>
        <pt x="162" y="131" on="0"/>
        <pt x="204" y="88" on="0"/>
      </contour>
      <contour>
        <pt x="204" y="367" on="0"/>
        <pt x="163" y="324" on="0"/>
        <pt x="103" y="324" on="0"/>
        <pt x="62" y="366" on="0"/>
        <pt x="62" y="425" on="0"/>
        <pt x="104" y="467" on="0"/>
        <pt x="162" y="467" on="0"/>
        <pt x="204" y="424" on="0"/>
      </contour>
    </TTGlyph>
    <TTGlyph name="comma" xMin="47" yMin="-144" xMax="194" yMax="128">
      <contour>
        <pt x="194" y="40" on="1"/>
        <pt x="194" y="-21" on="0"/>
        <pt x="96" y="-131" on="0"/>
        <pt x="62" y="-144" on="1"/>
        <pt x="47" y="-120" on="1"/>
        <pt x="81" y="-102" on="0"/>
        <pt x="129" y="-32" on="0"/>
        <pt x="133" y="5" on="1"/>
        <pt x="121" y="-1" on="0"/>
        <pt x="80" y="-1" on="0"/>
        <pt x="51" y="35" on="0"/>
        <pt x="51" y="94" on="0"/>
        <pt x="93" y="128" on="0"/>
        <pt x="156" y="128" on="0"/>
        <pt x="194" y="85" on="0"/>
      </contour>
    </TTGlyph>
    <TTGlyph name="copyright" xMin="51" yMin="-15" xMax="727" yMax="679">
      <contour>
        <pt x="463" y="389" on="1"/>
        <pt x="467" y="406" on="0"/>
        <pt x="467" y="447" on="0"/>
        <pt x="456" y="468" on="1"/>
        <pt x="439" y="502" on="0"/>
        <pt x="403" y="502" on="1"/>
        <pt x="308" y="502" on="0"/>
        <pt x="308" y="340" on="1"/>
        <pt x="308" y="332" on="0"/>
        <pt x="308" y="323" on="1"/>
        <pt x="308" y="146" on="0"/>
        <pt x="405" y="146" on="1"/>
        <pt x="477" y="146" on="0"/>
        <pt x="524" y="217" on="1"/>
        <pt x="536" y="210" on="0"/>
        <pt x="541" y="205" on="0"/>
        <pt x="541" y="188" on="0"/>
        <pt x="511" y="154" on="0"/>
        <pt x="438" y="123" on="0"/>
        <pt x="391" y="123" on="1"/>
        <pt x="302" y="123" on="0"/>
        <pt x="199" y="232" on="0"/>
        <pt x="199" y="418" on="0"/>
        <pt x="307" y="527" on="0"/>
        <pt x="404" y="527" on="1"/>
        <pt x="448" y="527" on="0"/>
        <pt x="494" y="506" on="1"/>
        <pt x="517" y="496" on="0"/>
        <pt x="546" y="454" on="0"/>
        <pt x="546" y="394" on="0"/>
        <pt x="515" y="384" on="1"/>
        <pt x="503" y="379" on="0"/>
        <pt x="476" y="379" on="0"/>
      </contour>
      <contour>
        <pt x="535" y="679" on="0"/>
        <pt x="727" y="478" on="0"/>
        <pt x="727" y="182" on="0"/>
        <pt x="537" y="-15" on="0"/>
        <pt x="243" y="-15" on="0"/>
        <pt x="51" y="183" on="0"/>
        <pt x="51" y="479" on="0"/>
        <pt x="242" y="679" on="0"/>
      </contour>
      <contour>
        <pt x="518" y="27" on="0"/>
        <pt x="674" y="198" on="0"/>
        <pt x="674" y="454" on="0"/>
        <pt x="513" y="633" on="0"/>
        <pt x="260" y="633" on="0"/>
        <pt x="104" y="459" on="0"/>
        <pt x="104" y="204" on="0"/>
        <pt x="265" y="27" on="0"/>
      </contour>
    </TTGlyph>
    <TTGlyph name="currency" xMin="65" yMin="94" xMax="541" yMax="573">
      <contour>
        <pt x="429" y="163" on="1"/>
        <pt x="374" y="123" on="0"/>
        <pt x="231" y="123" on="0"/>
        <pt x="176" y="164" on="1"/>
        <pt x="113" y="96" on="1"/>
        <pt x="65" y="144" on="1"/>
        <pt x="133" y="210" on="1"/>
        <pt x="99" y="263" on="0"/>
        <pt x="99" y="404" on="0"/>
        <pt x="135" y="457" on="1"/>
        <pt x="65" y="525" on="1"/>
        <pt x="113" y="573" on="1"/>
        <pt x="178" y="503" on="1"/>
        <pt x="230" y="541" on="0"/>
        <pt x="372" y="541" on="0"/>
        <pt x="426" y="501" on="1"/>
        <pt x="491" y="571" on="1"/>
        <pt x="539" y="523" on="1"/>
        <pt x="470" y="456" on="1"/>
        <pt x="506" y="402" on="0"/>
        <pt x="506" y="262" on="0"/>
        <pt x="472" y="209" on="1"/>
        <pt x="541" y="142" on="1"/>
        <pt x="493" y="94" on="1"/>
      </contour>
      <contour>
        <pt x="358" y="191" on="0"/>
        <pt x="431" y="266" on="0"/>
        <pt x="431" y="388" on="0"/>
        <pt x="358" y="471" on="0"/>
        <pt x="241" y="471" on="0"/>
        <pt x="171" y="398" on="0"/>
        <pt x="171" y="271" on="0"/>
        <pt x="246" y="191" on="0"/>
      </contour>
    </TTGlyph>
    <TTGlyph name="d" xMin="40" yMin="-16" xMax="633" yMax="768">
      <contour>
        <pt x="251" y="-15" on="1"/>
        <pt x="160" y="-15" on="0"/>
        <pt x="40" y="107" on="0"/>
        <pt x="40" y="353" on="0"/>
        <pt x="183" y="495" on="0"/>
        <pt x="302" y="495" on="1"/>
        <pt x="364" y="495" on="0"/>
        <pt x="419" y="466" on="1"/>
        <pt x="419" y="720" on="1"/>
        <pt x="333" y="726" on="1"/>
        <pt x="333" y="751" on="1"/>
        <pt x="547" y="768" on="1"/>
        <pt x="547" y="23" on="1"/>
        <pt x="632" y="19" on="1"/>
        <pt x="633" y="-4" on="1"/>
        <pt x="424" y="-16" on="1"/>
        <pt x="426" y="74" on="1"/>
        <pt x="420" y="74" on="1"/>
        <pt x="395" y="32" on="0"/>
        <pt x="303" y="-15" on="0"/>
      </contour>
      <contour>
        <pt x="418" y="154" on="1"/>
        <pt x="418" y="429" on="1"/>
        <pt x="378" y="466" on="0"/>
        <pt x="316" y="466" on="1"/>
        <pt x="237" y="466" on="0"/>
        <pt x="208" y="393" on="1"/>
        <pt x="184" y="329" on="0"/>
        <pt x="184" y="230" on="1"/>
        <pt x="184" y="17" on="0"/>
        <pt x="279" y="17" on="1"/>
        <pt x="335" y="17" on="0"/>
        <pt x="418" y="113" on="0"/>
      </contour>
    </TTGlyph>
    <TTGlyph name="dagger" xMin="33" yMin="-270" xMax="441" yMax="676">
      <contour>
        <pt x="441" y="491" on="1"/>
        <pt x="441" y="406" on="1"/>
        <pt x="273" y="424" on="1"/>
        <pt x="300" y="-270" on="1"/>
        <pt x="175" y="-270" on="1"/>
        <pt x="201" y="424" on="1"/>
        <pt x="33" y="406" on="1"/>
        <pt x="33" y="491" on="1"/>
        <pt x="201" y="471" on="1"/>
        <pt x="178" y="676" on="1"/>
        <pt x="296" y="676" on="1"/>
        <pt x="273" y="471" on="1"/>
      </contour>
    </TTGlyph>
    <TTGlyph name="daggerdbl" xMin="51" yMin="-270" xMax="459" yMax="676">
      <contour>
        <pt x="219" y="-18" on="1"/>
        <pt x="219" y="424" on="1"/>
        <pt x="51" y="406" on="1"/>
        <pt x="51" y="491" on="1"/>
        <pt x="219" y="471" on="1"/>
        <pt x="196" y="676" on="1"/>
        <pt x="314" y="676" on="1"/>
        <pt x="291" y="471" on="1"/>
        <pt x="459" y="491" on="1"/>
        <pt x="459" y="406" on="1"/>
        <pt x="291" y="424" on="1"/>
        <pt x="291" y="-18" on="1"/>
        <pt x="459" y="0" on="1"/>
        <pt x="459" y="-85" on="1"/>
        <pt x="291" y="-65" on="1"/>
        <pt x="314" y="-270" on="1"/>
        <pt x="196" y="-270" on="1"/>
        <pt x="219" y="-65" on="1"/>
        <pt x="51" y="-84" on="1"/>
        <pt x="51" y="0" on="1"/>
      </contour>
    </TTGlyph>
    <TTGlyph name="degree" xMin="42" yMin="471" xMax="278" yMax="695">
      <contour>
        <pt x="213" y="695" on="0"/>
        <pt x="278" y="632" on="0"/>
        <pt x="278" y="535" on="0"/>
        <pt x="210" y="471" on="0"/>
        <pt x="103" y="471" on="0"/>
        <pt x="42" y="533" on="0"/>
        <pt x="42" y="629" on="0"/>
        <pt x="112" y="695" on="0"/>
      </contour>
      <contour>
        <pt x="219" y="555" on="0"/>
        <pt x="219" y="607" on="0"/>
        <pt x="186" y="641" on="0"/>
        <pt x="135" y="641" on="0"/>
        <pt x="101" y="606" on="0"/>
        <pt x="101" y="554" on="0"/>
        <pt x="134" y="521" on="0"/>
        <pt x="187" y="521" on="0"/>
      </contour>
    </TTGlyph>
    <TTGlyph name="dieresis" xMin="79" yMin="562" xMax="402" yMax="700">
      <contour>
        <pt x="217" y="602" on="0"/>
        <pt x="176" y="562" on="0"/>
        <pt x="117" y="562" on="0"/>
        <pt x="79" y="600" on="0"/>
        <pt x="79" y="658" on="0"/>
        <pt x="118" y="700" on="0"/>
        <pt x="176" y="700" on="0"/>
        <pt x="217" y="658" on="0"/>
      </contour>
      <contour>
        <pt x="402" y="602" on="0"/>
        <pt x="362" y="562" on="0"/>
        <pt x="302" y="562" on="0"/>
        <pt x="264" y="600" on="0"/>
        <pt x="264" y="659" on="0"/>
        <pt x="303" y="700" on="0"/>
        <pt x="362" y="700" on="0"/>
        <pt x="402" y="658" on="0"/>
      </contour>
    </TTGlyph>
    <TTGlyph name="divide" xMin="57" yMin="18" xMax="447" yMax="432">
      <contour>
        <pt x="278" y="432" on="0"/>
        <pt x="313" y="397" on="0"/>
        <pt x="313" y="344" on="0"/>
        <pt x="277" y="309" on="0"/>
        <pt x="224" y="309" on="0"/>
        <pt x="190" y="345" on="0"/>
        <pt x="190" y="397" on="0"/>
        <pt x="226" y="432" on="0"/>
      </contour>
      <contour>
        <pt x="447" y="185" on="1"/>
        <pt x="57" y="185" on="1"/>
        <pt x="57" y="265" on="1"/>
        <pt x="447" y="265" on="1"/>
      </contour>
      <contour>
        <pt x="278" y="141" on="0"/>
        <pt x="313" y="106" on="0"/>
        <pt x="313" y="53" on="0"/>
        <pt x="277" y="18" on="0"/>
        <pt x="224" y="18" on="0"/>
        <pt x="190" y="54" on="0"/>
        <pt x="190" y="105" on="0"/>
        <pt x="226" y="141" on="0"/>
      </contour>
    </TTGlyph>
    <TTGlyph name="dollar" xMin="35" yMin="-130" xMax="548" yMax="800">
      <contour>
        <pt x="142" y="87" on="0"/>
        <pt x="237" y="14" on="0"/>
        <pt x="348" y="14" on="0"/>
        <pt x="425" y="77" on="0"/>
        <pt x="425" y="149" on="1"/>
        <pt x="425" y="206" on="0"/>
        <pt x="376" y="240" on="1"/>
        <pt x="334" y="270" on="0"/>
        <pt x="270" y="297" on="1"/>
        <pt x="217" y="317" on="0"/>
        <pt x="160" y="344" on="0"/>
        <pt x="126" y="368" on="1"/>
        <pt x="60" y="412" on="0"/>
        <pt x="60" y="574" on="0"/>
        <pt x="194" y="683" on="0"/>
        <pt x="329" y="683" on="1"/>
        <pt x="413" y="683" on="0"/>
        <pt x="530" y="613" on="0"/>
        <pt x="530" y="557" on="1"/>
        <pt x="530" y="516" on="0"/>
        <pt x="490" y="500" on="1"/>
        <pt x="470" y="491" on="0"/>
        <pt x="430" y="491" on="0"/>
        <pt x="411" y="499" on="1"/>
        <pt x="415" y="520" on="0"/>
        <pt x="415" y="577" on="0"/>
        <pt x="400" y="609" on="1"/>
        <pt x="376" y="658" on="0"/>
        <pt x="255" y="658" on="0"/>
        <pt x="188" y="582" on="0"/>
        <pt x="188" y="525" on="1"/>
        <pt x="188" y="453" on="0"/>
        <pt x="254" y="418" on="1"/>
        <pt x="293" y="396" on="0"/>
        <pt x="393" y="360" on="0"/>
        <pt x="451" y="334" on="0"/>
        <pt x="475" y="317" on="0"/>
        <pt x="516" y="284" on="0"/>
        <pt x="524" y="268" on="1"/>
        <pt x="548" y="226" on="0"/>
        <pt x="548" y="181" on="1"/>
        <pt x="548" y="96" on="0"/>
        <pt x="403" y="-12" on="0"/>
        <pt x="284" y="-12" on="1"/>
        <pt x="153" y="-12" on="0"/>
        <pt x="76" y="38" on="1"/>
        <pt x="35" y="66" on="0"/>
        <pt x="35" y="105" on="1"/>
        <pt x="35" y="152" on="0"/>
        <pt x="125" y="175" on="1"/>
      </contour>
      <contour>
        <pt x="274" y="800" on="1"/>
        <pt x="321" y="800" on="1"/>
        <pt x="321" y="-130" on="1"/>
        <pt x="274" y="-130" on="1"/>
      </contour>
    </TTGlyph>
    <TTGlyph name="dotaccent" xMin="71" yMin="575" xMax="225" yMax="730">
      <contour>
        <pt x="225" y="620" on="0"/>
        <pt x="180" y="575" on="0"/>
        <pt x="116" y="575" on="0"/>
        <pt x="71" y="620" on="0"/>
        <pt x="71" y="683" on="0"/>
        <pt x="116" y="730" on="0"/>
        <pt x="180" y="730" on="0"/>
        <pt x="225" y="683" on="0"/>
      </contour>
    </TTGlyph>
    <TTGlyph name="dotlessi" xMin="12" yMin="0" xMax="291" yMax="494">
      <contour>
        <pt x="291" y="0" on="1"/>
        <pt x="33" y="0" on="1"/>
        <pt x="33" y="23" on="1"/>
        <pt x="98" y="29" on="1"/>
        <pt x="98" y="455" on="1"/>
        <pt x="12" y="460" on="1"/>
        <pt x="12" y="481" on="1"/>
        <pt x="226" y="494" on="1"/>
        <pt x="226" y="29" on="1"/>
        <pt x="291" y="23" on="1"/>
      </contour>
    </TTGlyph>
    <TTGlyph name="e" xMin="39" yMin="-11" xMax="498" yMax="499">
      <contour>
        <pt x="373" y="349" on="1"/>
        <pt x="373" y="471" on="0"/>
        <pt x="288" y="471" on="1"/>
        <pt x="199" y="471" on="0"/>
        <pt x="180" y="315" on="1"/>
        <pt x="371" y="315" on="1"/>
        <pt x="373" y="335" on="0"/>
      </contour>
      <contour>
        <pt x="279" y="-11" on="1"/>
        <pt x="172" y="-11" on="0"/>
        <pt x="39" y="129" on="0"/>
        <pt x="39" y="359" on="0"/>
        <pt x="178" y="499" on="0"/>
        <pt x="392" y="499" on="0"/>
        <pt x="498" y="408" on="0"/>
        <pt x="498" y="327" on="1"/>
        <pt x="498" y="304" on="0"/>
        <pt x="494" y="279" on="1"/>
        <pt x="177" y="279" on="1"/>
        <pt x="177" y="244" on="1"/>
        <pt x="177" y="132" on="0"/>
        <pt x="233" y="17" on="0"/>
        <pt x="346" y="17" on="0"/>
        <pt x="439" y="64" on="0"/>
        <pt x="465" y="107" on="1"/>
        <pt x="487" y="100" on="0"/>
        <pt x="487" y="86" on="1"/>
        <pt x="487" y="61" on="0"/>
        <pt x="440" y="28" on="1"/>
        <pt x="417" y="12" on="0"/>
        <pt x="332" y="-11" on="0"/>
      </contour>
    </TTGlyph>
    <TTGlyph name="eacute" xMin="39" yMin="-11" xMax="498" yMax="763">
      <contour>
        <pt x="373" y="349" on="1"/>
        <pt x="373" y="471" on="0"/>
        <pt x="288" y="471" on="1"/>
        <pt x="199" y="471" on="0"/>
        <pt x="180" y="315" on="1"/>
        <pt x="371" y="315" on="1"/>
        <pt x="373" y="335" on="0"/>
      </contour>
      <contour>
        <pt x="279" y="-11" on="1"/>
        <pt x="172" y="-11" on="0"/>
        <pt x="39" y="129" on="0"/>
        <pt x="39" y="359" on="0"/>
        <pt x="178" y="499" on="0"/>
        <pt x="392" y="499" on="0"/>
        <pt x="498" y="408" on="0"/>
        <pt x="498" y="327" on="1"/>
        <pt x="498" y="304" on="0"/>
        <pt x="494" y="279" on="1"/>
        <pt x="177" y="279" on="1"/>
        <pt x="177" y="244" on="1"/>
        <pt x="177" y="132" on="0"/>
        <pt x="233" y="17" on="0"/>
        <pt x="346" y="17" on="0"/>
        <pt x="439" y="64" on="0"/>
        <pt x="465" y="107" on="1"/>
        <pt x="487" y="100" on="0"/>
        <pt x="487" y="86" on="1"/>
        <pt x="487" y="61" on="0"/>
        <pt x="440" y="28" on="1"/>
        <pt x="417" y="12" on="0"/>
        <pt x="332" y="-11" on="0"/>
      </contour>
      <contour>
        <pt x="389" y="696" on="1"/>
        <pt x="389" y="680" on="0"/>
        <pt x="372" y="666" on="1"/>
        <pt x="282" y="592" on="0"/>
        <pt x="222" y="551" on="1"/>
        <pt x="206" y="567" on="0"/>
        <pt x="198" y="578" on="1"/>
        <pt x="228" y="621" on="0"/>
        <pt x="334" y="763" on="1"/>
        <pt x="389" y="720" on="0"/>
      </contour>
    </TTGlyph>
    <TTGlyph name="ecircumflex" xMin="39" yMin="-11" xMax="498" yMax="741">
      <contour>
        <pt x="373" y="349" on="1"/>
        <pt x="373" y="471" on="0"/>
        <pt x="288" y="471" on="1"/>
        <pt x="199" y="471" on="0"/>
        <pt x="180" y="315" on="1"/>
        <pt x="371" y="315" on="1"/>
        <pt x="373" y="335" on="0"/>
      </contour>
      <contour>
        <pt x="279" y="-11" on="1"/>
        <pt x="172" y="-11" on="0"/>
        <pt x="39" y="129" on="0"/>
        <pt x="39" y="359" on="0"/>
        <pt x="178" y="499" on="0"/>
        <pt x="392" y="499" on="0"/>
        <pt x="498" y="408" on="0"/>
        <pt x="498" y="327" on="1"/>
        <pt x="498" y="304" on="0"/>
        <pt x="494" y="279" on="1"/>
        <pt x="177" y="279" on="1"/>
        <pt x="177" y="244" on="1"/>
        <pt x="177" y="132" on="0"/>
        <pt x="233" y="17" on="0"/>
        <pt x="346" y="17" on="0"/>
        <pt x="439" y="64" on="0"/>
        <pt x="465" y="107" on="1"/>
        <pt x="487" y="100" on="0"/>
        <pt x="487" y="86" on="1"/>
        <pt x="487" y="61" on="0"/>
        <pt x="440" y="28" on="1"/>
        <pt x="417" y="12" on="0"/>
        <pt x="332" y="-11" on="0"/>
      </contour>
      <contour>
        <pt x="125" y="555" on="1"/>
        <pt x="256" y="741" on="1"/>
        <pt x="318" y="741" on="1"/>
        <pt x="448" y="555" on="1"/>
        <pt x="417" y="536" on="1"/>
        <pt x="287" y="652" on="1"/>
        <pt x="156" y="536" on="1"/>
      </contour>
    </TTGlyph>
    <TTGlyph name="edieresis" xMin="39" yMin="-11" xMax="498" yMax="700">
      <contour>
        <pt x="373" y="349" on="1"/>
        <pt x="373" y="471" on="0"/>
        <pt x="288" y="471" on="1"/>
        <pt x="199" y="471" on="0"/>
        <pt x="180" y="315" on="1"/>
        <pt x="371" y="315" on="1"/>
        <pt x="373" y="335" on="0"/>
      </contour>
      <contour>
        <pt x="279" y="-11" on="1"/>
        <pt x="172" y="-11" on="0"/>
        <pt x="39" y="129" on="0"/>
        <pt x="39" y="359" on="0"/>
        <pt x="178" y="499" on="0"/>
        <pt x="392" y="499" on="0"/>
        <pt x="498" y="408" on="0"/>
        <pt x="498" y="327" on="1"/>
        <pt x="498" y="304" on="0"/>
        <pt x="494" y="279" on="1"/>
        <pt x="177" y="279" on="1"/>
        <pt x="177" y="244" on="1"/>
        <pt x="177" y="132" on="0"/>
        <pt x="233" y="17" on="0"/>
        <pt x="346" y="17" on="0"/>
        <pt x="439" y="64" on="0"/>
        <pt x="465" y="107" on="1"/>
        <pt x="487" y="100" on="0"/>
        <pt x="487" y="86" on="1"/>
        <pt x="487" y="61" on="0"/>
        <pt x="440" y="28" on="1"/>
        <pt x="417" y="12" on="0"/>
        <pt x="332" y="-11" on="0"/>
      </contour>
      <contour>
        <pt x="271" y="602" on="0"/>
        <pt x="230" y="562" on="0"/>
        <pt x="171" y="562" on="0"/>
        <pt x="133" y="600" on="0"/>
        <pt x="133" y="658" on="0"/>
        <pt x="172" y="700" on="0"/>
        <pt x="230" y="700" on="0"/>
        <pt x="271" y="658" on="0"/>
      </contour>
      <contour>
        <pt x="456" y="602" on="0"/>
        <pt x="416" y="562" on="0"/>
        <pt x="356" y="562" on="0"/>
        <pt x="318" y="600" on="0"/>
        <pt x="318" y="659" on="0"/>
        <pt x="357" y="700" on="0"/>
        <pt x="416" y="700" on="0"/>
        <pt x="456" y="658" on="0"/>
      </contour>
    </TTGlyph>
    <TTGlyph name="egrave" xMin="39" yMin="-11" xMax="498" yMax="763">
      <contour>
        <pt x="373" y="349" on="1"/>
        <pt x="373" y="471" on="0"/>
        <pt x="288" y="471" on="1"/>
        <pt x="199" y="471" on="0"/>
        <pt x="180" y="315" on="1"/>
        <pt x="371" y="315" on="1"/>
        <pt x="373" y="335" on="0"/>
      </contour>
      <contour>
        <pt x="279" y="-11" on="1"/>
        <pt x="172" y="-11" on="0"/>
        <pt x="39" y="129" on="0"/>
        <pt x="39" y="359" on="0"/>
        <pt x="178" y="499" on="0"/>
        <pt x="392" y="499" on="0"/>
        <pt x="498" y="408" on="0"/>
        <pt x="498" y="327" on="1"/>
        <pt x="498" y="304" on="0"/>
        <pt x="494" y="279" on="1"/>
        <pt x="177" y="279" on="1"/>
        <pt x="177" y="244" on="1"/>
        <pt x="177" y="132" on="0"/>
        <pt x="233" y="17" on="0"/>
        <pt x="346" y="17" on="0"/>
        <pt x="439" y="64" on="0"/>
        <pt x="465" y="107" on="1"/>
        <pt x="487" y="100" on="0"/>
        <pt x="487" y="86" on="1"/>
        <pt x="487" y="61" on="0"/>
        <pt x="440" y="28" on="1"/>
        <pt x="417" y="12" on="0"/>
        <pt x="332" y="-11" on="0"/>
      </contour>
      <contour>
        <pt x="176" y="696" on="1"/>
        <pt x="176" y="720" on="0"/>
        <pt x="231" y="763" on="1"/>
        <pt x="337" y="621" on="0"/>
        <pt x="367" y="578" on="1"/>
        <pt x="359" y="567" on="0"/>
        <pt x="343" y="551" on="1"/>
        <pt x="283" y="592" on="0"/>
        <pt x="193" y="666" on="1"/>
        <pt x="176" y="680" on="0"/>
      </contour>
    </TTGlyph>
    <TTGlyph name="eight" xMin="51" yMin="-11" xMax="528" yMax="683">
      <contour>
        <pt x="391" y="-11" on="0"/>
        <pt x="171" y="-11" on="0"/>
        <pt x="51" y="82" on="0"/>
        <pt x="51" y="219" on="0"/>
        <pt x="142" y="317" on="0"/>
        <pt x="218" y="340" on="1"/>
        <pt x="151" y="377" on="0"/>
        <pt x="82" y="454" on="0"/>
        <pt x="82" y="512" on="1"/>
        <pt x="82" y="591" on="0"/>
        <pt x="201" y="683" on="0"/>
        <pt x="401" y="683" on="0"/>
        <pt x="504" y="600" on="0"/>
        <pt x="504" y="471" on="0"/>
        <pt x="406" y="381" on="0"/>
        <pt x="353" y="375" on="1"/>
        <pt x="359" y="375" on="1"/>
        <pt x="443" y="331" on="0"/>
        <pt x="528" y="250" on="0"/>
        <pt x="528" y="187" on="1"/>
        <pt x="528" y="102" on="0"/>
      </contour>
      <contour>
        <pt x="336" y="17" on="0"/>
        <pt x="409" y="88" on="0"/>
        <pt x="409" y="210" on="0"/>
        <pt x="337" y="283" on="0"/>
        <pt x="266" y="318" on="1"/>
        <pt x="222" y="292" on="0"/>
        <pt x="178" y="204" on="0"/>
        <pt x="178" y="93" on="0"/>
        <pt x="242" y="17" on="0"/>
      </contour>
      <contour>
        <pt x="253" y="655" on="0"/>
        <pt x="194" y="590" on="0"/>
        <pt x="194" y="479" on="0"/>
        <pt x="255" y="418" on="0"/>
        <pt x="316" y="394" on="1"/>
        <pt x="386" y="433" on="0"/>
        <pt x="386" y="538" on="1"/>
        <pt x="386" y="595" on="0"/>
        <pt x="334" y="655" on="0"/>
      </contour>
    </TTGlyph>
    <TTGlyph name="ellipsis" xMin="51" yMin="-12" xMax="648" yMax="108">
      <contour>
        <pt x="170" y="23" on="0"/>
        <pt x="136" y="-12" on="0"/>
        <pt x="85" y="-12" on="0"/>
        <pt x="51" y="22" on="0"/>
        <pt x="51" y="73" on="0"/>
        <pt x="85" y="108" on="0"/>
        <pt x="135" y="108" on="0"/>
        <pt x="170" y="72" on="0"/>
      </contour>
      <contour>
        <pt x="409" y="23" on="0"/>
        <pt x="375" y="-12" on="0"/>
        <pt x="324" y="-12" on="0"/>
        <pt x="290" y="22" on="0"/>
        <pt x="290" y="73" on="0"/>
        <pt x="324" y="108" on="0"/>
        <pt x="374" y="108" on="0"/>
        <pt x="409" y="72" on="0"/>
      </contour>
      <contour>
        <pt x="648" y="23" on="0"/>
        <pt x="614" y="-12" on="0"/>
        <pt x="563" y="-12" on="0"/>
        <pt x="529" y="22" on="0"/>
        <pt x="529" y="73" on="0"/>
        <pt x="563" y="108" on="0"/>
        <pt x="613" y="108" on="0"/>
        <pt x="648" y="72" on="0"/>
      </contour>
    </TTGlyph>
    <TTGlyph name="emdash" xMin="65" yMin="230" xMax="1069" yMax="301">
      <contour>
        <pt x="1069" y="301" on="1"/>
        <pt x="1069" y="230" on="1"/>
        <pt x="65" y="230" on="1"/>
        <pt x="65" y="301" on="1"/>
      </contour>
    </TTGlyph>
    <TTGlyph name="endash" xMin="65" yMin="230" xMax="560" yMax="301">
      <contour>
        <pt x="560" y="301" on="1"/>
        <pt x="560" y="230" on="1"/>
        <pt x="65" y="230" on="1"/>
        <pt x="65" y="301" on="1"/>
      </contour>
    </TTGlyph>
    <TTGlyph name="equal" xMin="70" yMin="119" xMax="500" yMax="345">
      <contour>
        <pt x="500" y="345" on="1"/>
        <pt x="500" y="261" on="1"/>
        <pt x="70" y="261" on="1"/>
        <pt x="70" y="345" on="1"/>
      </contour>
      <contour>
        <pt x="500" y="203" on="1"/>
        <pt x="500" y="119" on="1"/>
        <pt x="70" y="119" on="1"/>
        <pt x="70" y="203" on="1"/>
      </contour>
    </TTGlyph>
    <TTGlyph name="eth" xMin="39" yMin="-11" xMax="565" yMax="798">
      <contour>
        <pt x="302" y="13" on="1"/>
        <pt x="369" y="13" on="0"/>
        <pt x="429" y="148" on="0"/>
        <pt x="429" y="337" on="0"/>
        <pt x="410" y="403" on="1"/>
        <pt x="381" y="474" on="0"/>
        <pt x="299" y="474" on="1"/>
        <pt x="232" y="474" on="0"/>
        <pt x="178" y="357" on="0"/>
        <pt x="178" y="244" on="1"/>
        <pt x="178" y="13" on="0"/>
      </contour>
      <contour>
        <pt x="487" y="579" on="0"/>
        <pt x="565" y="386" on="0"/>
        <pt x="565" y="137" on="0"/>
        <pt x="424" y="-11" on="0"/>
        <pt x="181" y="-11" on="0"/>
        <pt x="39" y="133" on="0"/>
        <pt x="39" y="355" on="0"/>
        <pt x="178" y="499" on="0"/>
        <pt x="299" y="499" on="1"/>
        <pt x="325" y="499" on="0"/>
        <pt x="374" y="484" on="0"/>
        <pt x="386" y="476" on="1"/>
        <pt x="398" y="469" on="1"/>
        <pt x="389" y="501" on="0"/>
        <pt x="347" y="588" on="0"/>
        <pt x="330" y="612" on="1"/>
        <pt x="267" y="566" on="1"/>
        <pt x="240" y="602" on="1"/>
        <pt x="307" y="652" on="1"/>
        <pt x="305" y="652" on="1"/>
        <pt x="239" y="727" on="0"/>
        <pt x="166" y="769" on="1"/>
        <pt x="185" y="798" on="1"/>
        <pt x="214" y="790" on="0"/>
        <pt x="342" y="723" on="0"/>
        <pt x="369" y="700" on="1"/>
        <pt x="439" y="750" on="1"/>
        <pt x="464" y="715" on="1"/>
        <pt x="401" y="668" on="1"/>
        <pt x="403" y="668" on="1"/>
      </contour>
    </TTGlyph>
    <TTGlyph name="exclam" xMin="65" yMin="-12" xMax="207" yMax="675">
      <contour>
        <pt x="77" y="548" on="1"/>
        <pt x="77" y="613" on="0"/>
        <pt x="88" y="640" on="1"/>
        <pt x="103" y="675" on="0"/>
        <pt x="151" y="675" on="1"/>
        <pt x="174" y="675" on="0"/>
        <pt x="206" y="669" on="1"/>
        <pt x="189" y="588" on="0"/>
        <pt x="175" y="429" on="1"/>
        <pt x="161" y="191" on="1"/>
        <pt x="157" y="188" on="0"/>
        <pt x="133" y="186" on="0"/>
        <pt x="105" y="198" on="0"/>
        <pt x="101" y="214" on="1"/>
        <pt x="77" y="370" on="0"/>
      </contour>
      <contour>
        <pt x="207" y="31" on="0"/>
        <pt x="166" y="-12" on="0"/>
        <pt x="106" y="-12" on="0"/>
        <pt x="65" y="30" on="0"/>
        <pt x="65" y="89" on="0"/>
        <pt x="107" y="131" on="0"/>
        <pt x="165" y="131" on="0"/>
        <pt x="207" y="88" on="0"/>
      </contour>
    </TTGlyph>
    <TTGlyph name="exclamdown" xMin="57" yMin="-264" xMax="199" yMax="424">
      <contour>
        <pt x="69" y="-137" on="1"/>
        <pt x="69" y="41" on="0"/>
        <pt x="93" y="197" on="1"/>
        <pt x="97" y="213" on="0"/>
        <pt x="125" y="225" on="0"/>
        <pt x="149" y="223" on="0"/>
        <pt x="153" y="220" on="1"/>
        <pt x="167" y="-18" on="1"/>
        <pt x="181" y="-177" on="0"/>
        <pt x="198" y="-258" on="1"/>
        <pt x="166" y="-264" on="0"/>
        <pt x="143" y="-264" on="1"/>
        <pt x="95" y="-264" on="0"/>
        <pt x="80" y="-230" on="1"/>
        <pt x="69" y="-202" on="0"/>
      </contour>
      <contour>
        <pt x="199" y="324" on="0"/>
        <pt x="158" y="281" on="0"/>
        <pt x="98" y="281" on="0"/>
        <pt x="57" y="323" on="0"/>
        <pt x="57" y="382" on="0"/>
        <pt x="99" y="424" on="0"/>
        <pt x="157" y="424" on="0"/>
        <pt x="199" y="381" on="0"/>
      </contour>
    </TTGlyph>
    <TTGlyph name="f" xMin="24" yMin="0" xMax="477" yMax="769">
      <contour>
        <pt x="371" y="617" on="1"/>
        <pt x="377" y="643" on="0"/>
        <pt x="377" y="698" on="0"/>
        <pt x="346" y="742" on="0"/>
        <pt x="299" y="742" on="0"/>
        <pt x="271" y="730" on="0"/>
        <pt x="251" y="702" on="0"/>
        <pt x="237" y="676" on="0"/>
        <pt x="228" y="629" on="0"/>
        <pt x="223" y="598" on="0"/>
        <pt x="221" y="542" on="0"/>
        <pt x="221" y="528" on="1"/>
        <pt x="221" y="488" on="1"/>
        <pt x="371" y="488" on="1"/>
        <pt x="371" y="462" on="1"/>
        <pt x="221" y="462" on="1"/>
        <pt x="221" y="29" on="1"/>
        <pt x="333" y="23" on="1"/>
        <pt x="333" y="0" on="1"/>
        <pt x="27" y="0" on="1"/>
        <pt x="27" y="23" on="1"/>
        <pt x="93" y="29" on="1"/>
        <pt x="93" y="462" on="1"/>
        <pt x="24" y="462" on="1"/>
        <pt x="24" y="488" on="1"/>
        <pt x="93" y="488" on="1"/>
        <pt x="93" y="503" on="1"/>
        <pt x="93" y="636" on="0"/>
        <pt x="212" y="769" on="0"/>
        <pt x="323" y="769" on="1"/>
        <pt x="392" y="769" on="0"/>
        <pt x="477" y="724" on="0"/>
        <pt x="477" y="675" on="1"/>
        <pt x="477" y="639" on="0"/>
        <pt x="441" y="620" on="1"/>
        <pt x="422" y="609" on="0"/>
        <pt x="387" y="609" on="0"/>
      </contour>
    </TTGlyph>
    <TTGlyph name="fi" xMin="24" yMin="0" xMax="620" yMax="770">
      <contour>
        <pt x="555" y="498" on="1"/>
        <pt x="555" y="29" on="1"/>
        <pt x="620" y="23" on="1"/>
        <pt x="620" y="0" on="1"/>
        <pt x="362" y="0" on="1"/>
        <pt x="362" y="23" on="1"/>
        <pt x="427" y="29" on="1"/>
        <pt x="427" y="462" on="1"/>
        <pt x="221" y="462" on="1"/>
        <pt x="221" y="29" on="1"/>
        <pt x="295" y="23" on="1"/>
        <pt x="295" y="0" on="1"/>
        <pt x="27" y="0" on="1"/>
        <pt x="27" y="23" on="1"/>
        <pt x="93" y="29" on="1"/>
        <pt x="93" y="462" on="1"/>
        <pt x="24" y="462" on="1"/>
        <pt x="24" y="488" on="1"/>
        <pt x="93" y="488" on="1"/>
        <pt x="95" y="630" on="0"/>
        <pt x="229" y="770" on="0"/>
        <pt x="351" y="770" on="1"/>
        <pt x="505" y="768" on="0"/>
        <pt x="505" y="675" on="1"/>
        <pt x="505" y="639" on="0"/>
        <pt x="469" y="620" on="1"/>
        <pt x="450" y="609" on="0"/>
        <pt x="415" y="609" on="0"/>
        <pt x="399" y="617" on="1"/>
        <pt x="404" y="644" on="0"/>
        <pt x="404" y="698" on="0"/>
        <pt x="371" y="743" on="0"/>
        <pt x="342" y="743" on="1"/>
        <pt x="224" y="743" on="0"/>
        <pt x="221" y="488" on="1"/>
        <pt x="373" y="488" on="1"/>
      </contour>
    </TTGlyph>
    <TTGlyph name="five" xMin="33" yMin="-191" xMax="505" yMax="488">
      <contour>
        <pt x="196" y="189" on="1"/>
        <pt x="146" y="189" on="0"/>
        <pt x="90" y="171" on="1"/>
        <pt x="121" y="488" on="1"/>
        <pt x="488" y="488" on="1"/>
        <pt x="482" y="410" on="1"/>
        <pt x="175" y="410" on="1"/>
        <pt x="156" y="229" on="1"/>
        <pt x="208" y="238" on="0"/>
        <pt x="300" y="238" on="0"/>
        <pt x="385" y="217" on="0"/>
        <pt x="461" y="172" on="0"/>
        <pt x="505" y="86" on="0"/>
        <pt x="505" y="27" on="1"/>
        <pt x="505" y="-68" on="0"/>
        <pt x="363" y="-191" on="0"/>
        <pt x="142" y="-191" on="0"/>
        <pt x="33" y="-117" on="0"/>
        <pt x="33" y="-62" on="1"/>
        <pt x="33" y="-23" on="0"/>
        <pt x="66" y="-6" on="1"/>
        <pt x="83" y="2" on="0"/>
        <pt x="118" y="2" on="0"/>
        <pt x="137" y="-7" on="1"/>
        <pt x="135" y="-22" on="0"/>
        <pt x="135" y="-36" on="1"/>
        <pt x="135" y="-79" on="0"/>
        <pt x="158" y="-114" on="1"/>
        <pt x="189" y="-162" on="0"/>
        <pt x="309" y="-162" on="0"/>
        <pt x="371" y="-63" on="0"/>
        <pt x="372" y="10" on="1"/>
        <pt x="372" y="189" on="0"/>
      </contour>
    </TTGlyph>
    <TTGlyph name="fl" xMin="24" yMin="0" xMax="625" yMax="772">
      <contour>
        <pt x="432" y="621" on="1"/>
        <pt x="432" y="682" on="0"/>
        <pt x="399" y="743" on="0"/>
        <pt x="305" y="743" on="0"/>
        <pt x="252" y="695" on="0"/>
        <pt x="240" y="652" on="1"/>
        <pt x="221" y="579" on="0"/>
        <pt x="221" y="488" on="1"/>
        <pt x="366" y="488" on="1"/>
        <pt x="366" y="462" on="1"/>
        <pt x="221" y="462" on="1"/>
        <pt x="221" y="29" on="1"/>
        <pt x="297" y="23" on="1"/>
        <pt x="297" y="0" on="1"/>
        <pt x="27" y="0" on="1"/>
        <pt x="27" y="23" on="1"/>
        <pt x="93" y="29" on="1"/>
        <pt x="93" y="462" on="1"/>
        <pt x="24" y="462" on="1"/>
        <pt x="24" y="488" on="1"/>
        <pt x="93" y="488" on="1"/>
        <pt x="95" y="630" on="0"/>
        <pt x="230" y="772" on="0"/>
        <pt x="351" y="772" on="1"/>
        <pt x="416" y="772" on="0"/>
        <pt x="454" y="751" on="1"/>
        <pt x="560" y="770" on="1"/>
        <pt x="560" y="29" on="1"/>
        <pt x="625" y="23" on="1"/>
        <pt x="625" y="0" on="1"/>
        <pt x="369" y="0" on="1"/>
        <pt x="369" y="23" on="1"/>
        <pt x="432" y="29" on="1"/>
      </contour>
    </TTGlyph>
    <TTGlyph name="florin" xMin="28" yMin="-275" xMax="756" yMax="731">
      <contour>
        <pt x="130" y="-182" on="1"/>
        <pt x="130" y="-248" on="0"/>
        <pt x="182" y="-248" on="1"/>
        <pt x="219" y="-248" on="0"/>
        <pt x="240" y="-222" on="1"/>
        <pt x="252" y="-208" on="0"/>
        <pt x="269" y="-182" on="0"/>
        <pt x="283" y="-134" on="0"/>
        <pt x="291" y="-105" on="0"/>
        <pt x="295" y="-76" on="1"/>
        <pt x="301" y="-32" on="0"/>
        <pt x="305" y="6" on="1"/>
        <pt x="348" y="415" on="1"/>
        <pt x="281" y="415" on="1"/>
        <pt x="281" y="441" on="1"/>
        <pt x="350" y="441" on="1"/>
        <pt x="353" y="465" on="1"/>
        <pt x="366" y="598" on="0"/>
        <pt x="499" y="731" on="0"/>
        <pt x="610" y="731" on="1"/>
        <pt x="679" y="731" on="0"/>
        <pt x="756" y="688" on="0"/>
        <pt x="756" y="647" on="1"/>
        <pt x="756" y="603" on="0"/>
        <pt x="713" y="582" on="1"/>
        <pt x="693" y="571" on="0"/>
        <pt x="658" y="571" on="0"/>
        <pt x="643" y="579" on="1"/>
        <pt x="654" y="607" on="0"/>
        <pt x="654" y="638" on="1"/>
        <pt x="654" y="704" on="0"/>
        <pt x="602" y="704" on="1"/>
        <pt x="564" y="704" on="0"/>
        <pt x="543" y="676" on="1"/>
        <pt x="532" y="662" on="0"/>
        <pt x="514" y="634" on="0"/>
        <pt x="501" y="585" on="0"/>
        <pt x="492" y="554" on="0"/>
        <pt x="488" y="524" on="1"/>
        <pt x="482" y="477" on="0"/>
        <pt x="478" y="441" on="1"/>
        <pt x="628" y="441" on="1"/>
        <pt x="628" y="415" on="1"/>
        <pt x="476" y="415" on="1"/>
        <pt x="431" y="-9" on="1"/>
        <pt x="420" y="-141" on="0"/>
        <pt x="286" y="-275" on="0"/>
        <pt x="174" y="-275" on="1"/>
        <pt x="105" y="-275" on="0"/>
        <pt x="29" y="-232" on="0"/>
        <pt x="29" y="-190" on="1"/>
        <pt x="29" y="-147" on="0"/>
        <pt x="70" y="-126" on="1"/>
        <pt x="91" y="-115" on="0"/>
        <pt x="126" y="-115" on="0"/>
        <pt x="141" y="-123" on="1"/>
        <pt x="130" y="-151" on="0"/>
      </contour>
    </TTGlyph>
    <TTGlyph name="four" xMin="18" yMin="-180" xMax="584" yMax="488">
      <contour>
        <pt x="584" y="74" on="1"/>
        <pt x="584" y="22" on="1"/>
        <pt x="451" y="22" on="1"/>
        <pt x="451" y="-180" on="1"/>
        <pt x="326" y="-180" on="1"/>
        <pt x="326" y="22" on="1"/>
        <pt x="32" y="22" on="1"/>
        <pt x="18" y="53" on="1"/>
        <pt x="347" y="488" on="1"/>
        <pt x="451" y="488" on="1"/>
        <pt x="451" y="74" on="1"/>
      </contour>
      <contour>
        <pt x="326" y="73" on="1"/>
        <pt x="326" y="363" on="1"/>
        <pt x="115" y="73" on="1"/>
      </contour>
    </TTGlyph>
    <TTGlyph name="fraction" xMin="5" yMin="-10" xMax="481" yMax="667">
      <contour>
        <pt x="481" y="667" on="1"/>
        <pt x="75" y="-10" on="1"/>
        <pt x="5" y="-10" on="1"/>
        <pt x="412" y="667" on="1"/>
      </contour>
    </TTGlyph>
    <TTGlyph name="g" xMin="31" yMin="-260" xMax="545" yMax="636">
      <contour>
        <pt x="336" y="494" on="1"/>
        <pt x="381" y="511" on="0"/>
        <pt x="381" y="586" on="1"/>
        <pt x="381" y="606" on="0"/>
        <pt x="376" y="623" on="1"/>
        <pt x="393" y="635" on="0"/>
        <pt x="427" y="635" on="0"/>
        <pt x="442" y="629" on="1"/>
        <pt x="478" y="614" on="0"/>
        <pt x="478" y="543" on="0"/>
        <pt x="417" y="491" on="0"/>
        <pt x="364" y="484" on="1"/>
        <pt x="424" y="464" on="0"/>
        <pt x="488" y="379" on="0"/>
        <pt x="488" y="254" on="0"/>
        <pt x="364" y="147" on="0"/>
        <pt x="190" y="147" on="0"/>
        <pt x="190" y="100" on="1"/>
        <pt x="190" y="77" on="0"/>
        <pt x="255" y="60" on="0"/>
        <pt x="447" y="43" on="0"/>
        <pt x="545" y="-12" on="0"/>
        <pt x="545" y="-72" on="1"/>
        <pt x="545" y="-150" on="0"/>
        <pt x="392" y="-260" on="0"/>
        <pt x="147" y="-260" on="0"/>
        <pt x="31" y="-185" on="0"/>
        <pt x="31" y="-123" on="1"/>
        <pt x="31" y="-83" on="0"/>
        <pt x="89" y="-9" on="0"/>
        <pt x="145" y="6" on="1"/>
        <pt x="75" y="32" on="0"/>
        <pt x="75" y="79" on="1"/>
        <pt x="75" y="112" on="0"/>
        <pt x="143" y="154" on="0"/>
        <pt x="185" y="155" on="1"/>
        <pt x="118" y="173" on="0"/>
        <pt x="45" y="262" on="0"/>
        <pt x="45" y="322" on="1"/>
        <pt x="45" y="399" on="0"/>
        <pt x="167" y="499" on="0"/>
        <pt x="270" y="499" on="1"/>
        <pt x="306" y="499" on="0"/>
      </contour>
      <contour>
        <pt x="138" y="-112" on="1"/>
        <pt x="138" y="-167" on="0"/>
        <pt x="204" y="-228" on="0"/>
        <pt x="337" y="-228" on="0"/>
        <pt x="436" y="-158" on="0"/>
        <pt x="437" y="-62" on="0"/>
        <pt x="382" y="-34" on="0"/>
        <pt x="311" y="-25" on="1"/>
        <pt x="299" y="-24" on="1"/>
        <pt x="220" y="-14" on="0"/>
        <pt x="189" y="-9" on="1"/>
        <pt x="167" y="-21" on="0"/>
        <pt x="138" y="-79" on="0"/>
      </contour>
      <contour>
        <pt x="263" y="167" on="1"/>
        <pt x="310" y="167" on="0"/>
        <pt x="356" y="253" on="0"/>
        <pt x="356" y="322" on="1"/>
        <pt x="356" y="477" on="0"/>
        <pt x="270" y="477" on="1"/>
        <pt x="223" y="477" on="0"/>
        <pt x="177" y="394" on="0"/>
        <pt x="177" y="322" on="1"/>
        <pt x="177" y="167" on="0"/>
      </contour>
    </TTGlyph>
    <TTGlyph name="germandbls" xMin="24" yMin="-10" xMax="624" yMax="780">
      <contour>
        <pt x="624" y="71" on="0"/>
        <pt x="523" y="-10" on="0"/>
        <pt x="368" y="-10" on="0"/>
        <pt x="265" y="29" on="0"/>
        <pt x="265" y="72" on="1"/>
        <pt x="265" y="100" on="0"/>
        <pt x="304" y="136" on="0"/>
        <pt x="339" y="137" on="1"/>
        <pt x="346" y="15" on="0"/>
        <pt x="446" y="15" on="1"/>
        <pt x="476" y="15" on="0"/>
        <pt x="521" y="60" on="0"/>
        <pt x="521" y="148" on="0"/>
        <pt x="468" y="195" on="0"/>
        <pt x="388" y="229" on="0"/>
        <pt x="351" y="249" on="0"/>
        <pt x="326" y="267" on="1"/>
        <pt x="279" y="302" on="0"/>
        <pt x="279" y="365" on="1"/>
        <pt x="279" y="423" on="0"/>
        <pt x="337" y="469" on="1"/>
        <pt x="361" y="488" on="0"/>
        <pt x="386" y="508" on="1"/>
        <pt x="444" y="556" on="0"/>
        <pt x="444" y="632" on="1"/>
        <pt x="444" y="751" on="0"/>
        <pt x="341" y="751" on="1"/>
        <pt x="224" y="751" on="0"/>
        <pt x="224" y="470" on="1"/>
        <pt x="224" y="0" on="1"/>
        <pt x="28" y="0" on="1"/>
        <pt x="28" y="23" on="1"/>
        <pt x="96" y="29" on="1"/>
        <pt x="96" y="456" on="1"/>
        <pt x="24" y="456" on="1"/>
        <pt x="24" y="488" on="1"/>
        <pt x="96" y="488" on="1"/>
        <pt x="96" y="499" on="1"/>
        <pt x="96" y="780" on="0"/>
        <pt x="347" y="780" on="1"/>
        <pt x="461" y="780" on="0"/>
        <pt x="573" y="699" on="0"/>
        <pt x="573" y="630" on="1"/>
        <pt x="573" y="588" on="0"/>
        <pt x="542" y="558" on="1"/>
        <pt x="521" y="540" on="0"/>
        <pt x="446" y="490" on="0"/>
        <pt x="414" y="465" on="0"/>
        <pt x="384" y="415" on="0"/>
        <pt x="384" y="386" on="1"/>
        <pt x="387" y="343" on="0"/>
        <pt x="432" y="300" on="0"/>
        <pt x="513" y="270" on="0"/>
        <pt x="550" y="253" on="0"/>
        <pt x="576" y="236" on="1"/>
        <pt x="624" y="202" on="0"/>
      </contour>
    </TTGlyph>
    <TTGlyph name="grave" xMin="95" yMin="551" xMax="286" yMax="763">
      <contour>
        <pt x="95" y="696" on="1"/>
        <pt x="95" y="720" on="0"/>
        <pt x="150" y="763" on="1"/>
        <pt x="256" y="621" on="0"/>
        <pt x="286" y="578" on="1"/>
        <pt x="278" y="567" on="0"/>
        <pt x="262" y="551" on="1"/>
        <pt x="202" y="592" on="0"/>
        <pt x="112" y="666" on="1"/>
        <pt x="95" y="680" on="0"/>
      </contour>
    </TTGlyph>
    <TTGlyph name="gravemayuscula" xMin="97" yMin="712" xMax="297" yMax="914">
      <contour>
        <pt x="297" y="741" on="1"/>
        <pt x="291" y="732" on="0"/>
        <pt x="275" y="712" on="1"/>
        <pt x="210" y="749" on="0"/>
        <pt x="117" y="815" on="1"/>
        <pt x="99" y="828" on="0"/>
        <pt x="97" y="843" on="1"/>
        <pt x="96" y="868" on="0"/>
        <pt x="147" y="914" on="1"/>
        <pt x="271" y="773" on="0"/>
      </contour>
    </TTGlyph>
    <TTGlyph name="greater" xMin="56" yMin="-1" xMax="513" yMax="462">
      <contour>
        <pt x="399" y="235" on="1"/>
        <pt x="56" y="390" on="1"/>
        <pt x="92" y="462" on="1"/>
        <pt x="513" y="262" on="1"/>
        <pt x="513" y="201" on="1"/>
        <pt x="94" y="-1" on="1"/>
        <pt x="56" y="73" on="1"/>
      </contour>
    </TTGlyph>
    <TTGlyph name="guillemotleft" xMin="32" yMin="43" xMax="453" yMax="426">
      <contour>
        <pt x="453" y="377" on="1"/>
        <pt x="453" y="325" on="0"/>
        <pt x="341" y="234" on="1"/>
        <pt x="395" y="193" on="0"/>
        <pt x="449" y="117" on="0"/>
        <pt x="449" y="94" on="1"/>
        <pt x="449" y="62" on="0"/>
        <pt x="409" y="43" on="1"/>
        <pt x="369" y="122" on="0"/>
        <pt x="246" y="220" on="1"/>
        <pt x="229" y="233" on="1"/>
        <pt x="316" y="305" on="0"/>
        <pt x="343" y="334" on="1"/>
        <pt x="381" y="374" on="0"/>
        <pt x="413" y="414" on="1"/>
        <pt x="422" y="426" on="1"/>
        <pt x="453" y="405" on="0"/>
      </contour>
      <contour>
        <pt x="256" y="377" on="1"/>
        <pt x="256" y="325" on="0"/>
        <pt x="144" y="234" on="1"/>
        <pt x="198" y="193" on="0"/>
        <pt x="252" y="117" on="0"/>
        <pt x="252" y="94" on="1"/>
        <pt x="252" y="62" on="0"/>
        <pt x="212" y="43" on="1"/>
        <pt x="172" y="122" on="0"/>
        <pt x="49" y="220" on="1"/>
        <pt x="32" y="233" on="1"/>
        <pt x="119" y="305" on="0"/>
        <pt x="146" y="334" on="1"/>
        <pt x="184" y="374" on="0"/>
        <pt x="216" y="414" on="1"/>
        <pt x="225" y="426" on="1"/>
        <pt x="256" y="405" on="0"/>
      </contour>
    </TTGlyph>
    <TTGlyph name="guillemotright" xMin="64" yMin="43" xMax="485" yMax="426">
      <contour>
        <pt x="108" y="43" on="1"/>
        <pt x="68" y="62" on="0"/>
        <pt x="68" y="127" on="0"/>
        <pt x="140" y="206" on="0"/>
        <pt x="176" y="234" on="1"/>
        <pt x="64" y="325" on="0"/>
        <pt x="64" y="377" on="1"/>
        <pt x="64" y="405" on="0"/>
        <pt x="95" y="426" on="1"/>
        <pt x="158" y="340" on="0"/>
        <pt x="265" y="252" on="1"/>
        <pt x="288" y="233" on="1"/>
        <pt x="192" y="158" on="0"/>
        <pt x="142" y="95" on="1"/>
        <pt x="123" y="70" on="0"/>
        <pt x="116" y="56" on="1"/>
      </contour>
      <contour>
        <pt x="305" y="43" on="1"/>
        <pt x="265" y="62" on="0"/>
        <pt x="265" y="127" on="0"/>
        <pt x="337" y="206" on="0"/>
        <pt x="373" y="234" on="1"/>
        <pt x="261" y="325" on="0"/>
        <pt x="261" y="377" on="1"/>
        <pt x="261" y="405" on="0"/>
        <pt x="292" y="426" on="1"/>
        <pt x="355" y="340" on="0"/>
        <pt x="462" y="252" on="1"/>
        <pt x="485" y="233" on="1"/>
        <pt x="389" y="158" on="0"/>
        <pt x="340" y="95" on="1"/>
        <pt x="320" y="70" on="0"/>
        <pt x="312" y="56" on="1"/>
      </contour>
    </TTGlyph>
    <TTGlyph name="guilsinglleft" xMin="32" yMin="43" xMax="256" yMax="426">
      <contour>
        <pt x="256" y="377" on="1"/>
        <pt x="256" y="325" on="0"/>
        <pt x="144" y="234" on="1"/>
        <pt x="198" y="193" on="0"/>
        <pt x="252" y="117" on="0"/>
        <pt x="252" y="94" on="1"/>
        <pt x="252" y="62" on="0"/>
        <pt x="212" y="43" on="1"/>
        <pt x="172" y="122" on="0"/>
        <pt x="49" y="220" on="1"/>
        <pt x="32" y="233" on="1"/>
        <pt x="119" y="305" on="0"/>
        <pt x="146" y="334" on="1"/>
        <pt x="184" y="374" on="0"/>
        <pt x="216" y="414" on="1"/>
        <pt x="225" y="426" on="1"/>
        <pt x="256" y="405" on="0"/>
      </contour>
    </TTGlyph>
    <TTGlyph name="guilsinglright" xMin="64" yMin="43" xMax="288" yMax="426">
      <contour>
        <pt x="108" y="43" on="1"/>
        <pt x="68" y="62" on="0"/>
        <pt x="68" y="127" on="0"/>
        <pt x="140" y="206" on="0"/>
        <pt x="176" y="234" on="1"/>
        <pt x="64" y="325" on="0"/>
        <pt x="64" y="377" on="1"/>
        <pt x="64" y="405" on="0"/>
        <pt x="95" y="426" on="1"/>
        <pt x="158" y="340" on="0"/>
        <pt x="265" y="252" on="1"/>
        <pt x="288" y="233" on="1"/>
        <pt x="192" y="158" on="0"/>
        <pt x="142" y="95" on="1"/>
        <pt x="123" y="70" on="0"/>
        <pt x="116" y="56" on="1"/>
      </contour>
    </TTGlyph>
    <TTGlyph name="h" xMin="-2" yMin="0" xMax="606" yMax="768">
      <contour>
        <pt x="412" y="29" on="1"/>
        <pt x="418" y="346" on="1"/>
        <pt x="418" y="405" on="0"/>
        <pt x="388" y="459" on="0"/>
        <pt x="298" y="459" on="0"/>
        <pt x="211" y="349" on="0"/>
        <pt x="211" y="309" on="1"/>
        <pt x="211" y="29" on="1"/>
        <pt x="286" y="23" on="1"/>
        <pt x="286" y="0" on="1"/>
        <pt x="18" y="0" on="1"/>
        <pt x="18" y="23" on="1"/>
        <pt x="84" y="29" on="1"/>
        <pt x="84" y="718" on="1"/>
        <pt x="-2" y="721" on="1"/>
        <pt x="-2" y="745" on="1"/>
        <pt x="212" y="768" on="1"/>
        <pt x="212" y="544" on="1"/>
        <pt x="212" y="431" on="0"/>
        <pt x="206" y="391" on="1"/>
        <pt x="212" y="391" on="1"/>
        <pt x="239" y="441" on="0"/>
        <pt x="331" y="495" on="0"/>
        <pt x="384" y="495" on="1"/>
        <pt x="544" y="495" on="0"/>
        <pt x="544" y="341" on="1"/>
        <pt x="544" y="230" on="0"/>
        <pt x="537" y="29" on="1"/>
        <pt x="606" y="23" on="1"/>
        <pt x="606" y="0" on="1"/>
        <pt x="364" y="0" on="1"/>
        <pt x="364" y="23" on="1"/>
      </contour>
    </TTGlyph>
    <TTGlyph name="hungarumlaut" xMin="32" yMin="551" xMax="404" yMax="763">
      <contour>
        <pt x="223" y="696" on="1"/>
        <pt x="223" y="680" on="0"/>
        <pt x="206" y="666" on="1"/>
        <pt x="116" y="592" on="0"/>
        <pt x="56" y="551" on="1"/>
        <pt x="40" y="567" on="0"/>
        <pt x="32" y="578" on="1"/>
        <pt x="62" y="621" on="0"/>
        <pt x="168" y="763" on="1"/>
        <pt x="223" y="720" on="0"/>
      </contour>
      <contour>
        <pt x="404" y="696" on="1"/>
        <pt x="404" y="680" on="0"/>
        <pt x="387" y="666" on="1"/>
        <pt x="297" y="592" on="0"/>
        <pt x="237" y="551" on="1"/>
        <pt x="221" y="567" on="0"/>
        <pt x="213" y="578" on="1"/>
        <pt x="243" y="621" on="0"/>
        <pt x="349" y="763" on="1"/>
        <pt x="404" y="720" on="0"/>
      </contour>
    </TTGlyph>
    <TTGlyph name="hyphen" xMin="62" yMin="223" xMax="352" yMax="301">
      <contour>
        <pt x="352" y="301" on="1"/>
        <pt x="352" y="223" on="1"/>
        <pt x="62" y="223" on="1"/>
        <pt x="62" y="301" on="1"/>
      </contour>
    </TTGlyph>
    <TTGlyph name="i" xMin="12" yMin="0" xMax="291" yMax="739">
      <contour>
        <pt x="291" y="0" on="1"/>
        <pt x="33" y="0" on="1"/>
        <pt x="33" y="23" on="1"/>
        <pt x="98" y="29" on="1"/>
        <pt x="98" y="455" on="1"/>
        <pt x="12" y="460" on="1"/>
        <pt x="12" y="481" on="1"/>
        <pt x="226" y="494" on="1"/>
        <pt x="226" y="29" on="1"/>
        <pt x="291" y="23" on="1"/>
      </contour>
      <contour>
        <pt x="233" y="632" on="0"/>
        <pt x="190" y="588" on="0"/>
        <pt x="126" y="588" on="0"/>
        <pt x="83" y="631" on="0"/>
        <pt x="83" y="694" on="0"/>
        <pt x="127" y="739" on="0"/>
        <pt x="189" y="739" on="0"/>
        <pt x="233" y="693" on="0"/>
      </contour>
    </TTGlyph>
    <TTGlyph name="iacute" xMin="12" yMin="0" xMax="291" yMax="763">
      <contour>
        <pt x="279" y="696" on="1"/>
        <pt x="279" y="680" on="0"/>
        <pt x="262" y="666" on="1"/>
        <pt x="172" y="592" on="0"/>
        <pt x="112" y="551" on="1"/>
        <pt x="95" y="567" on="0"/>
        <pt x="88" y="578" on="1"/>
        <pt x="118" y="621" on="0"/>
        <pt x="224" y="763" on="1"/>
        <pt x="279" y="720" on="0"/>
      </contour>
      <contour>
        <pt x="291" y="0" on="1"/>
        <pt x="33" y="0" on="1"/>
        <pt x="33" y="23" on="1"/>
        <pt x="98" y="29" on="1"/>
        <pt x="98" y="455" on="1"/>
        <pt x="12" y="460" on="1"/>
        <pt x="12" y="481" on="1"/>
        <pt x="226" y="494" on="1"/>
        <pt x="226" y="29" on="1"/>
        <pt x="291" y="23" on="1"/>
      </contour>
    </TTGlyph>
    <TTGlyph name="icircumflex" xMin="-5" yMin="0" xMax="318" yMax="741">
      <contour>
        <pt x="-5" y="555" on="1"/>
        <pt x="126" y="741" on="1"/>
        <pt x="188" y="741" on="1"/>
        <pt x="318" y="555" on="1"/>
        <pt x="287" y="536" on="1"/>
        <pt x="157" y="652" on="1"/>
        <pt x="26" y="536" on="1"/>
      </contour>
      <contour>
        <pt x="291" y="0" on="1"/>
        <pt x="33" y="0" on="1"/>
        <pt x="33" y="23" on="1"/>
        <pt x="98" y="29" on="1"/>
        <pt x="98" y="455" on="1"/>
        <pt x="12" y="460" on="1"/>
        <pt x="12" y="481" on="1"/>
        <pt x="226" y="494" on="1"/>
        <pt x="226" y="29" on="1"/>
        <pt x="291" y="23" on="1"/>
      </contour>
    </TTGlyph>
    <TTGlyph name="idieresis" xMin="-13" yMin="0" xMax="310" yMax="700">
      <contour>
        <pt x="125" y="602" on="0"/>
        <pt x="84" y="562" on="0"/>
        <pt x="25" y="562" on="0"/>
        <pt x="-13" y="600" on="0"/>
        <pt x="-13" y="658" on="0"/>
        <pt x="26" y="700" on="0"/>
        <pt x="84" y="700" on="0"/>
        <pt x="125" y="658" on="0"/>
      </contour>
      <contour>
        <pt x="310" y="602" on="0"/>
        <pt x="270" y="562" on="0"/>
        <pt x="210" y="562" on="0"/>
        <pt x="172" y="600" on="0"/>
        <pt x="172" y="659" on="0"/>
        <pt x="211" y="700" on="0"/>
        <pt x="270" y="700" on="0"/>
        <pt x="310" y="658" on="0"/>
      </contour>
      <contour>
        <pt x="291" y="0" on="1"/>
        <pt x="33" y="0" on="1"/>
        <pt x="33" y="23" on="1"/>
        <pt x="98" y="29" on="1"/>
        <pt x="98" y="455" on="1"/>
        <pt x="12" y="460" on="1"/>
        <pt x="12" y="481" on="1"/>
        <pt x="226" y="494" on="1"/>
        <pt x="226" y="29" on="1"/>
        <pt x="291" y="23" on="1"/>
      </contour>
    </TTGlyph>
    <TTGlyph name="igrave" xMin="12" yMin="0" xMax="291" yMax="763">
      <contour>
        <pt x="17" y="696" on="1"/>
        <pt x="17" y="720" on="0"/>
        <pt x="72" y="763" on="1"/>
        <pt x="178" y="621" on="0"/>
        <pt x="208" y="578" on="1"/>
        <pt x="201" y="567" on="0"/>
        <pt x="184" y="551" on="1"/>
        <pt x="124" y="592" on="0"/>
        <pt x="34" y="666" on="1"/>
        <pt x="17" y="680" on="0"/>
      </contour>
      <contour>
        <pt x="291" y="0" on="1"/>
        <pt x="33" y="0" on="1"/>
        <pt x="33" y="23" on="1"/>
        <pt x="98" y="29" on="1"/>
        <pt x="98" y="455" on="1"/>
        <pt x="12" y="460" on="1"/>
        <pt x="12" y="481" on="1"/>
        <pt x="226" y="494" on="1"/>
        <pt x="226" y="29" on="1"/>
        <pt x="291" y="23" on="1"/>
      </contour>
    </TTGlyph>
    <TTGlyph name="j" xMin="-165" yMin="-262" xMax="227" yMax="739">
      <contour>
        <pt x="219" y="4" on="1"/>
        <pt x="219" y="-129" on="0"/>
        <pt x="100" y="-262" on="0"/>
        <pt x="-11" y="-262" on="1"/>
        <pt x="-80" y="-262" on="0"/>
        <pt x="-165" y="-217" on="0"/>
        <pt x="-165" y="-168" on="1"/>
        <pt x="-165" y="-132" on="0"/>
        <pt x="-129" y="-112" on="1"/>
        <pt x="-110" y="-102" on="0"/>
        <pt x="-75" y="-102" on="0"/>
        <pt x="-59" y="-110" on="1"/>
        <pt x="-65" y="-136" on="0"/>
        <pt x="-65" y="-191" on="0"/>
        <pt x="-34" y="-235" on="0"/>
        <pt x="18" y="-235" on="0"/>
        <pt x="52" y="-214" on="0"/>
        <pt x="72" y="-171" on="0"/>
        <pt x="85" y="-129" on="0"/>
        <pt x="88" y="-96" on="1"/>
        <pt x="91" y="-49" on="0"/>
        <pt x="91" y="13" on="1"/>
        <pt x="91" y="455" on="1"/>
        <pt x="5" y="460" on="1"/>
        <pt x="5" y="481" on="1"/>
        <pt x="219" y="494" on="1"/>
      </contour>
      <contour>
        <pt x="227" y="632" on="0"/>
        <pt x="184" y="588" on="0"/>
        <pt x="120" y="588" on="0"/>
        <pt x="77" y="631" on="0"/>
        <pt x="77" y="694" on="0"/>
        <pt x="121" y="739" on="0"/>
        <pt x="183" y="739" on="0"/>
        <pt x="227" y="693" on="0"/>
      </contour>
    </TTGlyph>
    <TTGlyph name="k" xMin="-3" yMin="0" xMax="586" yMax="768">
      <contour>
        <pt x="359" y="488" on="1"/>
        <pt x="555" y="488" on="1"/>
        <pt x="555" y="462" on="1"/>
        <pt x="481" y="443" on="1"/>
        <pt x="297" y="289" on="1"/>
        <pt x="519" y="30" on="1"/>
        <pt x="586" y="23" on="1"/>
        <pt x="586" y="0" on="1"/>
        <pt x="331" y="0" on="1"/>
        <pt x="331" y="23" on="1"/>
        <pt x="387" y="29" on="1"/>
        <pt x="211" y="231" on="1"/>
        <pt x="211" y="30" on="1"/>
        <pt x="266" y="23" on="1"/>
        <pt x="266" y="0" on="1"/>
        <pt x="18" y="0" on="1"/>
        <pt x="18" y="23" on="1"/>
        <pt x="83" y="29" on="1"/>
        <pt x="83" y="720" on="1"/>
        <pt x="-3" y="726" on="1"/>
        <pt x="-3" y="751" on="1"/>
        <pt x="211" y="768" on="1"/>
        <pt x="211" y="259" on="1"/>
        <pt x="424" y="443" on="1"/>
        <pt x="359" y="462" on="1"/>
      </contour>
    </TTGlyph>
    <TTGlyph name="l" xMin="-1" yMin="0" xMax="278" yMax="768">
      <contour>
        <pt x="278" y="0" on="1"/>
        <pt x="20" y="0" on="1"/>
        <pt x="20" y="23" on="1"/>
        <pt x="85" y="29" on="1"/>
        <pt x="85" y="718" on="1"/>
        <pt x="-1" y="721" on="1"/>
        <pt x="-1" y="745" on="1"/>
        <pt x="213" y="768" on="1"/>
        <pt x="213" y="29" on="1"/>
        <pt x="278" y="23" on="1"/>
      </contour>
    </TTGlyph>
    <TTGlyph name="less" xMin="39" yMin="-1" xMax="496" yMax="462">
      <contour>
        <pt x="496" y="390" on="1"/>
        <pt x="153" y="235" on="1"/>
        <pt x="496" y="73" on="1"/>
        <pt x="458" y="-1" on="1"/>
        <pt x="39" y="201" on="1"/>
        <pt x="39" y="262" on="1"/>
        <pt x="460" y="462" on="1"/>
      </contour>
    </TTGlyph>
    <TTGlyph name="logicalnot" xMin="71" yMin="136" xMax="522" yMax="330">
      <contour>
        <pt x="451" y="136" on="1"/>
        <pt x="451" y="265" on="1"/>
        <pt x="71" y="265" on="1"/>
        <pt x="71" y="330" on="1"/>
        <pt x="521" y="330" on="1"/>
        <pt x="522" y="136" on="1"/>
      </contour>
    </TTGlyph>
    <TTGlyph name="m" xMin="15" yMin="0" xMax="940" yMax="495">
      <contour>
        <pt x="421" y="29" on="1"/>
        <pt x="427" y="346" on="1"/>
        <pt x="427" y="405" on="0"/>
        <pt x="398" y="459" on="0"/>
        <pt x="311" y="459" on="0"/>
        <pt x="227" y="354" on="0"/>
        <pt x="224" y="312" on="1"/>
        <pt x="224" y="29" on="1"/>
        <pt x="299" y="23" on="1"/>
        <pt x="299" y="0" on="1"/>
        <pt x="31" y="0" on="1"/>
        <pt x="31" y="23" on="1"/>
        <pt x="97" y="29" on="1"/>
        <pt x="97" y="455" on="1"/>
        <pt x="15" y="459" on="1"/>
        <pt x="15" y="480" on="1"/>
        <pt x="220" y="492" on="1"/>
        <pt x="215" y="390" on="1"/>
        <pt x="225" y="390" on="1"/>
        <pt x="282" y="495" on="0"/>
        <pt x="393" y="495" on="1"/>
        <pt x="526" y="495" on="0"/>
        <pt x="548" y="390" on="1"/>
        <pt x="575" y="440" on="0"/>
        <pt x="665" y="495" on="0"/>
        <pt x="718" y="495" on="1"/>
        <pt x="878" y="495" on="0"/>
        <pt x="878" y="341" on="1"/>
        <pt x="878" y="297" on="0"/>
        <pt x="871" y="29" on="1"/>
        <pt x="940" y="23" on="1"/>
        <pt x="940" y="0" on="1"/>
        <pt x="698" y="0" on="1"/>
        <pt x="698" y="23" on="1"/>
        <pt x="746" y="29" on="1"/>
        <pt x="752" y="346" on="1"/>
        <pt x="752" y="405" on="0"/>
        <pt x="722" y="459" on="0"/>
        <pt x="641" y="459" on="0"/>
        <pt x="569" y="383" on="0"/>
        <pt x="553" y="339" on="1"/>
        <pt x="553" y="295" on="0"/>
        <pt x="546" y="29" on="1"/>
        <pt x="615" y="23" on="1"/>
        <pt x="615" y="0" on="1"/>
        <pt x="373" y="0" on="1"/>
        <pt x="373" y="23" on="1"/>
      </contour>
    </TTGlyph>
    <TTGlyph name="macron" xMin="109" yMin="601" xMax="448" yMax="666">
      <contour>
        <pt x="448" y="666" on="1"/>
        <pt x="448" y="601" on="1"/>
        <pt x="109" y="601" on="1"/>
        <pt x="109" y="666" on="1"/>
      </contour>
    </TTGlyph>
    <TTGlyph name="minus" xMin="70" yMin="223" xMax="360" yMax="301">
      <contour>
        <pt x="360" y="301" on="1"/>
        <pt x="360" y="223" on="1"/>
        <pt x="70" y="223" on="1"/>
        <pt x="70" y="301" on="1"/>
      </contour>
    </TTGlyph>
    <TTGlyph name="mu" xMin="49" yMin="-243" xMax="650" yMax="496">
      <contour>
        <pt x="152" y="-13" on="1"/>
        <pt x="152" y="-47" on="0"/>
        <pt x="193" y="-153" on="0"/>
        <pt x="193" y="-170" on="1"/>
        <pt x="193" y="-208" on="0"/>
        <pt x="157" y="-243" on="0"/>
        <pt x="130" y="-243" on="1"/>
        <pt x="72" y="-243" on="0"/>
        <pt x="72" y="-170" on="1"/>
        <pt x="72" y="-152" on="0"/>
        <pt x="112" y="-47" on="0"/>
        <pt x="112" y="-13" on="1"/>
        <pt x="112" y="298" on="0"/>
        <pt x="123" y="456" on="1"/>
        <pt x="49" y="460" on="1"/>
        <pt x="49" y="483" on="1"/>
        <pt x="248" y="494" on="1"/>
        <pt x="238" y="268" on="0"/>
        <pt x="238" y="139" on="1"/>
        <pt x="238" y="80" on="0"/>
        <pt x="267" y="26" on="0"/>
        <pt x="355" y="26" on="0"/>
        <pt x="441" y="136" on="0"/>
        <pt x="441" y="176" on="1"/>
        <pt x="441" y="456" on="1"/>
        <pt x="362" y="460" on="1"/>
        <pt x="362" y="483" on="1"/>
        <pt x="569" y="496" on="1"/>
        <pt x="569" y="32" on="1"/>
        <pt x="650" y="28" on="1"/>
        <pt x="650" y="5" on="1"/>
        <pt x="445" y="-7" on="1"/>
        <pt x="450" y="93" on="1"/>
        <pt x="440" y="93" on="1"/>
        <pt x="382" y="-10" on="0"/>
        <pt x="272" y="-10" on="1"/>
        <pt x="195" y="-10" on="0"/>
        <pt x="152" y="30" on="1"/>
      </contour>
    </TTGlyph>
    <TTGlyph name="multiply" xMin="51" yMin="21" xMax="523" yMax="471">
      <contour>
        <pt x="463" y="470" on="1"/>
        <pt x="515" y="419" on="1"/>
        <pt x="342" y="250" on="1"/>
        <pt x="523" y="75" on="1"/>
        <pt x="467" y="21" on="1"/>
        <pt x="286" y="195" on="1"/>
        <pt x="104" y="23" on="1"/>
        <pt x="51" y="74" on="1"/>
        <pt x="232" y="246" on="1"/>
        <pt x="55" y="417" on="1"/>
        <pt x="111" y="471" on="1"/>
        <pt x="289" y="300" on="1"/>
      </contour>
    </TTGlyph>
    <TTGlyph name="n" xMin="15" yMin="0" xMax="619" yMax="495">
      <contour>
        <pt x="425" y="29" on="1"/>
        <pt x="431" y="346" on="1"/>
        <pt x="431" y="405" on="0"/>
        <pt x="401" y="459" on="0"/>
        <pt x="311" y="459" on="0"/>
        <pt x="226" y="352" on="0"/>
        <pt x="224" y="313" on="1"/>
        <pt x="224" y="29" on="1"/>
        <pt x="299" y="23" on="1"/>
        <pt x="299" y="0" on="1"/>
        <pt x="31" y="0" on="1"/>
        <pt x="31" y="23" on="1"/>
        <pt x="97" y="29" on="1"/>
        <pt x="97" y="455" on="1"/>
        <pt x="15" y="459" on="1"/>
        <pt x="15" y="480" on="1"/>
        <pt x="220" y="492" on="1"/>
        <pt x="215" y="390" on="1"/>
        <pt x="225" y="390" on="1"/>
        <pt x="252" y="440" on="0"/>
        <pt x="344" y="495" on="0"/>
        <pt x="397" y="495" on="1"/>
        <pt x="557" y="495" on="0"/>
        <pt x="557" y="341" on="1"/>
        <pt x="557" y="230" on="0"/>
        <pt x="550" y="29" on="1"/>
        <pt x="619" y="23" on="1"/>
        <pt x="619" y="0" on="1"/>
        <pt x="377" y="0" on="1"/>
        <pt x="377" y="23" on="1"/>
      </contour>
    </TTGlyph>
    <TTGlyph name="nine" xMin="45" yMin="-192" xMax="529" yMax="502">
      <contour>
        <pt x="163" y="-22" on="1"/>
        <pt x="160" y="-38" on="0"/>
        <pt x="160" y="-88" on="0"/>
        <pt x="178" y="-119" on="1"/>
        <pt x="203" y="-164" on="0"/>
        <pt x="256" y="-164" on="1"/>
        <pt x="324" y="-164" on="0"/>
        <pt x="355" y="-96" on="1"/>
        <pt x="386" y="-27" on="0"/>
        <pt x="392" y="36" on="1"/>
        <pt x="399" y="123" on="0"/>
        <pt x="399" y="200" on="1"/>
        <pt x="399" y="473" on="0"/>
        <pt x="283" y="473" on="1"/>
        <pt x="233" y="473" on="0"/>
        <pt x="176" y="381" on="0"/>
        <pt x="176" y="302" on="1"/>
        <pt x="176" y="145" on="0"/>
        <pt x="282" y="145" on="1"/>
        <pt x="312" y="145" on="0"/>
        <pt x="369" y="165" on="1"/>
        <pt x="380" y="135" on="1"/>
        <pt x="318" y="97" on="0"/>
        <pt x="159" y="97" on="0"/>
        <pt x="45" y="193" on="0"/>
        <pt x="45" y="380" on="0"/>
        <pt x="175" y="502" on="0"/>
        <pt x="409" y="502" on="0"/>
        <pt x="529" y="338" on="0"/>
        <pt x="529" y="193" on="1"/>
        <pt x="529" y="10" on="0"/>
        <pt x="382" y="-192" on="0"/>
        <pt x="255" y="-192" on="1"/>
        <pt x="173" y="-192" on="0"/>
        <pt x="60" y="-126" on="0"/>
        <pt x="60" y="-71" on="1"/>
        <pt x="60" y="-40" on="0"/>
        <pt x="94" y="-12" on="0"/>
        <pt x="114" y="-12" on="1"/>
        <pt x="136" y="-12" on="0"/>
      </contour>
    </TTGlyph>
    <TTGlyph name="ntilde" xMin="15" yMin="0" xMax="619" yMax="686">
      <contour>
        <pt x="431" y="346" on="1"/>
        <pt x="431" y="405" on="0"/>
        <pt x="401" y="459" on="0"/>
        <pt x="311" y="459" on="0"/>
        <pt x="224" y="349" on="0"/>
        <pt x="224" y="309" on="1"/>
        <pt x="224" y="29" on="1"/>
        <pt x="299" y="23" on="1"/>
        <pt x="299" y="0" on="1"/>
        <pt x="31" y="0" on="1"/>
        <pt x="31" y="23" on="1"/>
        <pt x="97" y="29" on="1"/>
        <pt x="97" y="455" on="1"/>
        <pt x="15" y="459" on="1"/>
        <pt x="15" y="480" on="1"/>
        <pt x="220" y="492" on="1"/>
        <pt x="215" y="390" on="1"/>
        <pt x="225" y="390" on="1"/>
        <pt x="252" y="440" on="0"/>
        <pt x="344" y="495" on="0"/>
        <pt x="397" y="495" on="1"/>
        <pt x="557" y="495" on="0"/>
        <pt x="557" y="341" on="1"/>
        <pt x="557" y="230" on="0"/>
        <pt x="550" y="29" on="1"/>
        <pt x="619" y="23" on="1"/>
        <pt x="619" y="0" on="1"/>
        <pt x="377" y="0" on="1"/>
        <pt x="377" y="23" on="1"/>
        <pt x="425" y="29" on="1"/>
      </contour>
      <contour>
        <pt x="475" y="615" on="0"/>
        <pt x="418" y="552" on="0"/>
        <pt x="343" y="552" on="0"/>
        <pt x="295" y="581" on="1"/>
        <pt x="250" y="613" on="0"/>
        <pt x="202" y="613" on="0"/>
        <pt x="169" y="589" on="0"/>
        <pt x="165" y="574" on="1"/>
        <pt x="138" y="574" on="1"/>
        <pt x="144" y="624" on="0"/>
        <pt x="200" y="686" on="0"/>
        <pt x="281" y="686" on="0"/>
        <pt x="328" y="656" on="1"/>
        <pt x="373" y="625" on="0"/>
        <pt x="417" y="625" on="0"/>
        <pt x="451" y="650" on="0"/>
        <pt x="454" y="665" on="1"/>
        <pt x="481" y="665" on="1"/>
      </contour>
    </TTGlyph>
    <TTGlyph name="numbersign" xMin="36" yMin="0" xMax="686" yMax="668">
      <contour>
        <pt x="686" y="473" on="1"/>
        <pt x="672" y="396" on="1"/>
        <pt x="524" y="396" on="1"/>
        <pt x="500" y="271" on="1"/>
        <pt x="648" y="271" on="1"/>
        <pt x="635" y="193" on="1"/>
        <pt x="487" y="193" on="1"/>
        <pt x="450" y="0" on="1"/>
        <pt x="373" y="0" on="1"/>
        <pt x="408" y="193" on="1"/>
        <pt x="277" y="193" on="1"/>
        <pt x="240" y="0" on="1"/>
        <pt x="163" y="0" on="1"/>
        <pt x="198" y="193" on="1"/>
        <pt x="36" y="193" on="1"/>
        <pt x="50" y="271" on="1"/>
        <pt x="211" y="271" on="1"/>
        <pt x="235" y="396" on="1"/>
        <pt x="74" y="396" on="1"/>
        <pt x="88" y="473" on="1"/>
        <pt x="247" y="473" on="1"/>
        <pt x="284" y="668" on="1"/>
        <pt x="360" y="668" on="1"/>
        <pt x="326" y="473" on="1"/>
        <pt x="457" y="473" on="1"/>
        <pt x="494" y="668" on="1"/>
        <pt x="570" y="668" on="1"/>
        <pt x="536" y="473" on="1"/>
      </contour>
      <contour>
        <pt x="445" y="396" on="1"/>
        <pt x="314" y="396" on="1"/>
        <pt x="290" y="271" on="1"/>
        <pt x="421" y="271" on="1"/>
      </contour>
    </TTGlyph>
    <TTGlyph name="o" xMin="39" yMin="-11" xMax="561" yMax="499">
      <contour>
        <pt x="421" y="-11" on="0"/>
        <pt x="179" y="-11" on="0"/>
        <pt x="39" y="133" on="0"/>
        <pt x="39" y="355" on="0"/>
        <pt x="179" y="499" on="0"/>
        <pt x="421" y="499" on="0"/>
        <pt x="561" y="355" on="0"/>
        <pt x="561" y="133" on="0"/>
      </contour>
      <contour>
        <pt x="178" y="13" on="0"/>
        <pt x="422" y="13" on="0"/>
        <pt x="422" y="244" on="1"/>
        <pt x="422" y="357" on="0"/>
        <pt x="368" y="474" on="0"/>
        <pt x="232" y="474" on="0"/>
        <pt x="178" y="357" on="0"/>
        <pt x="178" y="244" on="1"/>
      </contour>
    </TTGlyph>
    <TTGlyph name="oacute" xMin="39" yMin="-11" xMax="561" yMax="763">
      <contour>
        <pt x="421" y="-11" on="0"/>
        <pt x="179" y="-11" on="0"/>
        <pt x="39" y="133" on="0"/>
        <pt x="39" y="355" on="0"/>
        <pt x="179" y="499" on="0"/>
        <pt x="421" y="499" on="0"/>
        <pt x="561" y="355" on="0"/>
        <pt x="561" y="133" on="0"/>
      </contour>
      <contour>
        <pt x="178" y="13" on="0"/>
        <pt x="422" y="13" on="0"/>
        <pt x="422" y="244" on="1"/>
        <pt x="422" y="357" on="0"/>
        <pt x="368" y="474" on="0"/>
        <pt x="232" y="474" on="0"/>
        <pt x="178" y="357" on="0"/>
        <pt x="178" y="244" on="1"/>
      </contour>
      <contour>
        <pt x="416" y="696" on="1"/>
        <pt x="416" y="680" on="0"/>
        <pt x="399" y="666" on="1"/>
        <pt x="309" y="592" on="0"/>
        <pt x="249" y="551" on="1"/>
        <pt x="233" y="567" on="0"/>
        <pt x="225" y="578" on="1"/>
        <pt x="255" y="621" on="0"/>
        <pt x="361" y="763" on="1"/>
        <pt x="416" y="720" on="0"/>
      </contour>
    </TTGlyph>
    <TTGlyph name="ocircumflex" xMin="39" yMin="-11" xMax="561" yMax="741">
      <contour>
        <pt x="421" y="-11" on="0"/>
        <pt x="179" y="-11" on="0"/>
        <pt x="39" y="133" on="0"/>
        <pt x="39" y="355" on="0"/>
        <pt x="179" y="499" on="0"/>
        <pt x="421" y="499" on="0"/>
        <pt x="561" y="355" on="0"/>
        <pt x="561" y="133" on="0"/>
      </contour>
      <contour>
        <pt x="178" y="13" on="0"/>
        <pt x="422" y="13" on="0"/>
        <pt x="422" y="244" on="1"/>
        <pt x="422" y="357" on="0"/>
        <pt x="368" y="474" on="0"/>
        <pt x="232" y="474" on="0"/>
        <pt x="178" y="357" on="0"/>
        <pt x="178" y="244" on="1"/>
      </contour>
      <contour>
        <pt x="144" y="555" on="1"/>
        <pt x="275" y="741" on="1"/>
        <pt x="337" y="741" on="1"/>
        <pt x="467" y="555" on="1"/>
        <pt x="436" y="536" on="1"/>
        <pt x="306" y="652" on="1"/>
        <pt x="175" y="536" on="1"/>
      </contour>
    </TTGlyph>
    <TTGlyph name="odieresis" xMin="39" yMin="-11" xMax="561" yMax="699">
      <contour>
        <pt x="421" y="-11" on="0"/>
        <pt x="179" y="-11" on="0"/>
        <pt x="39" y="133" on="0"/>
        <pt x="39" y="355" on="0"/>
        <pt x="179" y="499" on="0"/>
        <pt x="421" y="499" on="0"/>
        <pt x="561" y="355" on="0"/>
        <pt x="561" y="133" on="0"/>
      </contour>
      <contour>
        <pt x="178" y="13" on="0"/>
        <pt x="422" y="13" on="0"/>
        <pt x="422" y="244" on="1"/>
        <pt x="422" y="357" on="0"/>
        <pt x="368" y="474" on="0"/>
        <pt x="232" y="474" on="0"/>
        <pt x="178" y="357" on="0"/>
        <pt x="178" y="244" on="1"/>
      </contour>
      <contour>
        <pt x="281" y="601" on="0"/>
        <pt x="240" y="561" on="0"/>
        <pt x="181" y="561" on="0"/>
        <pt x="143" y="599" on="0"/>
        <pt x="143" y="657" on="0"/>
        <pt x="182" y="699" on="0"/>
        <pt x="240" y="699" on="0"/>
        <pt x="281" y="657" on="0"/>
      </contour>
      <contour>
        <pt x="466" y="601" on="0"/>
        <pt x="426" y="561" on="0"/>
        <pt x="366" y="561" on="0"/>
        <pt x="328" y="599" on="0"/>
        <pt x="328" y="658" on="0"/>
        <pt x="367" y="699" on="0"/>
        <pt x="426" y="699" on="0"/>
        <pt x="466" y="657" on="0"/>
      </contour>
    </TTGlyph>
    <TTGlyph name="oe" xMin="39" yMin="-11" xMax="869" yMax="499">
      <contour>
        <pt x="650" y="-11" on="1"/>
        <pt x="545" y="-11" on="0"/>
        <pt x="483" y="69" on="1"/>
        <pt x="415" y="-11" on="0"/>
        <pt x="179" y="-11" on="0"/>
        <pt x="39" y="133" on="0"/>
        <pt x="39" y="355" on="0"/>
        <pt x="179" y="499" on="0"/>
        <pt x="417" y="499" on="0"/>
        <pt x="484" y="417" on="1"/>
        <pt x="551" y="499" on="0"/>
        <pt x="763" y="499" on="0"/>
        <pt x="869" y="408" on="0"/>
        <pt x="869" y="327" on="1"/>
        <pt x="869" y="304" on="0"/>
        <pt x="865" y="279" on="1"/>
        <pt x="548" y="279" on="1"/>
        <pt x="548" y="244" on="1"/>
        <pt x="548" y="132" on="0"/>
        <pt x="604" y="17" on="0"/>
        <pt x="717" y="17" on="0"/>
        <pt x="810" y="64" on="0"/>
        <pt x="836" y="107" on="1"/>
        <pt x="858" y="100" on="0"/>
        <pt x="858" y="86" on="1"/>
        <pt x="858" y="61" on="0"/>
        <pt x="811" y="28" on="1"/>
        <pt x="788" y="12" on="0"/>
        <pt x="703" y="-11" on="0"/>
      </contour>
      <contour>
        <pt x="178" y="13" on="0"/>
        <pt x="422" y="13" on="0"/>
        <pt x="422" y="244" on="1"/>
        <pt x="422" y="357" on="0"/>
        <pt x="368" y="474" on="0"/>
        <pt x="232" y="474" on="0"/>
        <pt x="178" y="357" on="0"/>
        <pt x="178" y="244" on="1"/>
      </contour>
      <contour>
        <pt x="742" y="315" on="1"/>
        <pt x="744" y="349" on="1"/>
        <pt x="744" y="471" on="0"/>
        <pt x="659" y="471" on="1"/>
        <pt x="570" y="471" on="0"/>
        <pt x="551" y="315" on="1"/>
      </contour>
    </TTGlyph>
    <TTGlyph name="ogonek" xMin="52" yMin="-218" xMax="246" yMax="6">
      <contour>
        <pt x="139" y="-218" on="1"/>
        <pt x="52" y="-218" on="0"/>
        <pt x="52" y="-146" on="1"/>
        <pt x="52" y="-117" on="0"/>
        <pt x="88" y="-61" on="0"/>
        <pt x="114" y="-42" on="1"/>
        <pt x="164" y="-5" on="0"/>
        <pt x="203" y="6" on="1"/>
        <pt x="221" y="6" on="1"/>
        <pt x="191" y="-18" on="0"/>
        <pt x="142" y="-94" on="0"/>
        <pt x="142" y="-181" on="0"/>
        <pt x="182" y="-181" on="1"/>
        <pt x="214" y="-181" on="0"/>
        <pt x="236" y="-157" on="1"/>
        <pt x="246" y="-172" on="1"/>
        <pt x="233" y="-191" on="0"/>
        <pt x="171" y="-218" on="0"/>
      </contour>
    </TTGlyph>
    <TTGlyph name="ograve" xMin="39" yMin="-11" xMax="561" yMax="763">
      <contour>
        <pt x="421" y="-11" on="0"/>
        <pt x="179" y="-11" on="0"/>
        <pt x="39" y="133" on="0"/>
        <pt x="39" y="355" on="0"/>
        <pt x="179" y="499" on="0"/>
        <pt x="421" y="499" on="0"/>
        <pt x="561" y="355" on="0"/>
        <pt x="561" y="133" on="0"/>
      </contour>
      <contour>
        <pt x="178" y="13" on="0"/>
        <pt x="422" y="13" on="0"/>
        <pt x="422" y="244" on="1"/>
        <pt x="422" y="357" on="0"/>
        <pt x="368" y="474" on="0"/>
        <pt x="232" y="474" on="0"/>
        <pt x="178" y="357" on="0"/>
        <pt x="178" y="244" on="1"/>
      </contour>
      <contour>
        <pt x="180" y="696" on="1"/>
        <pt x="180" y="720" on="0"/>
        <pt x="235" y="763" on="1"/>
        <pt x="341" y="621" on="0"/>
        <pt x="371" y="578" on="1"/>
        <pt x="364" y="567" on="0"/>
        <pt x="347" y="551" on="1"/>
        <pt x="287" y="592" on="0"/>
        <pt x="197" y="666" on="1"/>
        <pt x="180" y="680" on="0"/>
      </contour>
    </TTGlyph>
    <TTGlyph name="one" xMin="49" yMin="0" xMax="315" yMax="487">
      <contour>
        <pt x="49" y="487" on="1"/>
        <pt x="315" y="487" on="1"/>
        <pt x="315" y="463" on="1"/>
        <pt x="246" y="458" on="1"/>
        <pt x="246" y="29" on="1"/>
        <pt x="315" y="23" on="1"/>
        <pt x="315" y="0" on="1"/>
        <pt x="49" y="0" on="1"/>
        <pt x="49" y="23" on="1"/>
        <pt x="118" y="29" on="1"/>
        <pt x="118" y="459" on="1"/>
        <pt x="49" y="463" on="1"/>
      </contour>
    </TTGlyph>
    <TTGlyph name="onehalf" xMin="35" yMin="-9" xMax="747" yMax="687">
      <contour>
        <pt x="455" y="0" on="1"/>
        <pt x="455" y="39" on="1"/>
        <pt x="524" y="79" on="0"/>
        <pt x="640" y="215" on="0"/>
        <pt x="640" y="378" on="0"/>
        <pt x="588" y="378" on="1"/>
        <pt x="560" y="378" on="0"/>
        <pt x="530" y="327" on="0"/>
        <pt x="530" y="279" on="0"/>
        <pt x="532" y="261" on="1"/>
        <pt x="514" y="252" on="0"/>
        <pt x="488" y="252" on="0"/>
        <pt x="480" y="257" on="1"/>
        <pt x="459" y="268" on="0"/>
        <pt x="459" y="298" on="1"/>
        <pt x="459" y="343" on="0"/>
        <pt x="535" y="398" on="0"/>
        <pt x="644" y="398" on="0"/>
        <pt x="725" y="341" on="0"/>
        <pt x="725" y="233" on="0"/>
        <pt x="653" y="134" on="0"/>
        <pt x="576" y="76" on="0"/>
        <pt x="537" y="55" on="1"/>
        <pt x="709" y="55" on="1"/>
        <pt x="729" y="110" on="1"/>
        <pt x="747" y="110" on="1"/>
        <pt x="741" y="0" on="1"/>
      </contour>
      <contour>
        <pt x="196" y="687" on="1"/>
        <pt x="196" y="326" on="1"/>
        <pt x="253" y="320" on="1"/>
        <pt x="253" y="301" on="1"/>
        <pt x="67" y="301" on="1"/>
        <pt x="67" y="320" on="1"/>
        <pt x="123" y="326" on="1"/>
        <pt x="123" y="617" on="1"/>
        <pt x="48" y="583" on="1"/>
        <pt x="35" y="611" on="1"/>
        <pt x="157" y="687" on="1"/>
      </contour>
      <contour>
        <pt x="589" y="668" on="1"/>
        <pt x="183" y="-9" on="1"/>
        <pt x="113" y="-9" on="1"/>
        <pt x="520" y="668" on="1"/>
      </contour>
    </TTGlyph>
    <TTGlyph name="onequarter" xMin="35" yMin="-9" xMax="704" yMax="687">
      <contour>
        <pt x="549" y="128" on="1"/>
        <pt x="386" y="128" on="1"/>
        <pt x="381" y="147" on="1"/>
        <pt x="571" y="387" on="1"/>
        <pt x="622" y="387" on="1"/>
        <pt x="622" y="165" on="1"/>
        <pt x="704" y="165" on="1"/>
        <pt x="704" y="128" on="1"/>
        <pt x="622" y="128" on="1"/>
        <pt x="622" y="25" on="1"/>
        <pt x="679" y="19" on="1"/>
        <pt x="679" y="0" on="1"/>
        <pt x="493" y="0" on="1"/>
        <pt x="493" y="19" on="1"/>
        <pt x="549" y="25" on="1"/>
      </contour>
      <contour>
        <pt x="196" y="687" on="1"/>
        <pt x="196" y="326" on="1"/>
        <pt x="253" y="320" on="1"/>
        <pt x="253" y="301" on="1"/>
        <pt x="67" y="301" on="1"/>
        <pt x="67" y="320" on="1"/>
        <pt x="123" y="326" on="1"/>
        <pt x="123" y="617" on="1"/>
        <pt x="48" y="583" on="1"/>
        <pt x="35" y="611" on="1"/>
        <pt x="157" y="687" on="1"/>
      </contour>
      <contour>
        <pt x="549" y="164" on="1"/>
        <pt x="549" y="306" on="1"/>
        <pt x="437" y="164" on="1"/>
      </contour>
      <contour>
        <pt x="612" y="668" on="1"/>
        <pt x="206" y="-9" on="1"/>
        <pt x="136" y="-9" on="1"/>
        <pt x="543" y="668" on="1"/>
      </contour>
    </TTGlyph>
    <TTGlyph name="onesuperior" xMin="38" yMin="301" xMax="256" yMax="687">
      <contour>
        <pt x="199" y="687" on="1"/>
        <pt x="160" y="687" on="1"/>
        <pt x="38" y="611" on="1"/>
        <pt x="51" y="583" on="1"/>
        <pt x="126" y="617" on="1"/>
        <pt x="126" y="302" on="1"/>
        <pt x="199" y="302" on="1"/>
      </contour>
      <contour>
        <pt x="256" y="301" on="1"/>
        <pt x="70" y="301" on="1"/>
        <pt x="70" y="320" on="1"/>
        <pt x="132" y="327" on="1"/>
        <pt x="193" y="327" on="1"/>
        <pt x="256" y="320" on="1"/>
      </contour>
    </TTGlyph>
    <TTGlyph name="ordfeminine" xMin="48" yMin="373" xMax="336" yMax="690">
      <contour>
        <pt x="115" y="449" on="1"/>
        <pt x="115" y="393" on="0"/>
        <pt x="156" y="393" on="1"/>
        <pt x="183" y="393" on="0"/>
        <pt x="226" y="434" on="0"/>
        <pt x="227" y="468" on="1"/>
        <pt x="227" y="529" on="1"/>
        <pt x="115" y="527" on="0"/>
      </contour>
      <contour>
        <pt x="137" y="374" on="1"/>
        <pt x="48" y="374" on="0"/>
        <pt x="48" y="449" on="1"/>
        <pt x="48" y="493" on="0"/>
        <pt x="142" y="541" on="0"/>
        <pt x="227" y="542" on="1"/>
        <pt x="227" y="598" on="1"/>
        <pt x="227" y="674" on="0"/>
        <pt x="176" y="674" on="1"/>
        <pt x="149" y="674" on="0"/>
        <pt x="124" y="634" on="0"/>
        <pt x="124" y="596" on="0"/>
        <pt x="126" y="582" on="1"/>
        <pt x="116" y="575" on="0"/>
        <pt x="95" y="575" on="0"/>
        <pt x="85" y="579" on="1"/>
        <pt x="62" y="588" on="0"/>
        <pt x="62" y="610" on="1"/>
        <pt x="62" y="652" on="0"/>
        <pt x="134" y="690" on="0"/>
        <pt x="173" y="690" on="1"/>
        <pt x="237" y="690" on="0"/>
        <pt x="290" y="639" on="0"/>
        <pt x="290" y="584" on="1"/>
        <pt x="290" y="394" on="1"/>
        <pt x="336" y="392" on="1"/>
        <pt x="336" y="379" on="1"/>
        <pt x="231" y="373" on="1"/>
        <pt x="227" y="423" on="1"/>
        <pt x="196" y="374" on="0"/>
      </contour>
    </TTGlyph>
    <TTGlyph name="ordmasculine" xMin="43" yMin="374" xMax="343" yMax="690">
      <contour>
        <pt x="343" y="463" on="0"/>
        <pt x="262" y="374" on="0"/>
        <pt x="123" y="374" on="0"/>
        <pt x="43" y="463" on="0"/>
        <pt x="43" y="601" on="0"/>
        <pt x="123" y="690" on="0"/>
        <pt x="262" y="690" on="0"/>
        <pt x="343" y="601" on="0"/>
      </contour>
      <contour>
        <pt x="192" y="391" on="1"/>
        <pt x="235" y="391" on="0"/>
        <pt x="271" y="463" on="0"/>
        <pt x="271" y="604" on="0"/>
        <pt x="236" y="673" on="0"/>
        <pt x="150" y="673" on="0"/>
        <pt x="115" y="603" on="0"/>
        <pt x="115" y="532" on="1"/>
        <pt x="115" y="391" on="0"/>
      </contour>
    </TTGlyph>
    <TTGlyph name="oslash" xMin="40" yMin="-15" xMax="562" yMax="503">
      <contour>
        <pt x="53" y="16" on="1"/>
        <pt x="490" y="503" on="1"/>
        <pt x="524" y="471" on="1"/>
        <pt x="84" y="-15" on="1"/>
      </contour>
      <contour>
        <pt x="422" y="-11" on="0"/>
        <pt x="180" y="-11" on="0"/>
        <pt x="40" y="133" on="0"/>
        <pt x="40" y="355" on="0"/>
        <pt x="180" y="499" on="0"/>
        <pt x="422" y="499" on="0"/>
        <pt x="562" y="355" on="0"/>
        <pt x="562" y="133" on="0"/>
      </contour>
      <contour>
        <pt x="179" y="13" on="0"/>
        <pt x="423" y="13" on="0"/>
        <pt x="423" y="244" on="1"/>
        <pt x="423" y="357" on="0"/>
        <pt x="369" y="474" on="0"/>
        <pt x="233" y="474" on="0"/>
        <pt x="179" y="357" on="0"/>
        <pt x="179" y="244" on="1"/>
      </contour>
    </TTGlyph>
</ttFont>
